SplineFontDB: 3.0
FontName: Exo-LightItalic
FullName: Exo Light Italic
FamilyName: Exo
Weight: Light
Copyright: Copyright (c) 2011 Natanael Gama (exo@ndiscovered.com), with Reserved Font Name "Exo"
Version: 1.00
ItalicAngle: 0
UnderlinePosition: -50
UnderlineWidth: 50
Ascent: 800
Descent: 200
sfntRevision: 0x00010000
LayerCount: 2
Layer: 0 1 "Back"  1
Layer: 1 1 "Fore"  0
XUID: [1021 594 1414791274 7920983]
FSType: 0
OS2Version: 4
OS2_WeightWidthSlopeOnly: 0
OS2_UseTypoMetrics: 1
CreationTime: 1317846600
ModificationTime: 1328305025
PfmFamily: 17
TTFWeight: 300
TTFWidth: 5
LineGap: 0
VLineGap: 0
Panose: 2 0 3 3 0 0 0 0 0 0
OS2TypoAscent: 202
OS2TypoAOffset: 1
OS2TypoDescent: -127
OS2TypoDOffset: 1
OS2TypoLinegap: 0
OS2WinAscent: 0
OS2WinAOffset: 1
OS2WinDescent: 54
OS2WinDOffset: 1
HheadAscent: 0
HheadAOffset: 1
HheadDescent: -54
HheadDOffset: 1
OS2SubXSize: 650
OS2SubYSize: 700
OS2SubXOff: 0
OS2SubYOff: 140
OS2SupXSize: 650
OS2SupYSize: 700
OS2SupXOff: 0
OS2SupYOff: 480
OS2StrikeYSize: 49
OS2StrikeYPos: 258
OS2Vendor: 'PfEd'
OS2CodePages: 20000093.00000000
OS2UnicodeRanges: a00000ef.4000204b.00000000.00000000
Lookup: 1 0 0 "'smcp' Lowercase to Small Capitals lookup 0"  {"'smcp' Lowercase to Small Capitals lookup 0 subtable"  } ['smcp' ('DFLT' <'dflt' > 'grek' <'dflt' > 'latn' <'FRA ' 'dflt' > ) ]
Lookup: 1 0 0 "'c2sc' Capitals to Small Capitals in Latin lookup 1"  {"'c2sc' Capitals to Small Capitals in Latin lookup 1 subtable"  } ['c2sc' ('latn' <'dflt' > ) ]
Lookup: 4 0 0 "'dlig' Discretionary Ligatures lookup 2"  {"'dlig' Discretionary Ligatures lookup 2 subtable"  } ['dlig' ('DFLT' <'dflt' > 'grek' <'dflt' > 'latn' <'dflt' > ) ]
Lookup: 4 0 1 "'liga' Standard Ligatures lookup 3"  {"'liga' Standard Ligatures lookup 3 subtable"  } ['liga' ('DFLT' <'dflt' > 'grek' <'dflt' > 'latn' <'FRA ' 'dflt' > ) ]

StartChar: .notdef
Encoding: 0 -1 0
AltUni2: 000000.ffffffff.0
Width: 758
Flags: W
LayerCount: 2
Fore
SplineSet
100 0 m 1,0,-1
 100 531 l 1,1,-1
 658 531 l 1,2,-1
 658 0 l 1,3,-1
 100 0 l 1,0,-1
114 22 m 1,4,-1
 370 266 l 1,5,-1
 114 507 l 1,6,-1
 114 22 l 1,4,-1
124 518 m 1,7,-1
 381 276 l 1,8,-1
 635 518 l 1,9,-1
 124 518 l 1,7,-1
127 13 m 1,10,-1
 634 13 l 1,11,-1
 381 256 l 1,12,-1
 127 13 l 1,10,-1
392 266 m 1,13,-1
 644 25 l 1,14,-1
 644 506 l 1,15,-1
 392 266 l 1,13,-1
EndSplineSet
EndChar

StartChar: exclam
Encoding: 33 33 4
Width: 255
GlyphClass: 2
Flags: W
LayerCount: 2
Fore
SplineSet
117 99 m 2,0,-1
 158 99 l 2,1,2
 177 99 177 99 174 78 c 2,3,-1
 165 19 l 2,4,5
 162 0 162 0 143 0 c 2,6,-1
 102 0 l 2,7,8
 93 0 93 0 88 5.5 c 128,-1,9
 83 11 83 11 85 19 c 2,10,-1
 94 78 l 2,11,12
 97 99 97 99 117 99 c 2,0,-1
123 199 m 1,13,-1
 201 731 l 1,14,-1
 268 731 l 1,15,-1
 177 199 l 1,16,-1
 123 199 l 1,13,-1
EndSplineSet
Substitution2: "'smcp' Lowercase to Small Capitals lookup 0 subtable" exclam.smcp
EndChar

StartChar: quotedbl
Encoding: 34 34 5
Width: 349
GlyphClass: 2
Flags: W
LayerCount: 2
Fore
SplineSet
156 531 m 1,0,-1
 168 665 l 1,1,-1
 179 732 l 1,2,-1
 237 732 l 1,3,-1
 226 665 l 1,4,-1
 196 531 l 1,5,-1
 156 531 l 1,0,-1
280 531 m 1,6,-1
 291 665 l 1,7,-1
 302 732 l 1,8,-1
 361 732 l 1,9,-1
 350 665 l 1,10,-1
 320 531 l 1,11,-1
 280 531 l 1,6,-1
EndSplineSet
Substitution2: "'smcp' Lowercase to Small Capitals lookup 0 subtable" quotedbl.smcp
EndChar

StartChar: numbersign
Encoding: 35 35 6
Width: 668
GlyphClass: 2
Flags: W
LayerCount: 2
Fore
SplineSet
56 238 m 1,0,-1
 68 277 l 1,1,-1
 234 277 l 1,2,-1
 290 455 l 1,3,-1
 124 455 l 1,4,-1
 138 494 l 1,5,-1
 302 494 l 1,6,-1
 378 732 l 1,7,-1
 417 732 l 1,8,-1
 341 494 l 1,9,-1
 514 494 l 1,10,-1
 588 732 l 1,11,-1
 627 732 l 1,12,-1
 553 494 l 1,13,-1
 730 494 l 1,14,-1
 716 455 l 1,15,-1
 539 455 l 1,16,-1
 483 276 l 1,17,-1
 660 276 l 1,18,-1
 648 237 l 1,19,-1
 471 237 l 1,20,-1
 395 0 l 1,21,-1
 356 0 l 1,22,-1
 432 237 l 1,23,-1
 259 238 l 1,24,-1
 184 0 l 1,25,-1
 145 0 l 1,26,-1
 221 238 l 1,27,-1
 56 238 l 1,0,-1
272 277 m 1,28,-1
 444 276 l 1,29,-1
 500 455 l 1,30,-1
 328 455 l 1,31,-1
 272 277 l 1,28,-1
EndSplineSet
Substitution2: "'smcp' Lowercase to Small Capitals lookup 0 subtable" numbersign.smcp
EndChar

StartChar: dollar
Encoding: 36 36 7
Width: 574
GlyphClass: 2
Flags: W
LayerCount: 2
Fore
SplineSet
87 54 m 1,0,1
 274 48 274 48 310 48 c 128,-1,2
 346 48 346 48 369 52.5 c 128,-1,3
 392 57 392 57 417 68 c 0,4,5
 470 92 470 92 480 156 c 2,6,-1
 490 224 l 2,7,8
 494 248 494 248 494 261.5 c 128,-1,9
 494 275 494 275 493 282 c 0,10,11
 489 330 489 330 406 330 c 2,12,-1
 285 330 l 2,13,14
 202 330 202 330 167 367 c 0,15,16
 132 403 132 403 132 446 c 0,17,18
 132 466 132 466 135 494 c 1,19,-1
 145 560 l 1,20,21
 162 660 162 660 217.5 698.5 c 128,-1,22
 273 737 273 737 369 738 c 1,23,-1
 383 824 l 1,24,-1
 427 824 l 1,25,-1
 414 736 l 1,26,27
 453 733 453 733 597 716 c 1,28,-1
 590 673 l 1,29,-1
 367 682 l 2,30,31
 360 682 360 682 353 682 c 0,32,33
 293 682 293 682 253.5 657 c 128,-1,34
 214 632 214 632 203 560 c 2,35,-1
 192 494 l 2,36,37
 190 478 190 478 190 465 c 0,38,39
 190 429 190 429 210 408.5 c 128,-1,40
 230 388 230 388 294 388 c 2,41,-1
 415 388 l 2,42,43
 464 388 464 388 495 374 c 128,-1,44
 526 360 526 360 537 337 c 0,45,46
 553 305 553 305 553 275 c 128,-1,47
 553 245 553 245 548 224 c 1,48,-1
 537 156 l 2,49,50
 511 -8 511 -8 317 -8 c 0,51,52
 307 -8 307 -8 296 -8 c 1,53,-1
 283 -89 l 1,54,-1
 238 -89 l 1,55,-1
 252 -4 l 1,56,57
 127 7 127 7 80 14 c 1,58,-1
 87 54 l 1,0,1
EndSplineSet
Substitution2: "'smcp' Lowercase to Small Capitals lookup 0 subtable" dollar.smcp
EndChar

StartChar: percent
Encoding: 37 37 8
Width: 969
GlyphClass: 2
Flags: W
LayerCount: 2
Fore
SplineSet
285 732 m 2,0,-1
 386 732 l 2,1,2
 453 732 453 732 478 703 c 0,3,4
 496 682 496 682 496 643 c 0,5,6
 496 626 496 626 493 607 c 2,7,-1
 472 474 l 2,8,9
 461 404 461 404 430.5 376.5 c 128,-1,10
 400 349 400 349 325 349 c 2,11,-1
 224 349 l 2,12,13
 112 349 112 349 112 443 c 0,14,15
 112 458 112 458 115 474 c 2,16,-1
 136 607 l 2,17,18
 146 674 146 674 177 703 c 128,-1,19
 208 732 208 732 285 732 c 2,0,-1
164 474 m 2,20,21
 161 459 161 459 161 441.5 c 128,-1,22
 161 424 161 424 173.5 411 c 128,-1,23
 186 398 186 398 230 398 c 2,24,-1
 331 398 l 2,25,26
 378 398 378 398 397 413 c 128,-1,27
 416 428 416 428 424 474 c 1,28,-1
 444 607 l 1,29,30
 448 624 448 624 448 635 c 128,-1,31
 448 646 448 646 445 658 c 0,32,33
 439 683 439 683 379 684 c 1,34,-1
 278 684 l 2,35,36
 229 684 229 684 210.5 668 c 128,-1,37
 192 652 192 652 184 607 c 1,38,-1
 164 474 l 2,20,21
225 0 m 1,39,-1
 779 732 l 1,40,-1
 833 732 l 1,41,-1
 279 0 l 1,42,-1
 225 0 l 1,39,-1
739 384 m 2,43,-1
 840 384 l 2,44,45
 908 384 908 384 933 355 c 0,46,47
 951 334 951 334 951 294 c 0,48,49
 951 278 951 278 948 259 c 2,50,-1
 927 126 l 2,51,52
 916 56 916 56 885 28.5 c 128,-1,53
 854 1 854 1 779 1 c 2,54,-1
 678 1 l 2,55,56
 568 1 568 1 568 95 c 0,57,58
 568 110 568 110 570 126 c 2,59,-1
 591 259 l 2,60,61
 602 326 602 326 632.5 355 c 128,-1,62
 663 384 663 384 739 384 c 2,43,-1
619 126 m 2,63,64
 617 111 617 111 617 93.5 c 128,-1,65
 617 76 617 76 629 62.5 c 128,-1,66
 641 49 641 49 685 49 c 2,67,-1
 786 49 l 2,68,69
 833 49 833 49 852.5 64.5 c 128,-1,70
 872 80 872 80 879 126 c 2,71,-1
 900 259 l 2,72,73
 903 275 903 275 903 292.5 c 128,-1,74
 903 310 903 310 892 322.5 c 128,-1,75
 881 335 881 335 833 335 c 2,76,-1
 732 335 l 2,77,78
 671 335 671 335 654 306 c 0,79,80
 645 290 645 290 640 259 c 2,81,-1
 619 126 l 2,63,64
EndSplineSet
Substitution2: "'smcp' Lowercase to Small Capitals lookup 0 subtable" percent.smcp
EndChar

StartChar: ampersand
Encoding: 38 38 9
Width: 646
GlyphClass: 2
Flags: W
LayerCount: 2
Fore
SplineSet
63 181 m 0,0,1
 63 206 63 206 70 231 c 0,2,3
 92 306 92 306 171 366 c 2,4,-1
 266 439 l 1,5,-1
 217 524 l 2,6,7
 193 566 193 566 193 603 c 128,-1,8
 193 640 193 640 210 665 c 0,9,10
 246 718 246 718 313 727 c 1,11,12
 359 732 359 732 426 732 c 128,-1,13
 493 732 493 732 584 715 c 1,14,-1
 578 678 l 1,15,-1
 372 678 l 2,16,17
 264 678 264 678 247 620 c 0,18,19
 245 613 245 613 245 604 c 0,20,21
 245 577 245 577 267 539 c 2,22,-1
 468 192 l 1,23,-1
 617 322 l 1,24,-1
 635 306 l 1,25,-1
 561 200 l 1,26,-1
 497 143 l 1,27,-1
 582 0 l 1,28,-1
 523 0 l 1,29,-1
 457 111 l 1,30,-1
 381 44 l 2,31,32
 324 -5 324 -5 250 -5 c 0,33,34
 214 -5 214 -5 179 9 c 0,35,36
 125 29 125 29 93 80 c 1,37,38
 63 130 63 130 63 181 c 0,0,1
253 49 m 0,39,40
 302 49 302 49 344 85 c 2,41,-1
 429 158 l 1,42,-1
 294 389 l 1,43,-1
 207 323 l 1,44,45
 117 256 117 256 117 179 c 0,46,47
 117 143 117 143 140 110 c 1,48,49
 179 49 179 49 253 49 c 0,39,40
EndSplineSet
AlternateSubs2: "'salt' Stylistic Alternatives in Latin lookup 15 subtable" ampersand.salt
Substitution2: "'smcp' Lowercase to Small Capitals lookup 0 subtable" ampersand.smcp
EndChar

StartChar: quotesingle
Encoding: 39 39 10
Width: 168
GlyphClass: 2
Flags: W
LayerCount: 2
Fore
SplineSet
130 531 m 1,0,-1
 142 665 l 1,1,-1
 153 732 l 1,2,-1
 211 732 l 1,3,-1
 200 665 l 1,4,-1
 170 531 l 1,5,-1
 130 531 l 1,0,-1
EndSplineSet
Substitution2: "'smcp' Lowercase to Small Capitals lookup 0 subtable" quotesingle.smcp
EndChar

StartChar: parenleft
Encoding: 40 40 11
Width: 315
GlyphClass: 2
Flags: W
LayerCount: 2
Fore
SplineSet
230.5 514.5 m 128,-1,1
 198 428 198 428 184 345.5 c 128,-1,2
 170 263 170 263 170 222 c 0,3,4
 170 100 170 100 186 28 c 0,5,6
 214 -97 214 -97 250 -164 c 2,7,-1
 264 -190 l 1,8,-1
 201 -190 l 1,9,10
 187 -166 187 -166 163 -99.5 c 128,-1,11
 139 -33 139 -33 130 25 c 0,12,13
 112 144 112 144 112 215.5 c 128,-1,14
 112 287 112 287 127 349 c 1,15,16
 140 431 140 431 170 516 c 128,-1,17
 200 601 200 601 232 664 c 0,18,19
 299 793 299 793 346 854 c 2,20,-1
 366 880 l 1,21,-1
 433 880 l 1,22,23
 406 846 406 846 365 782.5 c 128,-1,24
 324 719 324 719 293.5 660 c 128,-1,0
 263 601 263 601 230.5 514.5 c 128,-1,1
EndSplineSet
Substitution2: "'case' Case-Sensitive Forms lookup 17 subtable" parenleft.alt
Substitution2: "'c2sc' Capitals to Small Capitals in Latin lookup 1 subtable" parenleft.smcp
Substitution2: "'smcp' Lowercase to Small Capitals lookup 0 subtable" parenleft.smcp
EndChar

StartChar: parenright
Encoding: 41 41 12
Width: 316
GlyphClass: 2
Flags: W
LayerCount: 2
Fore
SplineSet
189 172.5 m 128,-1,1
 221 260 221 260 235.5 342 c 128,-1,2
 250 424 250 424 250 464 c 0,3,4
 250 585 250 585 234 658 c 0,5,6
 206 784 206 784 170 853 c 1,7,-1
 157 880 l 1,8,-1
 219 880 l 1,9,10
 259 803 259 803 285 679 c 0,11,12
 305 584 305 584 305 489 c 0,13,14
 305 332 305 332 249 170 c 0,15,16
 205 42 205 42 125 -90 c 0,17,18
 94 -140 94 -140 75 -165 c 2,19,-1
 55 -190 l 1,20,-1
 -13 -190 l 1,21,22
 14 -158 14 -158 54.5 -95.5 c 128,-1,23
 95 -33 95 -33 126 26 c 128,-1,0
 157 85 157 85 189 172.5 c 128,-1,1
EndSplineSet
Substitution2: "'case' Case-Sensitive Forms lookup 17 subtable" parenright.alt
Substitution2: "'c2sc' Capitals to Small Capitals in Latin lookup 1 subtable" parenright.smcp
Substitution2: "'smcp' Lowercase to Small Capitals lookup 0 subtable" parenright.smcp
EndChar

StartChar: asterisk
Encoding: 42 42 13
Width: 454
GlyphClass: 2
Flags: W
LayerCount: 2
Fore
SplineSet
139 575 m 1,0,-1
 144 606 l 1,1,-1
 287 627 l 1,2,-1
 282 569 l 1,3,-1
 139 575 l 1,0,-1
186 412 m 1,4,-1
 234 547 l 1,5,-1
 289 534 l 1,6,-1
 213 403 l 1,7,-1
 186 412 l 1,4,-1
287 482 m 1,8,-1
 326 531 l 1,9,-1
 425 443 l 1,10,-1
 404 418 l 1,11,-1
 287 482 l 1,8,-1
292 719 m 1,12,-1
 324 731 l 1,13,-1
 378 611 l 1,14,-1
 321 587 l 1,15,-1
 292 719 l 1,12,-1
343 565 m 1,16,-1
 473 643 l 1,17,-1
 484 616 l 1,18,-1
 374 521 l 1,19,-1
 343 565 l 1,16,-1
EndSplineSet
Substitution2: "'smcp' Lowercase to Small Capitals lookup 0 subtable" asterisk.smcp
EndChar

StartChar: plus
Encoding: 43 43 14
Width: 518
GlyphClass: 2
Flags: W
LayerCount: 2
Fore
SplineSet
100 327 m 1,0,-1
 109 385 l 1,1,-1
 283 385 l 1,2,-1
 310 559 l 1,3,-1
 368 559 l 1,4,-1
 340 385 l 1,5,-1
 515 385 l 1,6,-1
 506 327 l 1,7,-1
 331 327 l 1,8,-1
 303 153 l 1,9,-1
 246 153 l 1,10,-1
 274 327 l 1,11,-1
 100 327 l 1,0,-1
EndSplineSet
EndChar

StartChar: comma
Encoding: 44 44 15
Width: 235
GlyphClass: 2
Flags: W
LayerCount: 2
Fore
SplineSet
76 -58 m 0,0,1
 100 -58 100 -58 105 -32 c 2,2,-1
 110 0 l 1,3,-1
 100 0 l 2,4,5
 91 0 91 0 86 5.5 c 128,-1,6
 81 11 81 11 83 21 c 2,7,-1
 92 78 l 2,8,9
 95 100 95 100 116 100 c 2,10,-1
 154 100 l 2,11,12
 170 100 170 100 170 83 c 0,13,14
 170 81 170 81 170 78 c 2,15,-1
 155 -20 l 2,16,17
 148 -61 148 -61 117 -76 c 0,18,19
 103 -83 103 -83 90.5 -83 c 128,-1,20
 78 -83 78 -83 71 -81 c 1,21,-1
 74 -58 l 2,22,23
 75 -58 75 -58 76 -58 c 0,0,1
EndSplineSet
EndChar

StartChar: hyphen
Encoding: 45 45 16
Width: 347
GlyphClass: 2
Flags: W
LayerCount: 2
Fore
SplineSet
60 261 m 1,0,-1
 69 319 l 1,1,-1
 373 319 l 1,2,-1
 364 261 l 1,3,-1
 60 261 l 1,0,-1
EndSplineSet
Substitution2: "'case' Case-Sensitive Forms lookup 17 subtable" hyphen.alt
Substitution2: "'c2sc' Capitals to Small Capitals in Latin lookup 1 subtable" hyphen.smcp
Substitution2: "'smcp' Lowercase to Small Capitals lookup 0 subtable" hyphen.smcp
EndChar

StartChar: period
Encoding: 46 46 17
Width: 238
GlyphClass: 2
Flags: W
LayerCount: 2
Fore
SplineSet
115 99 m 2,0,-1
 154 99 l 2,1,2
 172 99 172 99 172 84 c 0,3,4
 172 81 172 81 172 78 c 2,5,-1
 162 19 l 2,6,7
 159 0 159 0 139 0 c 2,8,-1
 100 0 l 2,9,10
 91 0 91 0 86 5.5 c 128,-1,11
 81 11 81 11 82 19 c 2,12,-1
 92 78 l 1,13,14
 94 99 94 99 115 99 c 2,0,-1
EndSplineSet
EndChar

StartChar: slash
Encoding: 47 47 18
Width: 364
GlyphClass: 2
Flags: W
LayerCount: 2
Fore
SplineSet
8 -72 m 1,0,-1
 422 770 l 1,1,-1
 482 770 l 1,2,-1
 68 -72 l 1,3,-1
 8 -72 l 1,0,-1
EndSplineSet
Substitution2: "'numr' Numerators in Latin lookup 12 subtable" fraction
Substitution2: "'frac' Diagonal Fractions lookup 5 subtable" fraction
EndChar

StartChar: zero
Encoding: 48 48 19
Width: 644
GlyphClass: 2
Flags: W
LayerCount: 2
Fore
SplineSet
357 732 m 2,0,-1
 511 732 l 2,1,2
 596 732 596 732 630 685 c 0,3,4
 656 650 656 650 656 602 c 0,5,6
 656 587 656 587 653 570 c 2,7,-1
 588 162 l 2,8,9
 574 76 574 76 525.5 38 c 128,-1,10
 477 0 477 0 395 0 c 2,11,-1
 241 0 l 2,12,13
 166 0 166 0 124 39 c 0,14,15
 92 69 92 69 92 125 c 0,16,17
 92 142 92 142 95 162 c 2,18,-1
 160 570 l 2,19,20
 173 652 173 652 224.5 692 c 128,-1,21
 276 732 276 732 357 732 c 2,0,-1
152 162 m 1,22,23
 151 140 151 140 151 123 c 128,-1,24
 151 106 151 106 158 94.5 c 128,-1,25
 165 83 165 83 173 75.5 c 128,-1,26
 181 68 181 68 194 64 c 0,27,28
 217 58 217 58 250 58 c 2,29,-1
 404 58 l 2,30,31
 514 58 514 58 531 162 c 2,32,-1
 596 570 l 2,33,34
 598 585 598 585 598 607.5 c 128,-1,35
 598 630 598 630 583 649 c 1,36,37
 561 674 561 674 502 674 c 2,38,-1
 348 674 l 2,39,40
 234 674 234 674 218 570 c 2,41,-1
 152 162 l 1,22,23
EndSplineSet
Substitution2: "'dnom' Denominators in Latin lookup 18 subtable" zero.denominator
Substitution2: "'sups' Superscript lookup 16 subtable" zerosuperior
Substitution2: "'onum' Oldstyle Figures in Latin lookup 14 subtable" zero.oldstyle
Substitution2: "'tnum' Tabular Numbers in Latin lookup 13 subtable" zero.tnum
Substitution2: "'numr' Numerators in Latin lookup 12 subtable" zero.numerator
Substitution2: "'zero' Slashed Zero lookup 11 subtable" uni0338
Substitution2: "'sinf' Scientific Inferiors lookup 10 subtable" zeroinferior
Substitution2: "'frac' Diagonal Fractions lookup 4 subtable" zero.numerator
Substitution2: "'smcp' Lowercase to Small Capitals lookup 0 subtable" zero.smcp
EndChar

StartChar: one
Encoding: 49 49 20
Width: 375
GlyphClass: 2
Flags: W
LayerCount: 2
Fore
SplineSet
134 604 m 1,0,-1
 141 645 l 1,1,2
 182 645 182 645 212 657.5 c 128,-1,3
 242 670 242 670 260 679 c 128,-1,4
 278 688 278 688 292 698 c 0,5,6
 321 717 321 717 338 732 c 1,7,-1
 394 732 l 1,8,-1
 280 0 l 1,9,-1
 222 0 l 1,10,-1
 327 658 l 1,11,12
 301 639 301 639 249.5 621.5 c 128,-1,13
 198 604 198 604 134 604 c 1,0,-1
EndSplineSet
Substitution2: "'dnom' Denominators in Latin lookup 18 subtable" one.denominator
Substitution2: "'sups' Superscript lookup 16 subtable" onesuperior
Substitution2: "'onum' Oldstyle Figures in Latin lookup 14 subtable" one.oldstyle
Substitution2: "'tnum' Tabular Numbers in Latin lookup 13 subtable" one.tnum
Substitution2: "'numr' Numerators in Latin lookup 12 subtable" one.numerator
Substitution2: "'sinf' Scientific Inferiors lookup 10 subtable" oneinferior
Substitution2: "'frac' Diagonal Fractions lookup 4 subtable" one.numerator
Substitution2: "'smcp' Lowercase to Small Capitals lookup 0 subtable" one.smcp
EndChar

StartChar: two
Encoding: 50 50 21
Width: 588
GlyphClass: 2
Flags: W
LayerCount: 2
Fore
SplineSet
566 572 m 0,0,1
 566 683 566 683 439 683 c 2,2,-1
 148 683 l 1,3,-1
 155 725 l 1,4,5
 289 742 289 742 452 742 c 0,6,7
 554 742 554 742 594 679 c 0,8,9
 623 633 623 633 623 569 c 0,10,11
 623 511 623 511 602 466.5 c 128,-1,12
 581 422 581 422 552.5 385.5 c 128,-1,13
 524 349 524 349 491 313.5 c 128,-1,14
 458 278 458 278 418 243.5 c 128,-1,15
 378 209 378 209 344 181 c 128,-1,16
 310 153 310 153 273 126 c 0,17,18
 212 82 212 82 174 58 c 1,19,-1
 543 58 l 1,20,-1
 534 0 l 1,21,-1
 47 0 l 1,22,-1
 56 53 l 1,23,24
 248 176 248 176 349 263 c 0,25,26
 480 375 480 375 526 447 c 0,27,28
 557 494 557 494 561.5 524 c 128,-1,29
 566 554 566 554 566 572 c 0,0,1
EndSplineSet
Substitution2: "'dnom' Denominators in Latin lookup 18 subtable" two.denominator
Substitution2: "'sups' Superscript lookup 16 subtable" twosuperior
Substitution2: "'onum' Oldstyle Figures in Latin lookup 14 subtable" two.oldstyle
Substitution2: "'tnum' Tabular Numbers in Latin lookup 13 subtable" two.tnum
Substitution2: "'numr' Numerators in Latin lookup 12 subtable" two.numerator
Substitution2: "'sinf' Scientific Inferiors lookup 10 subtable" twoinferior
Substitution2: "'frac' Diagonal Fractions lookup 4 subtable" two.numerator
Substitution2: "'smcp' Lowercase to Small Capitals lookup 0 subtable" two.smcp
EndChar

StartChar: three
Encoding: 51 51 22
Width: 589
GlyphClass: 2
Flags: W
LayerCount: 2
Fore
SplineSet
335 51 m 2,0,1
 386 51 386 51 426 78 c 128,-1,2
 466 105 466 105 476 163 c 1,3,-1
 485 222 l 2,4,5
 488 239 488 239 488 253.5 c 128,-1,6
 488 268 488 268 483 286 c 128,-1,7
 478 304 478 304 461 315 c 0,8,9
 432 333 432 333 384 335 c 2,10,-1
 152 342 l 1,11,-1
 160 385 l 1,12,-1
 394 394 l 2,13,14
 449 396 449 396 486.5 423.5 c 128,-1,15
 524 451 524 451 532 501 c 2,16,-1
 542 570 l 2,17,18
 544 584 544 584 544 595 c 0,19,20
 544 676 544 676 440 676 c 2,21,-1
 138 676 l 1,22,-1
 143 712 l 1,23,24
 199 728 199 728 260 731.5 c 128,-1,25
 321 735 321 735 370 735 c 128,-1,26
 419 735 419 735 456 734 c 0,27,28
 533 733 533 733 572 686 c 0,29,30
 602 651 602 651 602 600 c 0,31,32
 602 585 602 585 600 569 c 2,33,-1
 589 500 l 2,34,35
 579 440 579 440 548 406 c 128,-1,36
 517 372 517 372 483 364 c 1,37,38
 527 345 527 345 542 291 c 0,39,40
 547 273 547 273 547 254.5 c 128,-1,41
 547 236 547 236 545 220 c 2,42,-1
 535 161 l 1,43,44
 509 -7 509 -7 331 -7 c 0,45,46
 190 -7 190 -7 130.5 -1.5 c 128,-1,47
 71 4 71 4 39 15 c 1,48,-1
 45 51 l 1,49,-1
 335 51 l 2,0,1
EndSplineSet
Substitution2: "'dnom' Denominators in Latin lookup 18 subtable" three.denominator
Substitution2: "'sups' Superscript lookup 16 subtable" threesuperior
Substitution2: "'onum' Oldstyle Figures in Latin lookup 14 subtable" three.oldstyle
Substitution2: "'tnum' Tabular Numbers in Latin lookup 13 subtable" three.tnum
Substitution2: "'numr' Numerators in Latin lookup 12 subtable" three.numerator
Substitution2: "'sinf' Scientific Inferiors lookup 10 subtable" threeinferior
Substitution2: "'frac' Diagonal Fractions lookup 4 subtable" three.numerator
Substitution2: "'smcp' Lowercase to Small Capitals lookup 0 subtable" three.smcp
EndChar

StartChar: four
Encoding: 52 52 23
Width: 592
GlyphClass: 2
Flags: W
LayerCount: 2
Fore
SplineSet
55 228 m 1,0,-1
 451 732 l 1,1,-1
 522 732 l 1,2,-1
 149 255 l 1,3,-1
 459 255 l 1,4,-1
 493 472 l 1,5,-1
 535 547 l 1,6,-1
 564 547 l 1,7,-1
 518 255 l 1,8,-1
 608 255 l 1,9,-1
 601 211 l 1,10,-1
 509 195 l 1,11,-1
 478 2 l 1,12,-1
 419 2 l 1,13,-1
 449 195 l 1,14,-1
 76 195 l 1,15,-1
 55 228 l 1,0,-1
EndSplineSet
Substitution2: "'dnom' Denominators in Latin lookup 18 subtable" four.denominator
Substitution2: "'sups' Superscript lookup 16 subtable" foursuperior
Substitution2: "'onum' Oldstyle Figures in Latin lookup 14 subtable" four.oldstyle
Substitution2: "'tnum' Tabular Numbers in Latin lookup 13 subtable" four.tnum
Substitution2: "'numr' Numerators in Latin lookup 12 subtable" four.numerator
Substitution2: "'sinf' Scientific Inferiors lookup 10 subtable" fourinferior
Substitution2: "'frac' Diagonal Fractions lookup 4 subtable" four.numerator
Substitution2: "'smcp' Lowercase to Small Capitals lookup 0 subtable" four.smcp
EndChar

StartChar: five
Encoding: 53 53 24
Width: 610
GlyphClass: 2
Flags: W
LayerCount: 2
Fore
SplineSet
360 443 m 2,0,-1
 450 441 l 1,1,2
 524 441 524 441 561 394 c 0,3,4
 589 358 589 358 589 306 c 0,5,6
 589 289 589 289 586 272 c 2,7,-1
 570 165 l 1,8,9
 543 -3 543 -3 380 -5 c 0,10,11
 365 -5 365 -5 316 -5 c 0,12,13
 194 -5 194 -5 79 15 c 1,14,-1
 86 56 l 1,15,-1
 387 56 l 2,16,17
 437 56 437 56 471 88.5 c 128,-1,18
 505 121 505 121 512 167 c 2,19,-1
 529 270 l 2,20,21
 532 287 532 287 532 302 c 0,22,23
 532 384 532 384 443 384 c 2,24,-1
 291 384 l 2,25,26
 252 384 252 384 218.5 358.5 c 128,-1,27
 185 333 185 333 178 292 c 1,28,-1
 124 292 l 1,29,-1
 216 732 l 1,30,-1
 639 732 l 1,31,-1
 629 674 l 1,32,-1
 261 674 l 1,33,-1
 204 399 l 1,34,35
 239 439 239 439 307 442 c 0,36,37
 340 443 340 443 360 443 c 2,0,-1
EndSplineSet
Substitution2: "'dnom' Denominators in Latin lookup 18 subtable" five.denominator
Substitution2: "'sups' Superscript lookup 16 subtable" fivesuperior
Substitution2: "'onum' Oldstyle Figures in Latin lookup 14 subtable" five.oldstyle
Substitution2: "'tnum' Tabular Numbers in Latin lookup 13 subtable" five.tnum
Substitution2: "'numr' Numerators in Latin lookup 12 subtable" five.numerator
Substitution2: "'sinf' Scientific Inferiors lookup 10 subtable" fiveinferior
Substitution2: "'frac' Diagonal Fractions lookup 4 subtable" five.numerator
Substitution2: "'smcp' Lowercase to Small Capitals lookup 0 subtable" five.smcp
EndChar

StartChar: six
Encoding: 54 54 25
Width: 625
GlyphClass: 2
Flags: W
LayerCount: 2
Fore
SplineSet
185 403 m 1,0,1
 339 420 339 420 457 420 c 0,2,3
 532 420 532 420 564 387 c 256,4,5
 596 354 596 354 596 315 c 0,6,7
 596 298 596 298 594 272 c 1,8,-1
 575 148 l 2,9,10
 562 68 562 68 516 34 c 128,-1,11
 470 0 470 0 395 0 c 2,12,-1
 255 0 l 2,13,14
 149 0 149 0 120 114 c 0,15,16
 109 155 109 155 109 223.5 c 128,-1,17
 109 292 109 292 124 385.5 c 128,-1,18
 139 479 139 479 164.5 549.5 c 128,-1,19
 190 620 190 620 222 660 c 0,20,21
 283 738 283 738 352 738 c 0,22,23
 532 738 532 738 641 722 c 1,24,-1
 635 680 l 1,25,-1
 353 680 l 2,26,27
 318 680 318 680 287.5 651 c 128,-1,28
 257 622 257 622 237 576 c 0,29,30
 199 489 199 489 185 403 c 1,0,1
165 219 m 0,31,32
 165 55 165 55 260 55 c 2,33,-1
 399 55 l 2,34,35
 503 55 503 55 518 151 c 2,36,-1
 537 270 l 2,37,38
 539 286 539 286 539 308 c 128,-1,39
 539 330 539 330 521 346.5 c 128,-1,40
 503 363 503 363 447 363 c 2,41,-1
 178 363 l 1,42,43
 165 279 165 279 165 219 c 0,31,32
EndSplineSet
Substitution2: "'dnom' Denominators in Latin lookup 18 subtable" six.denominator
Substitution2: "'sups' Superscript lookup 16 subtable" sixsuperior
Substitution2: "'onum' Oldstyle Figures in Latin lookup 14 subtable" six.oldstyle
Substitution2: "'tnum' Tabular Numbers in Latin lookup 13 subtable" six.tnum
Substitution2: "'numr' Numerators in Latin lookup 12 subtable" six.numerator
Substitution2: "'sinf' Scientific Inferiors lookup 10 subtable" sixinferior
Substitution2: "'frac' Diagonal Fractions lookup 4 subtable" six.numerator
Substitution2: "'smcp' Lowercase to Small Capitals lookup 0 subtable" six.smcp
EndChar

StartChar: seven
Encoding: 55 55 26
Width: 544
GlyphClass: 2
Flags: W
LayerCount: 2
Fore
SplineSet
134 674 m 1,0,-1
 143 732 l 1,1,-1
 595 732 l 1,2,-1
 612 692 l 1,3,-1
 247 0 l 1,4,-1
 179 0 l 1,5,-1
 537 674 l 1,6,-1
 134 674 l 1,0,-1
EndSplineSet
Substitution2: "'dnom' Denominators in Latin lookup 18 subtable" seven.denominator
Substitution2: "'sups' Superscript lookup 16 subtable" sevensuperior
Substitution2: "'onum' Oldstyle Figures in Latin lookup 14 subtable" seven.oldstyle
Substitution2: "'tnum' Tabular Numbers in Latin lookup 13 subtable" seven.tnum
Substitution2: "'numr' Numerators in Latin lookup 12 subtable" seven.numerator
Substitution2: "'sinf' Scientific Inferiors lookup 10 subtable" seveninferior
Substitution2: "'frac' Diagonal Fractions lookup 4 subtable" seven.numerator
Substitution2: "'smcp' Lowercase to Small Capitals lookup 0 subtable" seven.smcp
EndChar

StartChar: eight
Encoding: 56 56 27
Width: 635
GlyphClass: 2
Flags: W
LayerCount: 2
Fore
SplineSet
525 381 m 1,0,1
 590 360 590 360 590 279 c 0,2,3
 590 266 590 266 588 252 c 2,4,-1
 573 154 l 1,5,6
 555 45 555 45 477 15 c 0,7,8
 440 0 440 0 387 0 c 2,9,-1
 252 0 l 2,10,11
 204 0 204 0 171 13 c 128,-1,12
 138 26 138 26 123 43 c 128,-1,13
 108 60 108 60 102 83 c 128,-1,14
 96 106 96 106 96 120.5 c 128,-1,15
 96 135 96 135 99 154 c 2,16,-1
 114 252 l 2,17,18
 120 288 120 288 139 313 c 0,19,20
 174 361 174 361 228 365 c 1,21,22
 194 374 194 374 174.5 398 c 128,-1,23
 155 422 155 422 153.5 441.5 c 128,-1,24
 152 461 152 461 152 474.5 c 128,-1,25
 152 488 152 488 153 501 c 1,26,-1
 164 566 l 1,27,28
 179 662 179 662 228 699.5 c 128,-1,29
 277 737 277 737 365 737 c 2,30,-1
 501 737 l 2,31,32
 579 737 579 737 615 692 c 0,33,34
 641 659 641 659 641 604 c 0,35,36
 641 584 641 584 638 562 c 2,37,-1
 627 497 l 1,38,39
 621 447 621 447 580 409 c 0,40,41
 556 386 556 386 525 381 c 1,0,1
154 129 m 0,42,43
 154 96 154 96 177.5 76.5 c 128,-1,44
 201 57 201 57 262 57 c 2,45,-1
 394 57 l 2,46,47
 436 57 436 57 471 79.5 c 128,-1,48
 506 102 506 102 514 151 c 2,49,-1
 531 256 l 2,50,51
 533 268 533 268 533 278 c 0,52,53
 533 310 533 310 510 327.5 c 128,-1,54
 487 345 487 345 445 345 c 2,55,-1
 295 345 l 2,56,57
 253 345 253 345 216.5 324 c 128,-1,58
 180 303 180 303 173 256 c 2,59,-1
 156 151 l 2,60,61
 154 139 154 139 154 129 c 0,42,43
210 494 m 2,62,63
 208 483 208 483 208 471 c 128,-1,64
 208 459 208 459 213.5 443 c 128,-1,65
 219 427 219 427 235 418 c 0,66,67
 264 402 264 402 303 402 c 2,68,-1
 452 402 l 2,69,70
 507 402 507 402 535 429.5 c 128,-1,71
 563 457 563 457 569 494 c 2,72,-1
 580 562 l 2,73,74
 583 584 583 584 583 610 c 0,75,76
 583 679 583 679 491 679 c 2,77,-1
 356 679 l 2,78,79
 289 679 289 679 259.5 652 c 128,-1,80
 230 625 230 625 220 562 c 2,81,-1
 210 494 l 2,62,63
EndSplineSet
Substitution2: "'dnom' Denominators in Latin lookup 18 subtable" eight.denominator
Substitution2: "'sups' Superscript lookup 16 subtable" eightsuperior
Substitution2: "'onum' Oldstyle Figures in Latin lookup 14 subtable" eight.oldstyle
Substitution2: "'tnum' Tabular Numbers in Latin lookup 13 subtable" eight.tnum
Substitution2: "'numr' Numerators in Latin lookup 12 subtable" eight.numerator
Substitution2: "'sinf' Scientific Inferiors lookup 10 subtable" eightinferior
Substitution2: "'frac' Diagonal Fractions lookup 4 subtable" eight.numerator
Substitution2: "'smcp' Lowercase to Small Capitals lookup 0 subtable" eight.smcp
EndChar

StartChar: nine
Encoding: 57 57 28
Width: 625
GlyphClass: 2
Flags: W
LayerCount: 2
Fore
SplineSet
543 333 m 1,0,1
 389 316 389 316 268 316 c 0,2,3
 193 316 193 316 162 349 c 256,4,5
 131 382 131 382 131 422 c 0,6,7
 131 437 131 437 133 465 c 1,8,-1
 153 590 l 2,9,10
 176 736 176 736 337 736 c 2,11,-1
 474 736 l 2,12,13
 619 736 619 736 619 515 c 0,14,15
 619 443 619 443 605.5 358 c 128,-1,16
 592 273 592 273 572.5 212 c 128,-1,17
 553 151 553 151 530.5 111.5 c 128,-1,18
 508 72 508 72 481 46 c 0,19,20
 432 -2 432 -2 376 -2 c 0,21,22
 177 -2 177 -2 86 14 c 1,23,-1
 93 56 l 1,24,-1
 374 56 l 2,25,26
 432 56 432 56 478 136 c 0,27,28
 522 214 522 214 543 333 c 1,0,1
188 437 m 0,29,30
 188 405 188 405 207.5 389 c 128,-1,31
 227 373 227 373 282 373 c 2,32,-1
 550 373 l 1,33,34
 563 458 563 458 563 519 c 0,35,36
 563 681 563 681 469 681 c 2,37,-1
 329 681 l 2,38,39
 223 681 223 681 208 585 c 2,40,-1
 190 464 l 2,41,42
 188 449 188 449 188 437 c 0,29,30
EndSplineSet
Substitution2: "'dnom' Denominators in Latin lookup 18 subtable" nine.denominator
Substitution2: "'sups' Superscript lookup 16 subtable" ninesuperior
Substitution2: "'onum' Oldstyle Figures in Latin lookup 14 subtable" nine.oldstyle
Substitution2: "'tnum' Tabular Numbers in Latin lookup 13 subtable" nine.tnum
Substitution2: "'numr' Numerators in Latin lookup 12 subtable" nine.numerator
Substitution2: "'sinf' Scientific Inferiors lookup 10 subtable" nineinferior
Substitution2: "'frac' Diagonal Fractions lookup 4 subtable" nine.numerator
Substitution2: "'smcp' Lowercase to Small Capitals lookup 0 subtable" nine.smcp
EndChar

StartChar: colon
Encoding: 58 58 29
Width: 240
GlyphClass: 2
Flags: W
LayerCount: 2
Fore
SplineSet
117 99 m 2,0,-1
 156 99 l 2,1,2
 174 99 174 99 174 84 c 0,3,4
 174 81 174 81 173 78 c 2,5,-1
 164 19 l 2,6,7
 161 0 161 0 141 0 c 2,8,-1
 101 0 l 2,9,10
 93 0 93 0 88 5.5 c 128,-1,11
 83 11 83 11 84 19 c 2,12,-1
 93 78 l 2,13,14
 96 99 96 99 117 99 c 2,0,-1
184 531 m 2,16,-1
 223 531 l 2,17,18
 241 531 241 531 241 516 c 0,19,20
 241 514 241 514 240 511 c 2,21,-1
 231 452 l 2,22,23
 228 433 228 433 207 433 c 2,24,-1
 168 433 l 2,25,26
 159 433 159 433 154.5 438 c 128,-1,27
 150 443 150 443 151 452 c 2,28,-1
 160 511 l 2,29,15
 163 531 163 531 184 531 c 2,16,-1
EndSplineSet
EndChar

StartChar: semicolon
Encoding: 59 59 30
Width: 239
GlyphClass: 2
Flags: W
LayerCount: 2
Fore
SplineSet
76 -58 m 0,0,1
 100 -58 100 -58 105 -32 c 2,2,-1
 110 0 l 1,3,-1
 100 0 l 2,4,5
 92 0 92 0 87 6.5 c 128,-1,6
 82 13 82 13 83 21 c 2,7,-1
 92 78 l 2,8,9
 93 87 93 87 100 93.5 c 128,-1,10
 107 100 107 100 116 100 c 2,11,-1
 154 100 l 2,12,13
 170 100 170 100 170 83 c 0,14,15
 170 81 170 81 170 78 c 2,16,-1
 155 -20 l 2,17,18
 148 -61 148 -61 117 -76 c 0,19,20
 103 -83 103 -83 90.5 -83 c 128,-1,21
 78 -83 78 -83 71 -81 c 1,22,-1
 74 -58 l 2,23,24
 75 -58 75 -58 76 -58 c 0,0,1
185 532 m 2,25,-1
 224 532 l 2,26,27
 242 532 242 532 242 517 c 0,28,29
 242 514 242 514 242 511 c 2,30,-1
 232 452 l 2,31,32
 229 433 229 433 209 433 c 2,33,-1
 170 433 l 2,34,35
 161 433 161 433 156 438.5 c 128,-1,36
 151 444 151 444 152 452 c 2,37,-1
 162 511 l 2,38,39
 165 532 165 532 185 532 c 2,25,-1
EndSplineSet
EndChar

StartChar: less
Encoding: 60 60 31
Width: 473
GlyphClass: 2
Flags: W
LayerCount: 2
Fore
SplineSet
99 324 m 1,0,-1
 109 384 l 1,1,-1
 501 556 l 1,2,-1
 491 494 l 1,3,-1
 170 351 l 1,4,-1
 444 198 l 1,5,-1
 435 140 l 1,6,-1
 99 324 l 1,0,-1
EndSplineSet
EndChar

StartChar: equal
Encoding: 61 61 32
Width: 465
GlyphClass: 2
Flags: W
LayerCount: 2
Fore
SplineSet
53 212 m 1,0,-1
 63 270 l 1,1,-1
 490 270 l 1,2,-1
 480 212 l 1,3,-1
 53 212 l 1,0,-1
88 438 m 1,4,-1
 98 495 l 1,5,-1
 525 495 l 1,6,-1
 515 438 l 1,7,-1
 88 438 l 1,4,-1
EndSplineSet
EndChar

StartChar: greater
Encoding: 62 62 33
Width: 474
GlyphClass: 2
Flags: W
LayerCount: 2
Fore
SplineSet
72 140 m 1,0,-1
 82 204 l 1,1,-1
 409 355 l 1,2,-1
 128 502 l 1,3,-1
 138 556 l 1,4,-1
 475 384 l 1,5,-1
 466 324 l 1,6,-1
 72 140 l 1,0,-1
EndSplineSet
EndChar

StartChar: question
Encoding: 63 63 34
Width: 540
GlyphClass: 2
Flags: W
LayerCount: 2
Fore
SplineSet
285 296 m 1,0,-1
 269 195 l 1,1,-1
 210 195 l 1,2,-1
 233 344 l 1,3,4
 276 343 276 343 308 343 c 128,-1,5
 340 343 340 343 362 344 c 0,6,7
 417 345 417 345 455.5 371.5 c 128,-1,8
 494 398 494 398 503 453 c 2,9,-1
 519 554 l 2,10,11
 522 573 522 573 522 589 c 0,12,13
 522 633 522 633 501 654 c 0,14,15
 471 684 471 684 389 684 c 2,16,-1
 125 684 l 1,17,-1
 132 722 l 1,18,19
 273 740 273 740 372 740 c 0,20,21
 389 740 389 740 397 739.5 c 128,-1,22
 405 739 405 739 405 739 c 1,23,24
 506 739 506 739 548 688 c 0,25,26
 579 650 579 650 579 593 c 0,27,28
 579 574 579 574 576 554 c 2,29,-1
 560 453 l 2,30,31
 549 382 549 382 512 343 c 128,-1,32
 475 304 475 304 418 295 c 0,33,34
 391 291 391 291 358 291 c 128,-1,35
 325 291 325 291 285 296 c 1,0,-1
206 99 m 2,36,-1
 245 99 l 2,37,38
 263 99 263 99 263 84 c 0,39,40
 263 81 263 81 263 78 c 2,41,-1
 254 19 l 1,42,43
 250 0 250 0 230 0 c 2,44,-1
 191 0 l 2,45,46
 182 0 182 0 177 5.5 c 128,-1,47
 172 11 172 11 174 19 c 2,48,-1
 183 78 l 2,49,50
 186 99 186 99 206 99 c 2,36,-1
EndSplineSet
Substitution2: "'smcp' Lowercase to Small Capitals lookup 0 subtable" question.smcp
EndChar

StartChar: at
Encoding: 64 64 35
Width: 878
GlyphClass: 2
Flags: W
LayerCount: 2
Fore
SplineSet
350 699 m 2,0,-1
 725 699 l 2,1,2
 807 699 807 699 842 653 c 0,3,4
 868 619 868 619 868 564 c 0,5,6
 868 544 868 544 865 521 c 2,7,-1
 812 167 l 2,8,9
 800 87 800 87 762 48 c 1,10,11
 746 30 746 30 715 16.5 c 128,-1,12
 684 3 684 3 643 3 c 2,13,-1
 597 3 l 1,14,-1
 582 63 l 1,15,16
 542 19 542 19 463 2 c 0,17,18
 435 -4 435 -4 404 -4 c 0,19,20
 316 -4 316 -4 276 55 c 0,21,22
 249 94 249 94 249 172 c 0,23,24
 249 217 249 217 258.5 278 c 128,-1,25
 268 339 268 339 286.5 387.5 c 128,-1,26
 305 436 305 436 326.5 464.5 c 128,-1,27
 348 493 348 493 375 512 c 0,28,29
 423 544 423 544 483.5 544 c 128,-1,30
 544 544 544 544 604.5 530 c 128,-1,31
 665 516 665 516 700 482 c 1,32,-1
 638 60 l 1,33,34
 712 60 712 60 737 109 c 0,35,36
 749 132 749 132 754 167 c 2,37,-1
 808 521 l 1,38,39
 819 600 819 600 791 623 c 0,40,41
 769 641 769 641 721 641 c 2,42,-1
 342 641 l 2,43,44
 268 641 268 641 236 598 c 1,45,46
 209 564 209 564 202 521 c 2,47,-1
 121 9 l 2,48,49
 119 -8 119 -8 119 -34 c 128,-1,50
 119 -60 119 -60 136 -86 c 0,51,52
 160 -122 160 -122 221 -122 c 2,53,-1
 606 -122 l 1,54,-1
 600 -158 l 1,55,56
 493 -179 493 -179 309 -179 c 2,57,-1
 211 -179 l 2,58,59
 134 -179 134 -179 92 -126 c 1,60,61
 61 -85 61 -85 61 -28 c 0,62,63
 61 -10 61 -10 64 9 c 2,64,-1
 145 521 l 2,65,66
 174 699 174 699 350 699 c 2,0,-1
313 254 m 1,67,68
 308 202 308 202 308 181 c 128,-1,69
 308 160 308 160 308 154 c 0,70,71
 309 115 309 115 323 93 c 128,-1,72
 337 71 337 71 357 62 c 256,73,74
 377 53 377 53 413 53 c 0,75,76
 507 53 507 53 587 114 c 1,77,-1
 640 463 l 1,78,79
 575 487 575 487 486 487 c 0,80,81
 481 487 481 487 477 487 c 0,82,83
 342 485 342 485 313 254 c 1,67,68
EndSplineSet
Substitution2: "'case' Case-Sensitive Forms lookup 17 subtable" at.alt
Substitution2: "'smcp' Lowercase to Small Capitals lookup 0 subtable" at.smcp
EndChar

StartChar: A
Encoding: 65 65 36
Width: 654
GlyphClass: 2
Flags: W
LayerCount: 2
Fore
SplineSet
45 0 m 1,0,-1
 432 732 l 1,1,-1
 492 732 l 1,2,-1
 635 0 l 1,3,-1
 577 0 l 1,4,-1
 534 220 l 1,5,-1
 225 220 l 1,6,-1
 109 0 l 1,7,-1
 45 0 l 1,0,-1
256 278 m 1,8,-1
 523 278 l 1,9,-1
 452 655 l 1,10,-1
 256 278 l 1,8,-1
EndSplineSet
Substitution2: "'c2sc' Capitals to Small Capitals in Latin lookup 1 subtable" a.smcp
EndChar

StartChar: B
Encoding: 66 66 37
Width: 594
GlyphClass: 2
Flags: W
LayerCount: 2
Fore
SplineSet
469 732 m 2,0,1
 568 732 568 732 609 673 c 0,2,3
 633 639 633 639 633 578 c 0,4,5
 633 562 633 562 630 545 c 0,6,7
 621 476 621 476 584.5 434 c 128,-1,8
 548 392 548 392 499 381 c 1,9,10
 532 375 532 375 557 332 c 128,-1,11
 582 289 582 289 582 238 c 0,12,13
 582 220 582 220 579 200 c 0,14,15
 553 0 553 0 353 0 c 2,16,-1
 80 0 l 1,17,-1
 196 732 l 1,18,-1
 469 732 l 2,0,1
524 236 m 0,19,20
 524 279 524 279 502 312 c 0,21,22
 472 355 472 355 411 355 c 0,23,24
 410 355 410 355 409 355 c 2,25,-1
 194 355 l 1,26,-1
 148 58 l 1,27,-1
 362 58 l 2,28,29
 498 58 498 58 522 205 c 0,30,31
 524 221 524 221 524 236 c 0,19,20
419 412 m 2,32,33
 480 412 480 412 520.5 447 c 128,-1,34
 561 482 561 482 572 546 c 0,35,36
 576 569 576 569 576 587 c 0,37,38
 576 628 576 628 556 647 c 0,39,40
 527 674 527 674 461 674 c 2,41,-1
 245 674 l 1,42,-1
 204 412 l 1,43,-1
 419 412 l 2,32,33
EndSplineSet
Substitution2: "'c2sc' Capitals to Small Capitals in Latin lookup 1 subtable" b.smcp
EndChar

StartChar: C
Encoding: 67 67 38
Width: 573
GlyphClass: 2
Flags: W
LayerCount: 2
Fore
SplineSet
327 729 m 0,0,1
 367 740 367 740 434 740 c 128,-1,2
 501 740 501 740 647 712 c 1,3,-1
 640 668 l 1,4,5
 529 683 529 683 429 683 c 0,6,7
 368 683 368 683 340 673.5 c 128,-1,8
 312 664 312 664 295 651 c 128,-1,9
 278 638 278 638 259 614.5 c 128,-1,10
 240 591 240 591 225 558 c 0,11,12
 192 484 192 484 173 366 c 0,13,14
 163 304 163 304 163 245.5 c 128,-1,15
 163 187 163 187 181 139 c 0,16,17
 213 56 213 56 306 52 c 0,18,19
 318 51 318 51 363 51 c 128,-1,20
 408 51 408 51 546 61 c 1,21,-1
 540 17 l 1,22,23
 447 -6 447 -6 302 -6 c 0,24,25
 247 -6 247 -6 208 16 c 0,26,27
 105 72 105 72 105 251 c 0,28,29
 105 349 105 349 137 479 c 0,30,31
 164 588 164 588 205 643 c 0,32,33
 255 709 255 709 327 729 c 0,0,1
EndSplineSet
Substitution2: "'c2sc' Capitals to Small Capitals in Latin lookup 1 subtable" c.smcp
EndChar

StartChar: D
Encoding: 68 68 39
Width: 664
GlyphClass: 2
Flags: W
LayerCount: 2
Fore
SplineSet
462 732 m 0,0,1
 516 732 516 732 556.5 714 c 128,-1,2
 597 696 597 696 620 664 c 0,3,4
 668 598 668 598 672 515 c 0,5,6
 674 491 674 491 674 471 c 0,7,8
 674 415 674 415 664 360 c 0,9,10
 600 0 600 0 348 0 c 2,11,-1
 80 0 l 1,12,-1
 196 731 l 2,13,14
 196 732 196 732 462 732 c 0,0,1
617 477 m 0,15,16
 617 675 617 675 452 675 c 2,17,-1
 244 675 l 1,18,-1
 147 60 l 1,19,-1
 356 60 l 2,20,21
 478 60 478 60 550 193 c 0,22,23
 591 267 591 267 604 347 c 128,-1,24
 617 427 617 427 617 477 c 0,15,16
EndSplineSet
Substitution2: "'c2sc' Capitals to Small Capitals in Latin lookup 1 subtable" d.smcp
EndChar

StartChar: E
Encoding: 69 69 40
Width: 565
GlyphClass: 2
Flags: W
LayerCount: 2
Fore
SplineSet
311 732 m 0,0,1
 316 732 316 732 321 732 c 2,2,-1
 629 718 l 1,3,-1
 622 675 l 1,4,-1
 312 675 l 2,5,6
 243 675 243 675 232 602 c 2,7,-1
 198 393 l 1,8,-1
 536 385 l 1,9,-1
 529 341 l 1,10,-1
 189 332 l 1,11,-1
 156 123 l 2,12,13
 154 112 154 112 154 102.5 c 128,-1,14
 154 93 154 93 157 81.5 c 128,-1,15
 160 70 160 70 173 64 c 0,16,17
 191 55 191 55 224 55 c 2,18,-1
 524 55 l 1,19,-1
 517 12 l 1,20,-1
 214 -3 l 2,21,22
 209 -3 209 -3 204 -3 c 0,23,24
 154 -3 154 -3 124.5 22.5 c 128,-1,25
 95 48 95 48 95 94 c 0,26,27
 95 108 95 108 98 125 c 2,28,-1
 174 604 l 2,29,30
 195 732 195 732 311 732 c 0,0,1
EndSplineSet
Substitution2: "'c2sc' Capitals to Small Capitals in Latin lookup 1 subtable" e.smcp
EndChar

StartChar: F
Encoding: 70 70 41
Width: 563
GlyphClass: 2
Flags: W
LayerCount: 2
Fore
SplineSet
312 732 m 0,0,1
 317 732 317 732 322 732 c 2,2,-1
 630 718 l 1,3,-1
 623 674 l 1,4,-1
 312 674 l 2,5,6
 274 674 274 674 256 655.5 c 128,-1,7
 238 637 238 637 233 602 c 2,8,-1
 200 393 l 1,9,-1
 537 385 l 1,10,-1
 530 341 l 1,11,-1
 190 332 l 1,12,-1
 138 0 l 1,13,-1
 80 0 l 1,14,-1
 175 601 l 2,15,16
 196 732 196 732 312 732 c 0,0,1
EndSplineSet
Substitution2: "'c2sc' Capitals to Small Capitals in Latin lookup 1 subtable" f.smcp
EndChar

StartChar: G
Encoding: 71 71 42
Width: 619
GlyphClass: 2
Flags: W
LayerCount: 2
Fore
SplineSet
168 236 m 0,0,1
 168 51 168 51 305 51 c 0,2,3
 306 51 306 51 323.5 51 c 128,-1,4
 341 51 341 51 393.5 64.5 c 128,-1,5
 446 78 446 78 482 91 c 1,6,-1
 517 105 l 1,7,-1
 555 330 l 1,8,-1
 371 330 l 1,9,-1
 378 369 l 1,10,11
 456 389 456 389 554 389 c 0,12,13
 585 389 585 389 621 386 c 1,14,-1
 560 0 l 1,15,-1
 518 0 l 1,16,-1
 511 56 l 1,17,18
 483 35 483 35 419.5 14.5 c 128,-1,19
 356 -6 356 -6 300 -6 c 128,-1,20
 244 -6 244 -6 204.5 16 c 128,-1,21
 165 38 165 38 144 73 c 0,22,23
 108 136 108 136 108 242 c 0,24,25
 108 352 108 352 145 495 c 0,26,27
 177 618 177 618 235 674 c 0,28,29
 301 739 301 739 413 739 c 0,30,31
 415 739 415 739 433.5 739 c 128,-1,32
 452 739 452 739 522.5 730.5 c 128,-1,33
 593 722 593 722 649 711 c 1,34,-1
 643 665 l 1,35,36
 610 670 610 670 530 676 c 0,37,38
 444 682 444 682 409 682 c 128,-1,39
 374 682 374 682 349.5 676 c 128,-1,40
 325 670 325 670 297.5 650 c 128,-1,41
 270 630 270 630 249 597 c 0,42,43
 202 520 202 520 179 366 c 0,44,45
 168 293 168 293 168 236 c 0,0,1
EndSplineSet
Substitution2: "'c2sc' Capitals to Small Capitals in Latin lookup 1 subtable" g.smcp
EndChar

StartChar: H
Encoding: 72 72 43
Width: 639
GlyphClass: 2
Flags: W
LayerCount: 2
Fore
SplineSet
85 0 m 1,0,-1
 201 732 l 1,1,-1
 258 732 l 1,2,-1
 203 383 l 1,3,-1
 582 383 l 1,4,-1
 638 732 l 1,5,-1
 696 732 l 1,6,-1
 580 0 l 1,7,-1
 522 0 l 1,8,-1
 574 325 l 1,9,-1
 194 325 l 1,10,-1
 142 0 l 1,11,-1
 85 0 l 1,0,-1
EndSplineSet
Substitution2: "'c2sc' Capitals to Small Capitals in Latin lookup 1 subtable" h.smcp
EndChar

StartChar: I
Encoding: 73 73 44
Width: 214
GlyphClass: 2
Flags: W
LayerCount: 2
Fore
SplineSet
90 0 m 1,0,-1
 206 732 l 1,1,-1
 264 732 l 1,2,-1
 148 0 l 1,3,-1
 90 0 l 1,0,-1
EndSplineSet
Substitution2: "'c2sc' Capitals to Small Capitals in Latin lookup 1 subtable" i.smcp
EndChar

StartChar: J
Encoding: 74 74 45
Width: 346
GlyphClass: 2
Flags: W
LayerCount: 2
Fore
SplineSet
49 62 m 1,0,1
 104 46 104 46 131.5 46 c 128,-1,2
 159 46 159 46 175 51.5 c 128,-1,3
 191 57 191 57 209 69 c 0,4,5
 246 93 246 93 258 165 c 2,6,-1
 348 732 l 1,7,-1
 405 732 l 1,8,-1
 315 165 l 2,9,10
 298 53 298 53 240 18 c 0,11,12
 201 -6 201 -6 141 -6 c 0,13,14
 75 -6 75 -6 38 21 c 1,15,-1
 49 62 l 1,0,1
EndSplineSet
Substitution2: "'c2sc' Capitals to Small Capitals in Latin lookup 1 subtable" j.smcp
EndChar

StartChar: K
Encoding: 75 75 46
Width: 557
GlyphClass: 2
Flags: W
LayerCount: 2
Fore
SplineSet
80 0 m 1,0,-1
 196 732 l 1,1,-1
 254 732 l 1,2,-1
 200 396 l 1,3,-1
 309 396 l 1,4,-1
 590 732 l 1,5,-1
 662 732 l 1,6,-1
 358 364 l 1,7,-1
 546 0 l 1,8,-1
 477 0 l 1,9,-1
 304 338 l 1,10,-1
 192 338 l 1,11,-1
 138 0 l 1,12,-1
 80 0 l 1,0,-1
EndSplineSet
Substitution2: "'c2sc' Capitals to Small Capitals in Latin lookup 1 subtable" k.smcp
EndChar

StartChar: L
Encoding: 76 76 47
Width: 538
GlyphClass: 2
Flags: W
LayerCount: 2
Fore
SplineSet
156 126 m 2,0,1
 155 115 155 115 155 105.5 c 128,-1,2
 155 96 155 96 158 84.5 c 128,-1,3
 161 73 161 73 174 67 c 0,4,5
 193 58 193 58 225 58 c 2,6,-1
 521 58 l 1,7,-1
 512 0 l 1,8,-1
 217 0 l 2,9,10
 162 0 162 0 127 25 c 0,11,12
 97 47 97 47 97 97 c 0,13,14
 97 111 97 111 99 126 c 2,15,-1
 196 732 l 1,16,-1
 253 732 l 1,17,-1
 156 126 l 2,0,1
EndSplineSet
Substitution2: "'c2sc' Capitals to Small Capitals in Latin lookup 1 subtable" l.smcp
EndChar

StartChar: M
Encoding: 77 77 48
Width: 791
GlyphClass: 2
Flags: W
LayerCount: 2
Fore
SplineSet
71 0 m 1,0,-1
 246 732 l 1,1,-1
 321 732 l 1,2,-1
 424 96 l 1,3,-1
 722 732 l 1,4,-1
 803 732 l 1,5,-1
 752 0 l 1,6,-1
 694 0 l 1,7,-1
 740 633 l 1,8,-1
 442 0 l 1,9,-1
 382 0 l 1,10,-1
 281 630 l 1,11,-1
 129 0 l 1,12,-1
 71 0 l 1,0,-1
EndSplineSet
AlternateSubs2: "'salt' Stylistic Alternatives in Latin lookup 15 subtable" M.salt
Substitution2: "'c2sc' Capitals to Small Capitals in Latin lookup 1 subtable" m.smcp
EndChar

StartChar: N
Encoding: 78 78 49
Width: 654
GlyphClass: 2
Flags: W
LayerCount: 2
Fore
SplineSet
80 0 m 1,0,-1
 196 732 l 1,1,-1
 252 732 l 1,2,-1
 548 107 l 1,3,-1
 648 732 l 1,4,-1
 705 732 l 1,5,-1
 589 0 l 1,6,-1
 534 0 l 1,7,-1
 237 626 l 1,8,-1
 138 0 l 1,9,-1
 80 0 l 1,0,-1
EndSplineSet
AlternateSubs2: "'salt' Stylistic Alternatives in Latin lookup 15 subtable" N.salt
Substitution2: "'c2sc' Capitals to Small Capitals in Latin lookup 1 subtable" n.smcp
EndChar

StartChar: O
Encoding: 79 79 50
Width: 672
GlyphClass: 2
Flags: W
LayerCount: 2
Fore
SplineSet
385 735 m 128,-1,1
 411 737 411 737 449.5 737 c 128,-1,2
 488 737 488 737 517.5 733.5 c 128,-1,3
 547 730 547 730 576.5 720.5 c 128,-1,4
 606 711 606 711 625 694 c 0,5,6
 670 653 670 653 681 580 c 0,7,8
 685 550 685 550 685 524 c 0,9,10
 685 377 685 377 647 237 c 0,11,12
 618 129 618 129 576 80 c 0,13,14
 532 28 532 28 475 11 c 0,15,16
 422 -4 422 -4 362 -4 c 128,-1,17
 302 -4 302 -4 273.5 -1 c 128,-1,18
 245 2 245 2 215 11 c 128,-1,19
 185 20 185 20 166 36 c 0,20,21
 119 75 119 75 108 145 c 0,22,23
 103 176 103 176 103 201.5 c 128,-1,24
 103 227 103 227 104 260 c 128,-1,25
 105 293 105 293 115.5 360 c 128,-1,26
 126 427 126 427 138.5 478 c 128,-1,27
 151 529 151 529 166.5 566.5 c 128,-1,28
 182 604 182 604 198.5 632 c 128,-1,29
 215 660 215 660 237 679 c 128,-1,30
 259 698 259 698 280 709.5 c 128,-1,31
 301 721 301 721 330 727 c 128,-1,0
 359 733 359 733 385 735 c 128,-1,1
200.5 493 m 128,-1,33
 186 438 186 438 173 356 c 128,-1,34
 160 274 160 274 160 235 c 128,-1,35
 160 196 160 196 161.5 172.5 c 128,-1,36
 163 149 163 149 173 126.5 c 128,-1,37
 183 104 183 104 197 89.5 c 128,-1,38
 211 75 211 75 234 67 c 0,39,40
 275 54 275 54 334.5 54 c 128,-1,41
 394 54 394 54 428 60.5 c 128,-1,42
 462 67 462 67 493.5 85.5 c 128,-1,43
 525 104 525 104 546 139 c 0,44,45
 591 211 591 211 615 361 c 0,46,47
 629 450 629 450 629 520 c 0,48,49
 629 574 629 574 609 620 c 0,50,51
 597 647 597 647 560 665 c 0,52,53
 538 676 538 676 504.5 678 c 128,-1,54
 471 680 471 680 436.5 680 c 128,-1,55
 402 680 402 680 379 677.5 c 128,-1,56
 356 675 356 675 324.5 666 c 128,-1,57
 293 657 293 657 275 637 c 128,-1,58
 257 617 257 617 236 582.5 c 128,-1,32
 215 548 215 548 200.5 493 c 128,-1,33
EndSplineSet
Substitution2: "'c2sc' Capitals to Small Capitals in Latin lookup 1 subtable" o.smcp
EndChar

StartChar: P
Encoding: 80 80 51
Width: 591
GlyphClass: 2
Flags: W
LayerCount: 2
Fore
SplineSet
487 732 m 2,0,1
 553 732 553 732 597 692 c 1,2,3
 634 657 634 657 634 578 c 0,4,5
 634 511 634 511 617 459.5 c 128,-1,6
 600 408 600 408 588 385.5 c 128,-1,7
 576 363 576 363 557 347 c 128,-1,8
 538 331 538 331 524 323 c 128,-1,9
 510 315 510 315 488 311 c 0,10,11
 460 306 460 306 425 306 c 128,-1,12
 390 306 390 306 289 312.5 c 128,-1,13
 188 319 188 319 184 321 c 1,14,-1
 132 0 l 1,15,-1
 75 0 l 1,16,-1
 191 732 l 1,17,-1
 487 732 l 2,0,1
428 364 m 2,18,19
 516 364 516 364 549 440 c 0,20,21
 563 473 563 473 569.5 509.5 c 128,-1,22
 576 546 576 546 576 558.5 c 128,-1,23
 576 571 576 571 574.5 585 c 128,-1,24
 573 599 573 599 570.5 614.5 c 128,-1,25
 568 630 568 630 559 641 c 128,-1,26
 550 652 550 652 542.5 658.5 c 128,-1,27
 535 665 535 665 522 668 c 0,28,29
 502 674 502 674 478 674 c 2,30,-1
 239 674 l 1,31,-1
 190 364 l 1,32,-1
 428 364 l 2,18,19
EndSplineSet
Substitution2: "'c2sc' Capitals to Small Capitals in Latin lookup 1 subtable" p.smcp
EndChar

StartChar: Q
Encoding: 81 81 52
Width: 677
GlyphClass: 2
Flags: W
LayerCount: 2
Fore
SplineSet
389 735 m 128,-1,1
 415 737 415 737 453.5 737 c 128,-1,2
 492 737 492 737 521.5 733.5 c 128,-1,3
 551 730 551 730 580.5 720.5 c 128,-1,4
 610 711 610 711 629 694 c 0,5,6
 674 653 674 653 685 580 c 0,7,8
 689 550 689 550 689 524 c 0,9,10
 689 368 689 368 647 220 c 0,11,12
 617 115 617 115 559 56 c 1,13,14
 514 12 514 12 428 1 c 0,15,16
 394 -4 394 -4 350 -4 c 128,-1,17
 306 -4 306 -4 277.5 -1 c 128,-1,18
 249 2 249 2 219 11 c 128,-1,19
 189 20 189 20 170 36 c 0,20,21
 123 75 123 75 112 145 c 0,22,23
 107 176 107 176 107 201.5 c 128,-1,24
 107 227 107 227 108 260 c 128,-1,25
 109 293 109 293 119.5 360 c 128,-1,26
 130 427 130 427 142.5 478 c 128,-1,27
 155 529 155 529 170.5 566.5 c 128,-1,28
 186 604 186 604 202.5 632 c 128,-1,29
 219 660 219 660 241 679 c 128,-1,30
 263 698 263 698 284 709.5 c 128,-1,31
 305 721 305 721 334 727 c 128,-1,0
 363 733 363 733 389 735 c 128,-1,1
204.5 493 m 128,-1,33
 190 438 190 438 177 356 c 128,-1,34
 164 274 164 274 164 235 c 128,-1,35
 164 196 164 196 165.5 172.5 c 128,-1,36
 167 149 167 149 177 126.5 c 128,-1,37
 187 104 187 104 201 89.5 c 128,-1,38
 215 75 215 75 238 67 c 0,39,40
 279 53 279 53 338.5 53.5 c 128,-1,41
 398 54 398 54 432 60.5 c 128,-1,42
 466 67 466 67 497.5 85.5 c 128,-1,43
 529 104 529 104 550 139 c 0,44,45
 595 211 595 211 619 361 c 0,46,47
 633 450 633 450 633 520 c 0,48,49
 633 574 633 574 613 620 c 0,50,51
 601 647 601 647 564 665 c 0,52,53
 542 676 542 676 508.5 678 c 128,-1,54
 475 680 475 680 440.5 680 c 128,-1,55
 406 680 406 680 383 677.5 c 128,-1,56
 360 675 360 675 328.5 666 c 128,-1,57
 297 657 297 657 279 637 c 128,-1,58
 261 617 261 617 240 582.5 c 128,-1,32
 219 548 219 548 204.5 493 c 128,-1,33
447 -80 m 0,59,60
 479 -80 479 -80 517 -67 c 1,61,-1
 507 -129 l 1,62,63
 482 -139 482 -139 465.5 -139 c 128,-1,64
 449 -139 449 -139 430 -138 c 128,-1,65
 411 -137 411 -137 382 -127.5 c 128,-1,66
 353 -118 353 -118 333 -93 c 128,-1,67
 313 -68 313 -68 312 -33 c 1,68,-1
 352 -33 l 1,69,70
 387 -80 387 -80 447 -80 c 0,59,60
EndSplineSet
Substitution2: "'c2sc' Capitals to Small Capitals in Latin lookup 1 subtable" q.smcp
EndChar

StartChar: R
Encoding: 82 82 53
Width: 610
GlyphClass: 2
Flags: W
LayerCount: 2
Fore
SplineSet
491 732 m 2,0,1
 559 732 559 732 598 689 c 0,2,3
 632 653 632 653 632 572 c 0,4,5
 632 488 632 488 611 435.5 c 128,-1,6
 590 383 590 383 572.5 362.5 c 128,-1,7
 555 342 555 342 530.5 329 c 128,-1,8
 506 316 506 316 491.5 313 c 128,-1,9
 477 310 477 310 459 309 c 1,10,-1
 566 0 l 1,11,-1
 503 0 l 1,12,-1
 401 304 l 1,13,14
 387 304 387 304 285.5 310 c 128,-1,15
 184 316 184 316 183 316 c 2,16,-1
 132 0 l 1,17,-1
 75 0 l 1,18,-1
 191 732 l 1,19,-1
 491 732 l 2,0,1
429 364 m 2,20,21
 552 364 552 364 570 519 c 1,22,23
 573 569 573 569 573 587 c 128,-1,24
 573 605 573 605 567 621.5 c 128,-1,25
 561 638 561 638 554 648.5 c 128,-1,26
 547 659 547 659 535 664 c 0,27,28
 514 673 514 673 482 673 c 2,29,-1
 240 673 l 1,30,-1
 191 364 l 1,31,-1
 429 364 l 2,20,21
EndSplineSet
Substitution2: "'c2sc' Capitals to Small Capitals in Latin lookup 1 subtable" r.smcp
EndChar

StartChar: S
Encoding: 83 83 54
Width: 569
GlyphClass: 2
Flags: W
LayerCount: 2
Fore
SplineSet
329 50 m 0,0,1
 472 50 472 50 488 156 c 1,2,-1
 499 224 l 1,3,4
 501 243 501 243 501 257 c 128,-1,5
 501 271 501 271 500 281 c 0,6,7
 493 330 493 330 414 330 c 2,8,-1
 284 330 l 2,9,10
 194 330 194 330 160 366 c 0,11,12
 130 399 130 399 130 441 c 0,13,14
 130 452 130 452 134 495 c 1,15,-1
 144 561 l 1,16,17
 162 672 162 672 225 708 c 0,18,19
 277 738 277 738 356 738 c 0,20,21
 416 738 416 738 501 728.5 c 128,-1,22
 586 719 586 719 605 716 c 1,23,-1
 598 672 l 1,24,-1
 359 681 l 2,25,26
 351 681 351 681 344 681 c 0,27,28
 285 681 285 681 249 657.5 c 128,-1,29
 213 634 213 634 202 560 c 1,30,-1
 191 494 l 2,31,32
 185 452 185 452 190 437 c 128,-1,33
 195 422 195 422 198.5 414 c 128,-1,34
 202 406 202 406 211 401 c 128,-1,35
 220 396 220 396 227 393.5 c 128,-1,36
 234 391 234 391 247 389 c 1,37,38
 266 388 266 388 293 388 c 2,39,-1
 423 388 l 2,40,41
 469 388 469 388 499.5 373.5 c 128,-1,42
 530 359 530 359 542 336 c 0,43,44
 560 301 560 301 560 271 c 128,-1,45
 560 241 560 241 556 222 c 2,46,-1
 545 154 l 2,47,48
 534 81 534 81 496 46 c 0,49,50
 456 10 456 10 421 3 c 0,51,52
 368 -8 368 -8 320 -8 c 128,-1,53
 272 -8 272 -8 191.5 -0.5 c 128,-1,54
 111 7 111 7 79 13 c 1,55,-1
 86 58 l 1,56,57
 156 50 156 50 329 50 c 0,0,1
EndSplineSet
Substitution2: "'c2sc' Capitals to Small Capitals in Latin lookup 1 subtable" s.smcp
EndChar

StartChar: T
Encoding: 84 84 55
Width: 596
GlyphClass: 2
Flags: W
LayerCount: 2
Fore
SplineSet
139 674 m 1,0,-1
 148 732 l 1,1,-1
 666 732 l 1,2,-1
 657 674 l 1,3,-1
 424 674 l 1,4,-1
 317 0 l 1,5,-1
 260 0 l 1,6,-1
 366 674 l 1,7,-1
 139 674 l 1,0,-1
EndSplineSet
Substitution2: "'c2sc' Capitals to Small Capitals in Latin lookup 1 subtable" t.smcp
EndChar

StartChar: U
Encoding: 85 85 56
Width: 664
GlyphClass: 2
Flags: W
LayerCount: 2
Fore
SplineSet
186 308 m 2,0,1
 177 245 177 245 177 205.5 c 128,-1,2
 177 166 177 166 184 139.5 c 128,-1,3
 191 113 191 113 203.5 95.5 c 128,-1,4
 216 78 216 78 239 68 c 0,5,6
 277 53 277 53 335.5 53 c 128,-1,7
 394 53 394 53 430 63 c 128,-1,8
 466 73 466 73 498 100 c 0,9,10
 559 152 559 152 584 308 c 2,11,-1
 651 732 l 1,12,-1
 709 732 l 1,13,-1
 642 308 l 2,14,15
 629 228 629 228 609 173 c 128,-1,16
 589 118 589 118 555 76 c 0,17,18
 488 -5 488 -5 339 -5 c 0,19,20
 229 -5 229 -5 178 37 c 0,21,22
 119 87 119 87 119 203 c 0,23,24
 119 250 119 250 128 308 c 2,25,-1
 195 732 l 1,26,-1
 253 732 l 1,27,-1
 186 308 l 2,0,1
EndSplineSet
Substitution2: "'c2sc' Capitals to Small Capitals in Latin lookup 1 subtable" u.smcp
EndChar

StartChar: V
Encoding: 86 86 57
Width: 669
GlyphClass: 2
Flags: W
LayerCount: 2
Fore
SplineSet
150 732 m 1,0,-1
 211 732 l 1,1,-1
 335 88 l 1,2,-1
 674 732 l 1,3,-1
 740 732 l 1,4,-1
 353 0 l 1,5,-1
 293 0 l 1,6,-1
 150 732 l 1,0,-1
EndSplineSet
Substitution2: "'c2sc' Capitals to Small Capitals in Latin lookup 1 subtable" v.smcp
EndChar

StartChar: W
Encoding: 87 87 58
Width: 994
GlyphClass: 2
Flags: W
LayerCount: 2
Fore
SplineSet
150 732 m 1,0,-1
 208 732 l 1,1,-1
 333 89 l 1,2,-1
 668 732 l 1,3,-1
 733 732 l 1,4,-1
 596 464 l 1,5,-1
 668 85 l 1,6,-1
 1003 732 l 1,7,-1
 1066 732 l 1,8,-1
 685 0 l 1,9,-1
 625 0 l 1,10,-1
 552 381 l 1,11,-1
 353 0 l 1,12,-1
 293 0 l 1,13,-1
 150 732 l 1,0,-1
EndSplineSet
Substitution2: "'c2sc' Capitals to Small Capitals in Latin lookup 1 subtable" w.smcp
EndChar

StartChar: X
Encoding: 88 88 59
Width: 581
GlyphClass: 2
Flags: W
LayerCount: 2
Fore
SplineSet
38 0 m 1,0,-1
 314 364 l 1,1,-1
 151 732 l 1,2,-1
 212 732 l 1,3,-1
 352 415 l 1,4,-1
 593 732 l 1,5,-1
 663 732 l 1,6,-1
 379 358 l 1,7,-1
 537 0 l 1,8,-1
 476 0 l 1,9,-1
 340 306 l 1,10,-1
 108 0 l 1,11,-1
 38 0 l 1,0,-1
EndSplineSet
AlternateSubs2: "'salt' Stylistic Alternatives in Latin lookup 15 subtable" X.salt
Substitution2: "'c2sc' Capitals to Small Capitals in Latin lookup 1 subtable" x.smcp
EndChar

StartChar: Y
Encoding: 89 89 60
Width: 629
GlyphClass: 2
Flags: W
LayerCount: 2
Fore
SplineSet
150 732 m 1,0,-1
 211 732 l 1,1,-1
 348 332 l 1,2,-1
 632 732 l 1,3,-1
 700 732 l 1,4,-1
 369 260 l 1,5,-1
 328 0 l 1,6,-1
 270 0 l 1,7,-1
 311 260 l 1,8,-1
 150 732 l 1,0,-1
EndSplineSet
Substitution2: "'c2sc' Capitals to Small Capitals in Latin lookup 1 subtable" y.smcp
EndChar

StartChar: Z
Encoding: 90 90 61
Width: 545
GlyphClass: 2
Flags: W
LayerCount: 2
Fore
SplineSet
35 0 m 1,0,-1
 44 58 l 1,1,-1
 549 674 l 1,2,-1
 142 674 l 1,3,-1
 151 732 l 1,4,-1
 634 732 l 1,5,-1
 625 674 l 1,6,-1
 120 58 l 1,7,-1
 527 58 l 1,8,-1
 518 0 l 1,9,-1
 35 0 l 1,0,-1
EndSplineSet
Substitution2: "'c2sc' Capitals to Small Capitals in Latin lookup 1 subtable" z.smcp
EndChar

StartChar: bracketleft
Encoding: 91 91 62
Width: 302
GlyphClass: 2
Flags: W
LayerCount: 2
Fore
SplineSet
353 862 m 2,0,-1
 423 862 l 1,1,-1
 414 804 l 1,2,-1
 344 804 l 2,3,4
 306 804 306 804 282 781 c 128,-1,5
 258 758 258 758 249 702 c 2,6,-1
 135 -18 l 2,7,8
 131 -46 131 -46 131 -69.5 c 128,-1,9
 131 -93 131 -93 138 -107 c 0,10,11
 151 -133 151 -133 196 -133 c 2,12,-1
 266 -133 l 1,13,-1
 256 -190 l 1,14,-1
 186 -190 l 2,15,16
 152 -190 152 -190 128 -178 c 0,17,18
 73 -149 73 -149 73 -64 c 0,19,20
 73 -44 73 -44 77 -18 c 2,21,-1
 191 702 l 2,22,23
 210 820 210 820 279 849 c 0,24,25
 310 862 310 862 353 862 c 2,0,-1
EndSplineSet
EndChar

StartChar: backslash
Encoding: 92 92 63
Width: 404
GlyphClass: 2
Flags: W
LayerCount: 2
Fore
SplineSet
141 770 m 1,0,-1
 195 770 l 1,1,-1
 343 -72 l 1,2,-1
 289 -72 l 1,3,-1
 141 770 l 1,0,-1
EndSplineSet
EndChar

StartChar: bracketright
Encoding: 93 93 64
Width: 304
GlyphClass: 2
Flags: W
LayerCount: 2
Fore
SplineSet
66 -133 m 2,0,1
 106 -133 106 -133 129.5 -108 c 128,-1,2
 153 -83 153 -83 161 -30 c 2,3,-1
 275 690 l 2,4,5
 280 718 280 718 280 742 c 128,-1,6
 280 766 280 766 272 780 c 0,7,8
 258 804 258 804 215 804 c 2,9,-1
 145 804 l 1,10,-1
 154 862 l 1,11,-1
 224 862 l 2,12,13
 259 862 259 862 283 849 c 128,-1,14
 307 836 307 836 318 818 c 0,15,16
 337 787 337 787 337 737 c 0,17,18
 337 717 337 717 333 690 c 2,19,-1
 219 -30 l 2,20,21
 208 -98 208 -98 179 -140 c 0,22,23
 144 -190 144 -190 57 -190 c 2,24,-1
 -13 -190 l 1,25,-1
 -4 -133 l 1,26,-1
 66 -133 l 2,0,1
EndSplineSet
EndChar

StartChar: asciicircum
Encoding: 94 94 65
Width: 403
GlyphClass: 2
Flags: W
LayerCount: 2
Fore
SplineSet
134 531 m 1,0,-1
 277 662 l 1,1,-1
 331 662 l 1,2,-1
 419 531 l 1,3,-1
 368 531 l 1,4,-1
 302 623 l 1,5,-1
 196 531 l 1,6,-1
 134 531 l 1,0,-1
EndSplineSet
EndChar

StartChar: underscore
Encoding: 95 95 66
Width: 664
GlyphClass: 2
Flags: W
LayerCount: 2
Fore
SplineSet
19 -1 m 1,0,-1
 28 56 l 1,1,-1
 652 56 l 1,2,-1
 643 -1 l 1,3,-1
 19 -1 l 1,0,-1
EndSplineSet
EndChar

StartChar: grave
Encoding: 96 96 67
Width: 242
GlyphClass: 2
Flags: W
LayerCount: 2
Fore
SplineSet
125 664 m 1,0,-1
 192 664 l 1,1,-1
 296 531 l 1,2,-1
 245 531 l 1,3,-1
 125 664 l 1,0,-1
EndSplineSet
Substitution2: "'smcp' Lowercase to Small Capitals lookup 0 subtable" grave.smcp
EndChar

StartChar: a
Encoding: 97 97 68
Width: 542
GlyphClass: 2
Flags: W
LayerCount: 2
Fore
SplineSet
256 531 m 128,-1,1
 278 537 278 537 301 540 c 128,-1,2
 324 543 324 543 355.5 543 c 128,-1,3
 387 543 387 543 452.5 528.5 c 128,-1,4
 518 514 518 514 554 479 c 1,5,-1
 484 0 l 1,6,-1
 444 0 l 1,7,-1
 437 60 l 1,8,9
 403 38 403 38 348.5 15.5 c 128,-1,10
 294 -7 294 -7 254 -7 c 128,-1,11
 214 -7 214 -7 190 -2.5 c 128,-1,12
 166 2 166 2 145 14 c 1,13,14
 104 35 104 35 87 98 c 0,15,16
 79 126 79 126 79 148 c 128,-1,17
 79 170 79 170 79.5 195 c 128,-1,18
 80 220 80 220 90.5 281 c 128,-1,19
 101 342 101 342 119.5 389.5 c 128,-1,20
 138 437 138 437 158.5 463.5 c 128,-1,21
 179 490 179 490 206.5 507.5 c 128,-1,0
 234 525 234 525 256 531 c 128,-1,1
171 364.5 m 128,-1,23
 155 319 155 319 146 262.5 c 128,-1,24
 137 206 137 206 137 165 c 0,25,26
 137 50 137 50 241 50 c 0,27,28
 311 50 311 50 374 74 c 0,29,30
 395 82 395 82 440 102 c 1,31,-1
 494 460 l 1,32,33
 413 487 413 487 351 487 c 0,34,35
 297 487 297 487 264.5 472.5 c 128,-1,36
 232 458 232 458 209.5 434 c 128,-1,22
 187 410 187 410 171 364.5 c 128,-1,23
EndSplineSet
AlternateSubs2: "'salt' Stylistic Alternatives in Latin lookup 15 subtable" a.salt
Substitution2: "'smcp' Lowercase to Small Capitals lookup 0 subtable" a.smcp
EndChar

StartChar: b
Encoding: 98 98 69
Width: 551
GlyphClass: 2
Flags: W
LayerCount: 2
Fore
SplineSet
394 539 m 0,0,1
 542 539 542 539 542 361 c 0,2,3
 542 282 542 282 517 185 c 0,4,5
 495 97 495 97 452 49 c 0,6,7
 430 24 430 24 396 9 c 128,-1,8
 362 -6 362 -6 322 -6 c 0,9,10
 271 -6 271 -6 208 17.5 c 128,-1,11
 145 41 145 41 126 59 c 1,12,-1
 100 0 l 1,13,-1
 60 0 l 1,14,-1
 184 785 l 1,15,-1
 240 785 l 1,16,-1
 194 499 l 1,17,18
 260 524 260 524 315.5 531.5 c 128,-1,19
 371 539 371 539 394 539 c 0,0,1
321 52 m 0,20,21
 380 52 380 52 419.5 105 c 128,-1,22
 459 158 459 158 475 263 c 0,23,24
 483 316 483 316 483 359 c 128,-1,25
 483 402 483 402 473 429 c 0,26,27
 453 482 453 482 388 482 c 0,28,29
 298 482 298 482 189 454 c 1,30,-1
 133 100 l 1,31,32
 237 52 237 52 321 52 c 0,20,21
EndSplineSet
AlternateSubs2: "'salt' Stylistic Alternatives in Latin lookup 15 subtable" b.salt
Substitution2: "'smcp' Lowercase to Small Capitals lookup 0 subtable" b.smcp
EndChar

StartChar: c
Encoding: 99 99 70
Width: 494
GlyphClass: 2
Flags: W
LayerCount: 2
Fore
SplineSet
137 159 m 0,0,1
 137 51 137 51 230 51 c 0,2,3
 312 51 312 51 421 62 c 1,4,-1
 457 65 l 1,5,-1
 451 23 l 1,6,7
 346 -6 346 -6 233 -6 c 0,8,9
 230 -6 230 -6 227 -6 c 0,10,11
 80 -5 80 -5 80 170 c 0,12,13
 80 214 80 214 90.5 277 c 128,-1,14
 101 340 101 340 119 390.5 c 128,-1,15
 137 441 137 441 156 469.5 c 128,-1,16
 175 498 175 498 201.5 513.5 c 128,-1,17
 228 529 228 529 251 533 c 128,-1,18
 274 537 274 537 307 537 c 0,19,20
 387 537 387 537 521 510 c 1,21,-1
 514 469 l 1,22,23
 387 480 387 480 330.5 480 c 128,-1,24
 274 480 274 480 258.5 476.5 c 128,-1,25
 243 473 243 473 225 461 c 128,-1,26
 207 449 207 449 194 426 c 0,27,28
 165 373 165 373 146 262 c 1,29,30
 137 200 137 200 137 159 c 0,0,1
EndSplineSet
Substitution2: "'smcp' Lowercase to Small Capitals lookup 0 subtable" c.smcp
EndChar

StartChar: d
Encoding: 100 100 71
Width: 541
GlyphClass: 2
Flags: W
LayerCount: 2
Fore
SplineSet
232 523.5 m 128,-1,1
 267 539 267 539 300.5 539 c 128,-1,2
 334 539 334 539 367 535 c 0,3,4
 444 524 444 524 501 499 c 1,5,-1
 547 785 l 1,6,-1
 602 785 l 1,7,-1
 478 0 l 1,8,-1
 438 0 l 1,9,-1
 431 59 l 1,10,11
 404 40 404 40 341 17 c 128,-1,12
 278 -6 278 -6 234.5 -6 c 128,-1,13
 191 -6 191 -6 161 11 c 0,14,15
 107 41 107 41 90 117 c 1,16,17
 83 153 83 153 83 189.5 c 128,-1,18
 83 226 83 226 89.5 269 c 128,-1,19
 96 312 96 312 106 348.5 c 128,-1,20
 116 385 116 385 133.5 422 c 128,-1,21
 151 459 151 459 174 483.5 c 128,-1,0
 197 508 197 508 232 523.5 c 128,-1,1
148 274 m 0,22,23
 140 221 140 221 140 193 c 0,24,25
 140 109 140 109 175 75 c 0,26,27
 199 52 199 52 236 52 c 128,-1,28
 273 52 273 52 312 60 c 0,29,30
 366 71 366 71 438 100 c 1,31,-1
 494 454 l 1,32,33
 393 482 393 482 303 482 c 0,34,35
 182 482 182 482 148 274 c 0,22,23
EndSplineSet
AlternateSubs2: "'salt' Stylistic Alternatives in Latin lookup 15 subtable" d.salt
Substitution2: "'smcp' Lowercase to Small Capitals lookup 0 subtable" d.smcp
EndChar

StartChar: e
Encoding: 101 101 72
Width: 528
GlyphClass: 2
Flags: W
LayerCount: 2
Fore
SplineSet
289 537 m 128,-1,1
 316 541 316 541 357 541 c 128,-1,2
 398 541 398 541 434 533 c 0,3,4
 540 510 540 510 540 415 c 0,5,6
 540 346 540 346 506 304.5 c 128,-1,7
 472 263 472 263 430 247 c 0,8,9
 354 217 354 217 274 217 c 0,10,11
 231 217 231 217 190.5 223 c 128,-1,12
 150 229 150 229 139 234 c 1,13,14
 131 186 131 186 131 149.5 c 128,-1,15
 131 113 131 113 141 91 c 1,16,17
 158 49 158 49 220 48 c 0,18,19
 238 47 238 47 290 47 c 128,-1,20
 342 47 342 47 465 65 c 1,21,-1
 459 22 l 1,22,23
 353 -7 353 -7 215 -7 c 0,24,25
 120 -7 120 -7 91 62 c 0,26,27
 76 98 76 98 76 152.5 c 128,-1,28
 76 207 76 207 85 257 c 128,-1,29
 94 307 94 307 98.5 329 c 128,-1,30
 103 351 103 351 110.5 375.5 c 128,-1,31
 118 400 118 400 125.5 417.5 c 128,-1,32
 133 435 133 435 144.5 453 c 128,-1,33
 156 471 156 471 169.5 483.5 c 128,-1,34
 183 496 183 496 201 508 c 128,-1,35
 219 520 219 520 240.5 526.5 c 128,-1,0
 262 533 262 533 289 537 c 128,-1,1
145 274 m 1,36,37
 185 269 185 269 220.5 269 c 128,-1,38
 256 269 256 269 278 270 c 128,-1,39
 300 271 300 271 338 277.5 c 128,-1,40
 376 284 376 284 404 296.5 c 128,-1,41
 432 309 432 309 454 332 c 0,42,43
 482 363 482 363 482 406 c 128,-1,44
 482 449 482 449 453.5 466.5 c 128,-1,45
 425 484 425 484 348 484 c 0,46,47
 267 484 267 484 229 456 c 0,48,49
 215 446 215 446 205 438 c 128,-1,50
 195 430 195 430 186.5 414 c 128,-1,51
 178 398 178 398 173.5 388 c 128,-1,52
 169 378 169 378 163 358 c 0,53,54
 156 332 156 332 151 306.5 c 128,-1,55
 146 281 146 281 145 274 c 1,36,37
EndSplineSet
Substitution2: "'smcp' Lowercase to Small Capitals lookup 0 subtable" e.smcp
EndChar

StartChar: f
Encoding: 102 102 73
Width: 388
GlyphClass: 2
Flags: W
LayerCount: 2
Fore
SplineSet
305.5 775.5 m 128,-1,1
 330 785 330 785 347.5 785 c 128,-1,2
 365 785 365 785 377.5 785 c 128,-1,3
 390 785 390 785 430 778.5 c 128,-1,4
 470 772 470 772 490 766 c 1,5,-1
 485 728 l 1,6,-1
 363 728 l 2,7,8
 314 728 314 728 295 698.5 c 128,-1,9
 276 669 276 669 264 588 c 2,10,-1
 255 531 l 1,11,-1
 425 531 l 1,12,-1
 415 474 l 1,13,-1
 245 474 l 1,14,-1
 168 0 l 1,15,-1
 110 0 l 1,16,-1
 187 474 l 1,17,-1
 92 474 l 1,18,-1
 99 515 l 1,19,-1
 198 531 l 1,20,-1
 207 588 l 2,21,22
 227 716 227 716 265 751 c 0,23,0
 281 766 281 766 305.5 775.5 c 128,-1,1
EndSplineSet
AlternateSubs2: "'salt' Stylistic Alternatives in Latin lookup 15 subtable" f.salt
Substitution2: "'smcp' Lowercase to Small Capitals lookup 0 subtable" f.smcp
EndChar

StartChar: g
Encoding: 103 103 74
Width: 546
GlyphClass: 2
Flags: W
LayerCount: 2
Fore
SplineSet
293 -216 m 0,0,1
 333 -216 333 -216 367 -187.5 c 128,-1,2
 401 -159 401 -159 410 -104 c 2,3,-1
 431 29 l 1,4,5
 383 11 383 11 329.5 1 c 128,-1,6
 276 -9 276 -9 229 -9 c 128,-1,7
 182 -9 182 -9 146 13 c 128,-1,8
 110 35 110 35 97 74 c 1,9,10
 81 118 81 118 81 171 c 128,-1,11
 81 224 81 224 91 275 c 1,12,13
 111 401 111 401 168.5 469 c 128,-1,14
 226 537 226 537 313 537 c 0,15,16
 391 537 391 537 472.5 527.5 c 128,-1,17
 554 518 554 518 565 517 c 1,18,-1
 467 -104 l 2,19,20
 453 -192 453 -192 403 -232.5 c 128,-1,21
 353 -273 353 -273 298 -273 c 0,22,23
 290 -273 290 -273 281 -272 c 2,24,-1
 37 -248 l 1,25,-1
 43 -211 l 1,26,-1
 290 -215 l 2,27,28
 292 -216 292 -216 293 -216 c 0,0,1
195 404 m 0,29,30
 139 303 139 303 139 164 c 0,31,32
 139 117 139 117 161 82 c 0,33,34
 183 48 183 48 239 48 c 0,35,36
 306 48 306 48 348.5 56 c 128,-1,37
 391 64 391 64 438 76 c 1,38,-1
 502 478 l 1,39,-1
 315 480 l 2,40,41
 314 480 314 480 313 480 c 0,42,43
 275 480 275 480 244 459 c 128,-1,44
 213 438 213 438 195 404 c 0,29,30
EndSplineSet
AlternateSubs2: "'salt' Stylistic Alternatives in Latin lookup 15 subtable" g.salt
Substitution2: "'smcp' Lowercase to Small Capitals lookup 0 subtable" g.smcp
EndChar

StartChar: h
Encoding: 104 104 75
Width: 542
GlyphClass: 2
Flags: W
LayerCount: 2
Fore
SplineSet
519 490 m 0,0,1
 546 452 546 452 546 402 c 0,2,3
 546 387 546 387 543 370 c 2,4,-1
 484 0 l 1,5,-1
 427 0 l 1,6,-1
 486 370 l 2,7,8
 488 383 488 383 488 395 c 0,9,10
 488 431 488 431 467 456.5 c 128,-1,11
 446 482 446 482 393 482 c 128,-1,12
 340 482 340 482 298 469.5 c 128,-1,13
 256 457 256 457 185 424 c 1,14,-1
 118 0 l 1,15,-1
 60 0 l 1,16,-1
 184 784 l 1,17,-1
 241 784 l 1,18,-1
 191 469 l 1,19,20
 233 492 233 492 260 504 c 0,21,22
 336 540 336 540 409.5 540 c 128,-1,23
 483 540 483 540 519 490 c 0,0,1
EndSplineSet
Substitution2: "'smcp' Lowercase to Small Capitals lookup 0 subtable" h.smcp
EndChar

StartChar: i
Encoding: 105 105 76
Width: 178
GlyphClass: 2
Flags: W
LayerCount: 2
Fore
SplineSet
60 0 m 1,0,-1
 144 531 l 1,1,-1
 202 531 l 1,2,-1
 118 0 l 1,3,-1
 60 0 l 1,0,-1
180 695 m 2,4,-1
 218 695 l 2,5,6
 234 695 234 695 234 680 c 0,7,8
 234 677 234 677 234 675 c 2,9,-1
 226 625 l 1,10,11
 224 605 224 605 203 605 c 2,12,-1
 166 605 l 2,13,14
 158 605 158 605 153 610.5 c 128,-1,15
 148 616 148 616 150 625 c 2,16,-1
 157 675 l 2,17,18
 160 695 160 695 180 695 c 2,4,-1
EndSplineSet
Substitution2: "'smcp' Lowercase to Small Capitals lookup 0 subtable" i.smcp
EndChar

StartChar: j
Encoding: 106 106 77
Width: 195
GlyphClass: 2
Flags: W
LayerCount: 2
Fore
SplineSet
28 -270 m 1,0,-1
 155 531 l 1,1,-1
 212 531 l 1,2,-1
 128 -4 l 2,3,4
 103 -165 103 -165 64 -270 c 1,5,-1
 28 -270 l 1,0,-1
192 695 m 2,6,-1
 229 695 l 2,7,8
 245 695 245 695 245 680 c 0,9,10
 245 677 245 677 245 675 c 2,11,-1
 237 625 l 2,12,13
 234 605 234 605 214 605 c 2,14,-1
 177 605 l 2,15,16
 157 605 157 605 160 625 c 2,17,-1
 168 675 l 2,18,19
 171 695 171 695 192 695 c 2,6,-1
EndSplineSet
Substitution2: "'smcp' Lowercase to Small Capitals lookup 0 subtable" j.smcp
EndChar

StartChar: k
Encoding: 107 107 78
Width: 484
GlyphClass: 2
Flags: W
LayerCount: 2
Fore
SplineSet
60 0 m 1,0,-1
 184 782 l 1,1,-1
 242 782 l 1,2,-1
 167 310 l 1,3,4
 260 322 260 322 346.5 393 c 128,-1,5
 433 464 433 464 449 531 c 1,6,-1
 513 531 l 1,7,8
 497 475 497 475 454 422 c 0,9,10
 377 327 377 327 282 289 c 1,11,-1
 473 0 l 1,12,-1
 404 0 l 1,13,-1
 224 274 l 1,14,15
 213 271 213 271 190 270 c 128,-1,16
 167 269 167 269 161 270 c 1,17,-1
 118 0 l 1,18,-1
 60 0 l 1,0,-1
EndSplineSet
Substitution2: "'smcp' Lowercase to Small Capitals lookup 0 subtable" k.smcp
EndChar

StartChar: l
Encoding: 108 108 79
Width: 297
GlyphClass: 2
Flags: W
LayerCount: 2
Fore
SplineSet
196 0 m 2,0,1
 84 0 84 0 84 125 c 0,2,3
 84 154 84 154 89 189 c 2,4,-1
 183 783 l 1,5,-1
 240 783 l 1,6,-1
 146 189 l 2,7,8
 141 152 141 152 141 133 c 128,-1,9
 141 114 141 114 144 102 c 128,-1,10
 147 90 147 90 150.5 81.5 c 128,-1,11
 154 73 154 73 163 68 c 0,12,13
 176 62 176 62 221.5 52 c 128,-1,14
 267 42 267 42 270 42 c 1,15,-1
 263 0 l 1,16,-1
 196 0 l 2,0,1
EndSplineSet
Substitution2: "'smcp' Lowercase to Small Capitals lookup 0 subtable" l.smcp
EndChar

StartChar: m
Encoding: 109 109 80
Width: 905
GlyphClass: 2
Flags: W
LayerCount: 2
Fore
SplineSet
322 526 m 128,-1,1
 362 538 362 538 404.5 538 c 128,-1,2
 447 538 447 538 482.5 514 c 128,-1,3
 518 490 518 490 530 453 c 1,4,5
 649 538 649 538 768 538 c 0,6,7
 837 538 837 538 877 489 c 0,8,9
 907 451 907 451 907 399 c 0,10,11
 907 384 907 384 905 367 c 2,12,-1
 846 0 l 1,13,-1
 789 0 l 1,14,-1
 847 367 l 2,15,16
 849 378 849 378 849 393.5 c 128,-1,17
 849 409 849 409 841 430 c 128,-1,18
 833 451 833 451 811 465.5 c 128,-1,19
 789 480 789 480 758 480 c 0,20,21
 698 480 698 480 648.5 466 c 128,-1,22
 599 452 599 452 541 420 c 1,23,24
 542 416 542 416 542 404.5 c 128,-1,25
 542 393 542 393 538 366 c 2,26,-1
 480 0 l 1,27,-1
 423 0 l 1,28,-1
 481 367 l 2,29,30
 483 378 483 378 483 393 c 128,-1,31
 483 408 483 408 474.5 429.5 c 128,-1,32
 466 451 466 451 444 465.5 c 128,-1,33
 422 480 422 480 378.5 480 c 128,-1,34
 335 480 335 480 295.5 468 c 128,-1,35
 256 456 256 456 184 423 c 1,36,-1
 118 0 l 1,37,-1
 60 0 l 1,38,-1
 144 531 l 1,39,-1
 183 531 l 1,40,-1
 192 468 l 1,41,42
 238 493 238 493 260 503.5 c 128,-1,0
 282 514 282 514 322 526 c 128,-1,1
EndSplineSet
AlternateSubs2: "'salt' Stylistic Alternatives in Latin lookup 15 subtable" m.salt
Substitution2: "'smcp' Lowercase to Small Capitals lookup 0 subtable" m.smcp
EndChar

StartChar: n
Encoding: 110 110 81
Width: 542
GlyphClass: 2
Flags: W
LayerCount: 2
Fore
SplineSet
406 540 m 0,0,1
 482 540 482 540 518 490 c 0,2,3
 546 452 546 452 546 402 c 0,4,5
 546 387 546 387 543 370 c 2,6,-1
 484 0 l 1,7,-1
 427 0 l 1,8,-1
 486 370 l 2,9,10
 488 383 488 383 488 395 c 0,11,12
 488 430 488 430 466.5 456 c 128,-1,13
 445 482 445 482 392.5 482 c 128,-1,14
 340 482 340 482 298 469.5 c 128,-1,15
 256 457 256 457 185 424 c 1,16,-1
 118 0 l 1,17,-1
 60 0 l 1,18,-1
 144 531 l 1,19,-1
 183 531 l 1,20,-1
 191 469 l 1,21,22
 292 523 292 523 349 535 c 0,23,24
 377 540 377 540 406 540 c 0,0,1
EndSplineSet
AlternateSubs2: "'salt' Stylistic Alternatives in Latin lookup 15 subtable" n.salt
Substitution2: "'smcp' Lowercase to Small Capitals lookup 0 subtable" n.smcp
EndChar

StartChar: o
Encoding: 111 111 82
Width: 562
GlyphClass: 2
Flags: W
LayerCount: 2
Fore
SplineSet
361 536 m 0,0,1
 485 536 485 536 528 468 c 0,2,3
 556 423 556 423 556 348 c 0,4,5
 556 306 556 306 548 256 c 0,6,7
 523 107 523 107 467.5 51 c 128,-1,8
 412 -5 412 -5 283.5 -5 c 128,-1,9
 155 -5 155 -5 111 56 c 0,10,11
 82 96 82 96 82 172 c 0,12,13
 82 212 82 212 91 269 c 128,-1,14
 100 326 100 326 115 372.5 c 128,-1,15
 130 419 130 419 151 451 c 128,-1,16
 172 483 172 483 202 502 c 0,17,18
 259 536 259 536 361 536 c 0,0,1
171 358 m 0,19,20
 139 265 139 265 139 159 c 0,21,22
 139 143 139 143 146 121.5 c 128,-1,23
 153 100 153 100 163.5 86 c 128,-1,24
 174 72 174 72 195 65 c 1,25,26
 228 52 228 52 280.5 52 c 128,-1,27
 333 52 333 52 362 58.5 c 128,-1,28
 391 65 391 65 418 86 c 0,29,30
 468 124 468 124 490 258 c 0,31,32
 499 314 499 314 499 346 c 128,-1,33
 499 378 499 378 494 400 c 128,-1,34
 489 422 489 422 478 438 c 128,-1,35
 467 454 467 454 448 463 c 0,36,37
 415 478 415 478 365 478 c 128,-1,38
 315 478 315 478 290.5 474.5 c 128,-1,39
 266 471 266 471 241.5 458.5 c 128,-1,40
 217 446 217 446 201 422 c 128,-1,41
 185 398 185 398 171 358 c 0,19,20
EndSplineSet
Substitution2: "'smcp' Lowercase to Small Capitals lookup 0 subtable" o.smcp
EndChar

StartChar: p
Encoding: 112 112 83
Width: 548
GlyphClass: 2
Flags: W
LayerCount: 2
Fore
SplineSet
392 535 m 0,0,1
 436 535 436 535 468 518 c 0,2,3
 546 477 546 477 546 342 c 0,4,5
 546 304 546 304 539 256 c 0,6,7
 502 -9 502 -9 320 -9 c 0,8,9
 280 -9 280 -9 221.5 1 c 128,-1,10
 163 11 163 11 122 29 c 1,11,-1
 74 -270 l 1,12,-1
 17 -270 l 1,13,-1
 148 523 l 1,14,15
 243 535 243 535 392 535 c 0,0,1
288 48 m 0,16,17
 307 48 307 48 330.5 50.5 c 128,-1,18
 354 53 354 53 377 63.5 c 128,-1,19
 400 74 400 74 421 97 c 0,20,21
 463 144 463 144 482 265 c 0,22,23
 489 309 489 309 489 345 c 0,24,25
 489 477 489 477 388 477 c 2,26,-1
 196 477 l 1,27,-1
 131 75 l 1,28,29
 220 48 220 48 288 48 c 0,16,17
EndSplineSet
AlternateSubs2: "'salt' Stylistic Alternatives in Latin lookup 15 subtable" p.salt
Substitution2: "'smcp' Lowercase to Small Capitals lookup 0 subtable" p.smcp
EndChar

StartChar: q
Encoding: 113 113 84
Width: 552
GlyphClass: 2
Flags: W
LayerCount: 2
Fore
SplineSet
318 537 m 0,0,1
 400 537 400 537 564 518 c 1,2,-1
 440 -270 l 1,3,-1
 382 -270 l 1,4,-1
 429 29 l 1,5,6
 381 11 381 11 327.5 0.5 c 128,-1,7
 274 -10 274 -10 228 -10 c 128,-1,8
 182 -10 182 -10 146.5 11.5 c 128,-1,9
 111 33 111 33 98 71 c 0,10,11
 82 115 82 115 82 168 c 128,-1,12
 82 221 82 221 91 271 c 0,13,14
 134 537 134 537 318 537 c 0,0,1
164.5 338.5 m 128,-1,16
 154 305 154 305 146.5 249.5 c 128,-1,17
 139 194 139 194 139 149 c 128,-1,18
 139 104 139 104 163 76 c 128,-1,19
 187 48 187 48 241 48 c 128,-1,20
 295 48 295 48 332.5 53 c 128,-1,21
 370 58 370 58 437 74 c 1,22,-1
 501 480 l 1,23,-1
 309 480 l 2,24,25
 271 480 271 480 241.5 459.5 c 128,-1,26
 212 439 212 439 193.5 405.5 c 128,-1,15
 175 372 175 372 164.5 338.5 c 128,-1,16
EndSplineSet
Substitution2: "'smcp' Lowercase to Small Capitals lookup 0 subtable" q.smcp
EndChar

StartChar: r
Encoding: 114 114 85
Width: 415
GlyphClass: 2
Flags: W
LayerCount: 2
Fore
SplineSet
382 535.5 m 128,-1,1
 395 537 395 537 429 537 c 128,-1,2
 463 537 463 537 480 529 c 1,3,-1
 471 472 l 1,4,5
 444 479 444 479 414.5 479 c 128,-1,6
 385 479 385 479 373 478 c 128,-1,7
 361 477 361 477 352 476 c 128,-1,8
 343 475 343 475 330 472 c 128,-1,9
 317 469 317 469 310.5 468 c 128,-1,10
 304 467 304 467 290 461.5 c 128,-1,11
 276 456 276 456 271.5 455 c 128,-1,12
 267 454 267 454 250.5 446.5 c 128,-1,13
 234 439 234 439 230.5 438 c 128,-1,14
 227 437 227 437 207 428 c 128,-1,15
 187 419 187 419 183 417 c 1,16,-1
 118 0 l 1,17,-1
 60 0 l 1,18,-1
 144 531 l 1,19,-1
 183 531 l 1,20,-1
 191 464 l 1,21,22
 195 466 195 466 210.5 474.5 c 128,-1,23
 226 483 226 483 231 485.5 c 128,-1,24
 236 488 236 488 250.5 495 c 128,-1,25
 265 502 265 502 271.5 505 c 128,-1,26
 278 508 278 508 292 513.5 c 128,-1,27
 306 519 306 519 314 521.5 c 128,-1,28
 322 524 322 524 335 527.5 c 128,-1,29
 348 531 348 531 358.5 532.5 c 128,-1,0
 369 534 369 534 382 535.5 c 128,-1,1
EndSplineSet
AlternateSubs2: "'salt' Stylistic Alternatives in Latin lookup 15 subtable" r.salt
Substitution2: "'smcp' Lowercase to Small Capitals lookup 0 subtable" r.smcp
EndChar

StartChar: s
Encoding: 115 115 86
Width: 506
GlyphClass: 2
Flags: W
LayerCount: 2
Fore
SplineSet
335 49 m 2,0,1
 372 49 372 49 384 59 c 0,2,3
 412 80 412 80 418 116 c 2,4,-1
 426 169 l 2,5,6
 428 178 428 178 428 185 c 0,7,8
 428 235 428 235 365 235 c 2,9,-1
 223 235 l 2,10,11
 148 235 148 235 121.5 258.5 c 128,-1,12
 95 282 95 282 95 326 c 0,13,14
 95 342 95 342 98 362 c 2,15,-1
 105 411 l 1,16,17
 116 477 116 477 152.5 508 c 128,-1,18
 189 539 189 539 264 539 c 0,19,20
 301 539 301 539 387 534.5 c 128,-1,21
 473 530 473 530 513 526 c 1,22,-1
 506 483 l 1,23,-1
 255 483 l 2,24,25
 207 483 207 483 187.5 463 c 128,-1,26
 168 443 168 443 163 409 c 2,27,-1
 155 360 l 2,28,29
 149 324 149 324 154.5 316 c 128,-1,30
 160 308 160 308 161.5 304.5 c 128,-1,31
 163 301 163 301 169.5 298.5 c 128,-1,32
 176 296 176 296 178 295 c 128,-1,33
 180 294 180 294 188.5 293.5 c 128,-1,34
 197 293 197 293 199.5 293 c 128,-1,35
 202 293 202 293 212.5 293 c 128,-1,36
 223 293 223 293 225 293 c 2,37,-1
 368 293 l 2,38,39
 430 293 430 293 458 262 c 128,-1,40
 486 231 486 231 486 191 c 0,41,42
 486 179 486 179 484 167 c 2,43,-1
 475 108 l 2,44,45
 462 22 462 22 398 1 c 0,46,47
 368 -8 368 -8 329.5 -8 c 128,-1,48
 291 -8 291 -8 193.5 -2 c 128,-1,49
 96 4 96 4 64 8 c 1,50,-1
 71 49 l 1,51,-1
 335 49 l 2,0,1
EndSplineSet
Substitution2: "'smcp' Lowercase to Small Capitals lookup 0 subtable" s.smcp
EndChar

StartChar: t
Encoding: 116 116 87
Width: 366
GlyphClass: 2
Flags: W
LayerCount: 2
Fore
SplineSet
249 0 m 2,0,1
 136 0 136 0 136 125 c 0,2,3
 136 153 136 153 141 189 c 2,4,-1
 186 474 l 1,5,-1
 92 474 l 1,6,-1
 99 517 l 1,7,-1
 195 532 l 1,8,-1
 233 680 l 1,9,-1
 276 680 l 1,10,-1
 253 532 l 1,11,-1
 415 532 l 1,12,-1
 405 474 l 1,13,-1
 244 474 l 1,14,-1
 199 189 l 2,15,16
 194 157 194 157 194 132.5 c 128,-1,17
 194 108 194 108 197 94.5 c 128,-1,18
 200 81 200 81 210 73 c 0,19,20
 223 62 223 62 271 51.5 c 128,-1,21
 319 41 319 41 322 41 c 1,22,-1
 316 0 l 1,23,-1
 249 0 l 2,0,1
EndSplineSet
AlternateSubs2: "'salt' Stylistic Alternatives in Latin lookup 15 subtable" t.salt
Substitution2: "'smcp' Lowercase to Small Capitals lookup 0 subtable" t.smcp
EndChar

StartChar: u
Encoding: 117 117 88
Width: 541
GlyphClass: 2
Flags: W
LayerCount: 2
Fore
SplineSet
131 133 m 0,0,1
 131 98 131 98 152 73.5 c 128,-1,2
 173 49 173 49 226 49 c 128,-1,3
 279 49 279 49 321 61.5 c 128,-1,4
 363 74 363 74 434 107 c 1,5,-1
 501 531 l 1,6,-1
 558 531 l 1,7,-1
 474 0 l 1,8,-1
 435 0 l 1,9,-1
 427 62 l 1,10,11
 384 39 384 39 358 26.5 c 128,-1,12
 332 14 332 14 291.5 2.5 c 128,-1,13
 251 -9 251 -9 213 -9 c 0,14,15
 136 -9 136 -9 100 40 c 0,16,17
 73 77 73 77 73 128 c 0,18,19
 73 144 73 144 76 161 c 2,20,-1
 134 531 l 1,21,-1
 192 531 l 1,22,-1
 133 161 l 2,23,24
 131 146 131 146 131 133 c 0,0,1
EndSplineSet
AlternateSubs2: "'salt' Stylistic Alternatives in Latin lookup 15 subtable" u.salt
Substitution2: "'smcp' Lowercase to Small Capitals lookup 0 subtable" u.smcp
EndChar

StartChar: v
Encoding: 118 118 89
Width: 520
GlyphClass: 2
Flags: W
LayerCount: 2
Fore
SplineSet
544 531 m 1,0,1
 548 518 548 518 548 496 c 128,-1,2
 548 474 548 474 531 439 c 1,3,-1
 294 0 l 1,4,-1
 222 0 l 1,5,-1
 94 531 l 1,6,-1
 154 531 l 1,7,-1
 265 72 l 1,8,-1
 470 450 l 1,9,10
 494 498 494 498 500 531 c 1,11,-1
 544 531 l 1,0,1
EndSplineSet
Substitution2: "'smcp' Lowercase to Small Capitals lookup 0 subtable" v.smcp
EndChar

StartChar: w
Encoding: 119 119 90
Width: 800
GlyphClass: 2
Flags: W
LayerCount: 2
Fore
SplineSet
537 529 m 1,0,1
 541 516 541 516 541 494 c 128,-1,2
 541 472 541 472 523 437 c 2,3,-1
 483 357 l 1,4,-1
 545 78 l 1,5,-1
 755 449 l 1,6,7
 780 499 780 499 785 531 c 1,8,-1
 827 531 l 1,9,10
 831 516 831 516 831 493.5 c 128,-1,11
 831 471 831 471 813 439 c 2,12,-1
 564 0 l 1,13,-1
 506 0 l 1,14,-1
 441 287 l 1,15,-1
 285 0 l 1,16,-1
 222 0 l 1,17,-1
 94 531 l 1,18,-1
 152 531 l 1,19,-1
 261 75 l 1,20,-1
 465 447 l 1,21,22
 491 497 491 497 496 529 c 1,23,-1
 537 529 l 1,0,1
EndSplineSet
Substitution2: "'smcp' Lowercase to Small Capitals lookup 0 subtable" w.smcp
EndChar

StartChar: x
Encoding: 120 120 91
Width: 497
GlyphClass: 2
Flags: W
LayerCount: 2
Fore
SplineSet
24 0 m 1,0,-1
 259 267 l 1,1,-1
 108 531 l 1,2,-1
 176 531 l 1,3,-1
 299 314 l 1,4,-1
 490 531 l 1,5,-1
 564 531 l 1,6,-1
 330 261 l 1,7,-1
 478 0 l 1,8,-1
 411 0 l 1,9,-1
 288 214 l 1,10,-1
 102 0 l 1,11,-1
 24 0 l 1,0,-1
EndSplineSet
AlternateSubs2: "'salt' Stylistic Alternatives in Latin lookup 15 subtable" x.salt
Substitution2: "'smcp' Lowercase to Small Capitals lookup 0 subtable" x.smcp
EndChar

StartChar: y
Encoding: 121 121 92
Width: 544
GlyphClass: 2
Flags: W
LayerCount: 2
Fore
SplineSet
569 535 m 1,0,1
 574 520 574 520 574 497 c 128,-1,2
 574 474 574 474 556 440 c 2,3,-1
 338 1 l 1,4,5
 276 -120 276 -120 237 -168 c 0,6,7
 187 -231 187 -231 155 -248 c 128,-1,8
 123 -265 123 -265 98 -269 c 1,9,-1
 98 -229 l 1,10,11
 132 -214 132 -214 165 -173 c 0,12,13
 204 -125 204 -125 225.5 -85.5 c 128,-1,14
 247 -46 247 -46 250.5 -39 c 128,-1,15
 254 -32 254 -32 262 -16.5 c 128,-1,16
 270 -1 270 -1 271 0 c 1,17,18
 245 0 245 0 221 14 c 0,19,20
 175 40 175 40 164 110 c 2,21,-1
 94 531 l 1,22,-1
 154 531 l 1,23,-1
 223 116 l 2,24,25
 233 60 233 60 289 59 c 1,26,-1
 300 60 l 1,27,-1
 497 453 l 2,28,29
 517 492 517 492 523 535 c 1,30,-1
 569 535 l 1,0,1
EndSplineSet
Substitution2: "'smcp' Lowercase to Small Capitals lookup 0 subtable" y.smcp
EndChar

StartChar: z
Encoding: 122 122 93
Width: 453
GlyphClass: 2
Flags: W
LayerCount: 2
Fore
SplineSet
45 1 m 1,0,-1
 52 58 l 1,1,-1
 423 474 l 1,2,-1
 106 474 l 1,3,-1
 114 531 l 1,4,-1
 510 531 l 1,5,-1
 502 474 l 1,6,-1
 135 58 l 1,7,-1
 435 58 l 1,8,-1
 426 1 l 1,9,-1
 45 1 l 1,0,-1
EndSplineSet
Substitution2: "'smcp' Lowercase to Small Capitals lookup 0 subtable" z.smcp
EndChar

StartChar: braceleft
Encoding: 123 123 94
Width: 300
GlyphClass: 2
Flags: W
LayerCount: 2
Fore
SplineSet
411 805 m 0,0,1
 352 805 352 805 316.5 775.5 c 128,-1,2
 281 746 281 746 270 676 c 2,3,-1
 233 440 l 2,4,5
 227 405 227 405 200 383.5 c 128,-1,6
 173 362 173 362 135 355 c 1,7,8
 183 348 183 348 200 310 c 0,9,10
 206 297 206 297 206 287 c 128,-1,11
 206 277 206 277 205 271 c 2,12,-1
 163 9 l 2,13,14
 158 -17 158 -17 158 -49.5 c 128,-1,15
 158 -82 158 -82 176 -103 c 0,16,17
 201 -133 201 -133 257 -133 c 0,18,19
 261 -133 261 -133 264 -133 c 1,20,-1
 255 -190 l 1,21,22
 171 -190 171 -190 135 -146 c 0,23,24
 101 -104 101 -104 101 -50 c 0,25,26
 101 -25 101 -25 105 12 c 1,27,-1
 147 267 l 2,28,29
 148 272 148 272 148 277 c 0,30,31
 148 301 148 301 125.5 317 c 128,-1,32
 103 333 103 333 74 333 c 0,33,34
 71 333 71 333 67 333 c 1,35,-1
 76 387 l 2,36,37
 77 387 77 387 86 387.5 c 128,-1,38
 95 388 95 388 98.5 388 c 128,-1,39
 102 388 102 388 110.5 389 c 128,-1,40
 119 390 119 390 123 391 c 128,-1,41
 127 392 127 392 134.5 394 c 128,-1,42
 142 396 142 396 146 398.5 c 128,-1,43
 150 401 150 401 156 405 c 128,-1,44
 162 409 162 409 165 414 c 0,45,46
 173 426 173 426 175 440 c 2,47,-1
 212 678 l 1,48,49
 242 862 242 862 422 862 c 1,50,-1
 413 805 l 2,51,52
 412 805 412 805 411 805 c 0,0,1
EndSplineSet
EndChar

StartChar: bar
Encoding: 124 124 95
Width: 235
GlyphClass: 2
Flags: W
LayerCount: 2
Fore
SplineSet
74 -72 m 1,0,-1
 207 770 l 1,1,-1
 264 770 l 1,2,-1
 132 -72 l 1,3,-1
 74 -72 l 1,0,-1
EndSplineSet
EndChar

StartChar: braceright
Encoding: 125 125 96
Width: 296
GlyphClass: 2
Flags: W
LayerCount: 2
Fore
SplineSet
250 707 m 0,0,1
 250 805 250 805 152 805 c 0,2,3
 148 805 148 805 145 805 c 1,4,-1
 154 862 l 1,5,6
 204 862 204 862 238.5 843.5 c 128,-1,7
 273 825 273 825 287 796 c 0,8,9
 308 752 308 752 308 715.5 c 128,-1,10
 308 679 308 679 302 655 c 1,11,-1
 264 416 l 2,12,13
 263 411 263 411 263 406 c 0,14,15
 263 381 263 381 286.5 365.5 c 128,-1,16
 310 350 310 350 341 350 c 0,17,18
 342 350 342 350 344 350 c 1,19,-1
 335 296 l 2,20,21
 334 296 334 296 332 296 c 0,22,23
 245 296 245 296 236 243 c 2,24,-1
 195 -10 l 1,25,26
 167 -190 167 -190 -13 -190 c 1,27,-1
 -4 -133 l 2,28,29
 -3 -133 -3 -133 -1 -133 c 0,30,31
 57 -133 57 -133 92 -105 c 128,-1,32
 127 -77 127 -77 138 -9 c 2,33,-1
 179 245 l 2,34,35
 184 278 184 278 211 300 c 128,-1,36
 238 322 238 322 275 328 c 1,37,38
 240 333 240 333 222.5 354.5 c 128,-1,39
 205 376 205 376 205 400 c 0,40,41
 205 407 205 407 206 414 c 2,42,-1
 245 658 l 2,43,44
 250 685 250 685 250 707 c 0,0,1
EndSplineSet
EndChar

StartChar: asciitilde
Encoding: 126 126 97
Width: 454
GlyphClass: 2
Flags: W
LayerCount: 2
Fore
SplineSet
237.5 634 m 128,-1,1
 250 637 250 637 268 637 c 128,-1,2
 286 637 286 637 318.5 613 c 128,-1,3
 351 589 351 589 364.5 589 c 128,-1,4
 378 589 378 589 388 591.5 c 128,-1,5
 398 594 398 594 406 597 c 128,-1,6
 414 600 414 600 424.5 605 c 128,-1,7
 435 610 435 610 441 614 c 128,-1,8
 447 618 447 618 457 624.5 c 128,-1,9
 467 631 467 631 471 633 c 1,10,-1
 483 603 l 1,11,12
 480 601 480 601 463 586 c 128,-1,13
 446 571 446 571 438.5 566 c 128,-1,14
 431 561 431 561 416 551 c 0,15,16
 390 534 390 534 364 534 c 128,-1,17
 338 534 338 534 304.5 558 c 128,-1,18
 271 582 271 582 253.5 582 c 128,-1,19
 236 582 236 582 221 576.5 c 128,-1,20
 206 571 206 571 184 559 c 128,-1,21
 162 547 162 547 151 542 c 1,22,-1
 140 572 l 1,23,24
 146 577 146 577 163.5 590.5 c 128,-1,25
 181 604 181 604 189 609 c 128,-1,26
 197 614 197 614 211 622.5 c 128,-1,0
 225 631 225 631 237.5 634 c 128,-1,1
EndSplineSet
EndChar

StartChar: exclamdown
Encoding: 161 161 98
Width: 260
GlyphClass: 2
Flags: W
LayerCount: 2
Fore
SplineSet
45 -269 m 1,0,-1
 138 263 l 1,1,-1
 193 263 l 1,2,-1
 117 -269 l 1,3,-1
 45 -269 l 1,0,-1
145 386 m 1,4,-1
 154 443 l 2,5,6
 157 460 157 460 177 461 c 1,7,-1
 214 461 l 2,8,9
 222 461 222 461 227 455 c 128,-1,10
 232 449 232 449 231 441 c 2,11,-1
 222 386 l 1,12,13
 218 368 218 368 201 365 c 1,14,-1
 160 365 l 1,15,16
 143 366 143 366 145 386 c 1,4,-1
EndSplineSet
Substitution2: "'case' Case-Sensitive Forms lookup 17 subtable" exclamdown.alt
Substitution2: "'smcp' Lowercase to Small Capitals lookup 0 subtable" exclamdown.smcp
EndChar

StartChar: cent
Encoding: 162 162 99
Width: 485
GlyphClass: 2
Flags: W
LayerCount: 2
Fore
SplineSet
128 159 m 0,0,1
 128 51 128 51 221 51 c 0,2,3
 303 51 303 51 412 62 c 1,4,-1
 449 65 l 1,5,-1
 442 23 l 1,6,7
 358 -1 358 -1 274 -5 c 1,8,-1
 261 -91 l 1,9,-1
 215 -91 l 1,10,-1
 228 -6 l 1,11,12
 159 -6 159 -6 118 28 c 0,13,14
 70 68 70 68 70 176 c 0,15,16
 70 217 70 217 80 273.5 c 128,-1,17
 90 330 90 330 104 376 c 128,-1,18
 118 422 118 422 135.5 451.5 c 128,-1,19
 153 481 153 481 171 499 c 0,20,21
 209 538 209 538 296 538 c 0,22,23
 305 538 305 538 314 537 c 1,24,-1
 329 629 l 1,25,-1
 375 629 l 1,26,-1
 359 534 l 1,27,28
 437 526 437 526 512 510 c 1,29,-1
 506 469 l 1,30,31
 378 480 378 480 321.5 480 c 128,-1,32
 265 480 265 480 249.5 476.5 c 128,-1,33
 234 473 234 473 216 461 c 128,-1,34
 198 449 198 449 185 426 c 0,35,36
 157 373 157 373 137 262 c 1,37,38
 128 199 128 199 128 159 c 0,0,1
EndSplineSet
EndChar

StartChar: sterling
Encoding: 163 163 100
Width: 583
GlyphClass: 2
Flags: W
LayerCount: 2
Fore
SplineSet
616 722 m 1,0,-1
 650 718 l 1,1,-1
 643 675 l 1,2,-1
 463 675 l 2,3,4
 410 675 410 675 378.5 669.5 c 128,-1,5
 347 664 347 664 321.5 646 c 128,-1,6
 296 628 296 628 282 594.5 c 128,-1,7
 268 561 268 561 260 505 c 2,8,-1
 241 385 l 1,9,-1
 516 371 l 1,10,-1
 510 337 l 1,11,-1
 232 337 l 1,12,-1
 189 58 l 1,13,-1
 544 58 l 1,14,-1
 535 0 l 1,15,-1
 50 0 l 1,16,-1
 57 44 l 1,17,-1
 131 58 l 1,18,-1
 175 337 l 1,19,-1
 103 337 l 1,20,-1
 109 371 l 1,21,-1
 183 385 l 1,22,-1
 202 505 l 2,23,24
 223 639 223 639 282 686 c 0,25,26
 321 718 321 718 357 724 c 0,27,28
 405 732 405 732 461 732 c 128,-1,29
 517 732 517 732 616 722 c 1,0,-1
EndSplineSet
Substitution2: "'smcp' Lowercase to Small Capitals lookup 0 subtable" sterling.smcp
EndChar

StartChar: currency
Encoding: 164 164 101
Width: 466
GlyphClass: 2
Flags: W
LayerCount: 2
Fore
SplineSet
439 334 m 0,0,1
 439 263 439 263 391 208 c 1,2,-1
 431 160 l 1,3,-1
 396 133 l 1,4,-1
 359 178 l 1,5,6
 314 144 314 144 253.5 144 c 128,-1,7
 193 144 193 144 156 181 c 1,8,-1
 106 137 l 1,9,-1
 79 173 l 1,10,-1
 130 216 l 1,11,12
 108 253 108 253 108 292 c 0,13,14
 108 362 108 362 156 413 c 1,15,-1
 118 457 l 1,16,-1
 152 484 l 1,17,-1
 188 441 l 1,18,19
 236 475 236 475 295.5 475 c 128,-1,20
 355 475 355 475 392 441 c 1,21,-1
 447 487 l 1,22,-1
 473 452 l 1,23,-1
 418 406 l 1,24,25
 439 373 439 373 439 334 c 0,0,1
154 292 m 0,26,27
 154 255 154 255 179 223 c 0,28,29
 205 189 205 189 255 189 c 0,30,31
 320 189 320 189 360 239 c 0,32,33
 395 282 395 282 395 325 c 128,-1,34
 395 368 395 368 369.5 399.5 c 128,-1,35
 344 431 344 431 293 431 c 0,36,37
 238 431 238 431 200 396 c 0,38,39
 154 354 154 354 154 292 c 0,26,27
EndSplineSet
EndChar

StartChar: yen
Encoding: 165 165 102
Width: 595
GlyphClass: 2
Flags: W
LayerCount: 2
Fore
SplineSet
106 168 m 1,0,-1
 113 212 l 1,1,-1
 288 212 l 1,2,-1
 298 277 l 1,3,-1
 123 277 l 1,4,-1
 130 321 l 1,5,-1
 301 321 l 1,6,-1
 139 732 l 1,7,-1
 200 732 l 1,8,-1
 340 382 l 1,9,-1
 619 732 l 1,10,-1
 689 732 l 1,11,-1
 363 321 l 1,12,-1
 557 321 l 1,13,-1
 550 277 l 1,14,-1
 355 277 l 1,15,-1
 345 212 l 1,16,-1
 540 212 l 1,17,-1
 533 168 l 1,18,-1
 340 168 l 1,19,-1
 316 0 l 1,20,-1
 259 0 l 1,21,-1
 283 168 l 1,22,-1
 106 168 l 1,0,-1
EndSplineSet
Substitution2: "'smcp' Lowercase to Small Capitals lookup 0 subtable" yen.smcp
EndChar

StartChar: brokenbar
Encoding: 166 166 103
Width: 236
GlyphClass: 2
Flags: W
LayerCount: 2
Fore
SplineSet
74 -72 m 1,0,-1
 126 256 l 1,1,-1
 184 256 l 1,2,-1
 132 -72 l 1,3,-1
 74 -72 l 1,0,-1
153 429 m 1,4,-1
 207 770 l 1,5,-1
 264 770 l 1,6,-1
 210 429 l 1,7,-1
 153 429 l 1,4,-1
EndSplineSet
EndChar

StartChar: section
Encoding: 167 167 104
Width: 553
GlyphClass: 2
Flags: W
LayerCount: 2
Fore
SplineSet
438 535 m 2,0,1
 554 535 554 535 554 441 c 0,2,3
 554 428 554 428 552 414 c 2,4,-1
 542 352 l 1,5,6
 530 271 530 271 483 265 c 1,7,8
 519 253 519 253 518 216 c 0,9,10
 517 200 517 200 515 183 c 2,11,-1
 503 110 l 2,12,13
 491 34 491 34 452 12 c 0,14,15
 417 -8 417 -8 346 -8 c 0,16,17
 313 -8 313 -8 219.5 -2 c 128,-1,18
 126 4 126 4 93 8 c 1,19,-1
 100 50 l 1,20,-1
 356 50 l 2,21,22
 382 50 382 50 398.5 54 c 128,-1,23
 415 58 415 58 428.5 71.5 c 128,-1,24
 442 85 442 85 446 110 c 2,25,-1
 457 183 l 2,26,27
 459 194 459 194 459 207.5 c 128,-1,28
 459 221 459 221 448 229.5 c 128,-1,29
 437 238 437 238 392 238 c 2,30,-1
 227 238 l 2,31,32
 109 238 109 238 109 325 c 0,33,34
 109 339 109 339 111 355 c 2,35,-1
 121 418 l 2,36,37
 127 457 127 457 141 479 c 128,-1,38
 155 501 155 501 184 508 c 1,39,40
 147 527 147 527 147 570 c 0,41,42
 147 580 147 580 148 590 c 2,43,-1
 159 661 l 2,44,45
 179 784 179 784 309 784 c 0,46,47
 342 784 342 784 440 777.5 c 128,-1,48
 538 771 538 771 570 768 c 1,49,-1
 564 726 l 1,50,-1
 300 726 l 2,51,52
 263 726 263 726 243 710 c 128,-1,53
 223 694 223 694 217 660 c 2,54,-1
 206 590 l 2,55,56
 205 583 205 583 205 569 c 128,-1,57
 205 555 205 555 220 545 c 128,-1,58
 235 535 235 535 269 535 c 2,59,-1
 438 535 l 2,0,1
168 353 m 2,60,61
 166 341 166 341 166 326.5 c 128,-1,62
 166 312 166 312 177.5 304 c 128,-1,63
 189 296 189 296 231 296 c 2,64,-1
 400 296 l 2,65,66
 464 296 464 296 475 319 c 0,67,68
 481 330 481 330 484 354 c 2,69,-1
 494 416 l 2,70,71
 496 428 496 428 496 442.5 c 128,-1,72
 496 457 496 457 487 467.5 c 128,-1,73
 478 478 478 478 430 478 c 2,74,-1
 261 478 l 2,75,76
 220 478 220 478 206 470 c 128,-1,77
 192 462 192 462 186.5 449 c 128,-1,78
 181 436 181 436 178 414 c 2,79,-1
 168 353 l 2,60,61
EndSplineSet
EndChar

StartChar: dieresis
Encoding: 168 168 105
Width: 451
GlyphClass: 2
Flags: W
LayerCount: 2
Fore
SplineSet
167 616 m 128,-1,1
 177 621 177 621 191 621 c 128,-1,2
 205 621 205 621 214 610 c 128,-1,3
 223 599 223 599 221 585 c 128,-1,4
 219 571 219 571 213 562 c 0,5,6
 198 542 198 542 178.5 542 c 128,-1,7
 159 542 159 542 150 552.5 c 128,-1,8
 141 563 141 563 141 571 c 128,-1,9
 141 579 141 579 142 586 c 128,-1,10
 143 593 143 593 150 602 c 128,-1,0
 157 611 157 611 167 616 c 128,-1,1
443 621 m 128,-1,12
 460 621 460 621 468 611 c 128,-1,13
 476 601 476 601 476 593.5 c 128,-1,14
 476 586 476 586 475 578.5 c 128,-1,15
 474 571 474 571 468 562 c 0,16,17
 453 542 453 542 433.5 542 c 128,-1,18
 414 542 414 542 405 552.5 c 128,-1,19
 396 563 396 563 396 571 c 128,-1,20
 396 579 396 579 397.5 588.5 c 128,-1,21
 399 598 399 598 412.5 609.5 c 128,-1,11
 426 621 426 621 443 621 c 128,-1,12
EndSplineSet
Substitution2: "'smcp' Lowercase to Small Capitals lookup 0 subtable" dieresis.smcp
EndChar

StartChar: copyright
Encoding: 169 169 106
Width: 825
GlyphClass: 2
Flags: W
LayerCount: 2
Fore
SplineSet
400 732 m 2,0,-1
 658 732 l 2,1,2
 827 732 827 732 827 498 c 0,3,4
 827 359 827 359 782 227 c 0,5,6
 733 83 733 83 650 30 c 0,7,8
 604 0 604 0 549 0 c 2,9,-1
 291 0 l 2,10,11
 237 0 237 0 198 27.5 c 128,-1,12
 159 55 159 55 140 96 c 0,13,14
 104 174 104 174 104 280 c 0,15,16
 104 369 104 369 132 474 c 0,17,18
 163 588 163 588 222 655 c 0,19,20
 253 689 253 689 298.5 710.5 c 128,-1,21
 344 732 344 732 400 732 c 2,0,-1
158 368 m 1,22,23
 150 327 150 327 150 298.5 c 128,-1,24
 150 270 150 270 152.5 234.5 c 128,-1,25
 155 199 155 199 168 152.5 c 128,-1,26
 181 106 181 106 213.5 77 c 128,-1,27
 246 48 246 48 292 48 c 2,28,-1
 555 48 l 2,29,30
 626 48 626 48 685.5 131.5 c 128,-1,31
 745 215 745 215 769 368 c 0,32,33
 781 443 781 443 781 500 c 0,34,35
 781 684 781 684 658 684 c 2,36,-1
 392 684 l 2,37,38
 209 684 209 684 158 368 c 1,22,23
327 287 m 0,39,40
 327 194 327 194 403 194 c 0,41,42
 497 194 497 194 590 210 c 1,43,-1
 584 173 l 1,44,45
 488 147 488 147 395 147 c 0,46,47
 331 147 331 147 299 200 c 0,48,49
 279 233 279 233 279 278.5 c 128,-1,50
 279 324 279 324 286 366 c 0,51,52
 306 486 306 486 351.5 534.5 c 128,-1,53
 397 583 397 583 459.5 583 c 128,-1,54
 522 583 522 583 639 561 c 1,55,-1
 633 524 l 1,56,57
 550 536 550 536 457 536 c 0,58,59
 361 536 361 536 333 362 c 0,60,61
 327 320 327 320 327 287 c 0,39,40
EndSplineSet
EndChar

StartChar: ordfeminine
Encoding: 170 170 107
Width: 359
GlyphClass: 3
Flags: W
LayerCount: 2
Fore
SplineSet
72 276 m 1,0,-1
 79 319 l 1,1,-1
 374 319 l 1,2,-1
 368 276 l 1,3,-1
 72 276 l 1,0,-1
236.5 727 m 128,-1,5
 249 730 249 730 260.5 731.5 c 128,-1,6
 272 733 272 733 285.5 733 c 128,-1,7
 299 733 299 733 325.5 729 c 128,-1,8
 352 725 352 725 383 713 c 128,-1,9
 414 701 414 701 429 686 c 1,10,-1
 384 381 l 1,11,-1
 358 381 l 1,12,-1
 352 437 l 1,13,14
 331 414 331 414 294 395.5 c 128,-1,15
 257 377 257 377 227.5 377 c 128,-1,16
 198 377 198 377 177 385 c 128,-1,17
 156 393 156 393 136 414 c 128,-1,18
 116 435 116 435 112 461.5 c 128,-1,19
 108 488 108 488 108 511 c 128,-1,20
 108 534 108 534 112 565 c 128,-1,21
 116 596 116 596 126 623.5 c 128,-1,22
 136 651 136 651 149.5 668.5 c 128,-1,23
 163 686 163 686 177 698.5 c 128,-1,24
 191 711 191 711 207.5 717.5 c 128,-1,4
 224 724 224 724 236.5 727 c 128,-1,5
180 627.5 m 128,-1,26
 163 598 163 598 158 563.5 c 128,-1,27
 153 529 153 529 153 502 c 128,-1,28
 153 475 153 475 167 455 c 0,29,30
 188 424 188 424 223.5 424 c 128,-1,31
 259 424 259 424 288 437.5 c 128,-1,32
 317 451 317 451 355 478 c 1,33,-1
 382 666 l 1,34,35
 332 686 332 686 289 686 c 128,-1,36
 246 686 246 686 221.5 671.5 c 128,-1,25
 197 657 197 657 180 627.5 c 128,-1,26
EndSplineSet
Ligature2: "'ordn' Ordinals lookup 19 subtable" a
Substitution2: "'smcp' Lowercase to Small Capitals lookup 0 subtable" ordfeminine.smcp
EndChar

StartChar: guillemotleft
Encoding: 171 171 108
Width: 557
GlyphClass: 2
Flags: W
LayerCount: 2
Fore
SplineSet
106 354 m 1,0,-1
 344 557 l 1,1,-1
 379 516 l 1,2,-1
 185 349 l 1,3,-1
 325 182 l 1,4,-1
 284 146 l 1,5,-1
 106 354 l 1,0,-1
294 354 m 1,6,-1
 532 557 l 1,7,-1
 568 516 l 1,8,-1
 373 349 l 1,9,-1
 514 182 l 1,10,-1
 472 146 l 1,11,-1
 294 354 l 1,6,-1
EndSplineSet
EndChar

StartChar: logicalnot
Encoding: 172 172 109
Width: 529
GlyphClass: 2
Flags: W
LayerCount: 2
Fore
SplineSet
516 322 m 1,0,-1
 491 159 l 1,1,-1
 433 159 l 1,2,-1
 450 264 l 1,3,-1
 90 264 l 1,4,-1
 99 322 l 1,5,-1
 516 322 l 1,0,-1
EndSplineSet
EndChar

StartChar: uni00AD
Encoding: 173 173 110
Width: 356
GlyphClass: 2
Flags: W
LayerCount: 2
Fore
SplineSet
60 261 m 1,0,-1
 69 319 l 1,1,-1
 383 319 l 1,2,-1
 374 261 l 1,3,-1
 60 261 l 1,0,-1
EndSplineSet
Substitution2: "'case' Case-Sensitive Forms lookup 17 subtable" uni00AD.alt
Substitution2: "'c2sc' Capitals to Small Capitals in Latin lookup 1 subtable" uni00AD.smcp
Substitution2: "'smcp' Lowercase to Small Capitals lookup 0 subtable" uni00AD.smcp
EndChar

StartChar: registered
Encoding: 174 174 111
Width: 825
GlyphClass: 2
Flags: W
LayerCount: 2
Fore
SplineSet
400 732 m 2,0,-1
 658 732 l 2,1,2
 827 732 827 732 827 498 c 0,3,4
 827 359 827 359 782 227 c 0,5,6
 733 83 733 83 650 30 c 0,7,8
 604 0 604 0 549 0 c 2,9,-1
 291 0 l 2,10,11
 237 0 237 0 198 27.5 c 128,-1,12
 159 55 159 55 140 96 c 0,13,14
 104 174 104 174 104 280 c 0,15,16
 104 368 104 368 132 473 c 0,17,18
 163 587 163 587 222 654 c 0,19,20
 253 689 253 689 298.5 710.5 c 128,-1,21
 344 732 344 732 400 732 c 2,0,-1
158 368 m 1,22,23
 150 327 150 327 150 298.5 c 128,-1,24
 150 270 150 270 152 234.5 c 128,-1,25
 154 199 154 199 167.5 152.5 c 128,-1,26
 181 106 181 106 213.5 77 c 128,-1,27
 246 48 246 48 292 48 c 2,28,-1
 555 48 l 2,29,30
 626 48 626 48 685.5 131.5 c 128,-1,31
 745 215 745 215 769 368 c 0,32,33
 781 443 781 443 781 501 c 0,34,35
 781 684 781 684 659 684 c 2,36,-1
 392 684 l 2,37,38
 209 684 209 684 158 368 c 1,22,23
529 580 m 2,39,40
 577 580 577 580 610 555 c 0,41,42
 641 531 641 531 641 476 c 0,43,44
 641 419 641 419 619 378 c 0,45,46
 597 339 597 339 550 333 c 0,47,48
 543 332 543 332 533 331 c 128,-1,49
 523 330 523 330 519 329 c 1,50,-1
 588 153 l 1,51,-1
 535 153 l 1,52,-1
 466 330 l 1,53,-1
 361 340 l 1,54,-1
 331 153 l 1,55,-1
 284 153 l 1,56,-1
 352 580 l 1,57,-1
 529 580 l 2,39,40
502 372 m 2,58,59
 545 372 545 372 560 384 c 128,-1,60
 575 396 575 396 581 411 c 0,61,62
 593 442 593 442 593 473 c 128,-1,63
 593 504 593 504 578 518 c 128,-1,64
 563 532 563 532 527 532 c 2,65,-1
 392 532 l 1,66,-1
 366 372 l 1,67,-1
 502 372 l 2,58,59
EndSplineSet
EndChar

StartChar: macron
Encoding: 175 175 112
Width: 392
GlyphClass: 2
Flags: W
LayerCount: 2
Fore
SplineSet
134 531 m 1,0,-1
 141 578 l 1,1,-1
 420 578 l 1,2,-1
 413 531 l 1,3,-1
 134 531 l 1,0,-1
EndSplineSet
Substitution2: "'smcp' Lowercase to Small Capitals lookup 0 subtable" macron.smcp
EndChar

StartChar: degree
Encoding: 176 176 113
Width: 318
GlyphClass: 2
Flags: W
LayerCount: 2
Fore
SplineSet
248 735 m 0,0,1
 314 735 314 735 340 684 c 0,2,3
 351 663 351 663 351 649 c 128,-1,4
 351 635 351 635 351 632 c 0,5,6
 349 589 349 589 318.5 559.5 c 128,-1,7
 288 530 288 530 246 530 c 128,-1,8
 204 530 204 530 176 558.5 c 128,-1,9
 148 587 148 587 148 626 c 0,10,11
 148 672 148 672 180.5 703.5 c 128,-1,12
 213 735 213 735 248 735 c 0,0,1
184 627 m 0,13,14
 184 603 184 603 201.5 585 c 128,-1,15
 219 567 219 567 246 567 c 128,-1,16
 273 567 273 567 293 586 c 0,17,18
 315 607 315 607 315 634 c 128,-1,19
 315 661 315 661 298.5 679.5 c 128,-1,20
 282 698 282 698 259.5 698 c 128,-1,21
 237 698 237 698 221 689 c 0,22,23
 184 668 184 668 184 627 c 0,13,14
EndSplineSet
Substitution2: "'smcp' Lowercase to Small Capitals lookup 0 subtable" degree.smcp
EndChar

StartChar: plusminus
Encoding: 177 177 114
Width: 521
GlyphClass: 2
Flags: W
LayerCount: 2
Fore
SplineSet
69 104 m 1,0,-1
 78 161 l 1,1,-1
 484 161 l 1,2,-1
 475 104 l 1,3,-1
 69 104 l 1,0,-1
115 395 m 1,4,-1
 124 452 l 1,5,-1
 298 452 l 1,6,-1
 325 627 l 1,7,-1
 383 627 l 1,8,-1
 355 452 l 1,9,-1
 530 452 l 1,10,-1
 521 395 l 1,11,-1
 346 395 l 1,12,-1
 318 221 l 1,13,-1
 261 221 l 1,14,-1
 289 395 l 1,15,-1
 115 395 l 1,4,-1
EndSplineSet
EndChar

StartChar: twosuperior
Encoding: 178 178 115
Width: 388
GlyphClass: 2
Flags: W
LayerCount: 2
Fore
SplineSet
371.5 651 m 128,-1,1
 386 676 386 676 388.5 695 c 128,-1,2
 391 714 391 714 391 733 c 0,3,4
 391 791 391 791 315 791 c 2,5,-1
 141 791 l 2,6,7
 139 791 139 791 142.5 808.5 c 128,-1,8
 146 826 146 826 146 826 c 1,9,10
 250 838 250 838 331 838 c 0,11,12
 375 838 375 838 402.5 814 c 128,-1,13
 430 790 430 790 436 766 c 128,-1,14
 442 742 442 742 442 727 c 0,15,16
 442 674 442 674 412 626 c 128,-1,17
 382 578 382 578 346 543.5 c 128,-1,18
 310 509 310 509 276.5 482 c 128,-1,19
 243 455 243 455 211 432 c 128,-1,20
 179 409 179 409 173 403 c 1,21,-1
 392 403 l 1,22,-1
 384 356 l 1,23,-1
 75 356 l 1,24,-1
 82 399 l 1,25,26
 89 405 89 405 121 427 c 128,-1,27
 153 449 153 449 173.5 464 c 128,-1,28
 194 479 194 479 228 504.5 c 128,-1,29
 262 530 262 530 285.5 552 c 128,-1,30
 309 574 309 574 333 600 c 128,-1,0
 357 626 357 626 371.5 651 c 128,-1,1
EndSplineSet
EndChar

StartChar: threesuperior
Encoding: 179 179 116
Width: 411
GlyphClass: 2
Flags: W
LayerCount: 2
Fore
SplineSet
362 514 m 0,0,1
 362 540 362 540 343.5 556.5 c 128,-1,2
 325 573 325 573 291 574 c 2,3,-1
 149 579 l 1,4,-1
 155 614 l 1,5,-1
 296 619 l 1,6,7
 350 622 350 622 376 653 c 0,8,9
 390 669 390 669 393 690 c 2,10,-1
 396 716 l 2,11,12
 398 726 398 726 398 742.5 c 128,-1,13
 398 759 398 759 383 772.5 c 128,-1,14
 368 786 368 786 327 786 c 2,15,-1
 139 786 l 1,16,-1
 144 818 l 1,17,18
 183 830 183 830 220 831 c 0,19,20
 265 833 265 833 293 833 c 128,-1,21
 321 833 321 833 340 833 c 0,22,23
 398 833 398 833 421.5 803 c 128,-1,24
 445 773 445 773 445 738 c 0,25,26
 445 728 445 728 444 718 c 2,27,-1
 438 682 l 2,28,29
 432 647 432 647 410 622 c 128,-1,30
 388 597 388 597 365 590 c 1,31,32
 386 579 386 579 398 558 c 128,-1,33
 410 537 410 537 410 522 c 128,-1,34
 410 507 410 507 409 499 c 2,35,-1
 404 470 l 2,36,37
 395 412 395 412 363 382 c 128,-1,38
 331 352 331 352 261 352 c 0,39,40
 124 352 124 352 76 368 c 1,41,-1
 82 399 l 1,42,-1
 258 399 l 2,43,44
 345 399 345 399 357 475 c 1,45,-1
 361 498 l 2,46,47
 362 506 362 506 362 514 c 0,0,1
EndSplineSet
EndChar

StartChar: acute
Encoding: 180 180 117
Width: 227
GlyphClass: 2
Flags: W
LayerCount: 2
Fore
SplineSet
104 531 m 1,0,-1
 237 664 l 1,1,-1
 309 664 l 1,2,-1
 155 531 l 1,3,-1
 104 531 l 1,0,-1
EndSplineSet
Substitution2: "'smcp' Lowercase to Small Capitals lookup 0 subtable" acute.smcp
EndChar

StartChar: uni00B5
Encoding: 181 181 118
Width: 590
GlyphClass: 2
Flags: W
LayerCount: 2
Fore
SplineSet
170 137 m 0,0,1
 170 102 170 102 191.5 75.5 c 128,-1,2
 213 49 213 49 265.5 49 c 128,-1,3
 318 49 318 49 360 61.5 c 128,-1,4
 402 74 402 74 473 107 c 1,5,-1
 541 531 l 1,6,-1
 598 531 l 1,7,-1
 514 0 l 1,8,-1
 475 0 l 1,9,-1
 467 62 l 1,10,11
 386 19 386 19 355 9 c 0,12,13
 296 -9 296 -9 252 -9 c 0,14,15
 187 -9 187 -9 152 33 c 1,16,-1
 104 -270 l 1,17,-1
 47 -270 l 1,18,-1
 174 531 l 1,19,-1
 232 531 l 1,20,-1
 173 161 l 2,21,22
 170 148 170 148 170 137 c 0,0,1
EndSplineSet
EndChar

StartChar: paragraph
Encoding: 182 182 119
Width: 573
GlyphClass: 2
Flags: W
LayerCount: 2
Fore
SplineSet
312 732 m 2,0,-1
 667 732 l 1,1,-1
 657 672 l 1,2,-1
 588 672 l 1,3,-1
 482 0 l 1,4,-1
 424 0 l 1,5,-1
 531 674 l 1,6,-1
 414 674 l 1,7,-1
 264 -270 l 1,8,-1
 207 -270 l 1,9,-1
 308 370 l 1,10,11
 277 356 277 356 250 356 c 2,12,13
 250 356 250 356 249 356 c 0,14,15
 198 356 198 356 165.5 379 c 128,-1,16
 133 402 133 402 124.5 428 c 128,-1,17
 116 454 116 454 116 471.5 c 128,-1,18
 116 489 116 489 118 501 c 2,19,-1
 132 594 l 1,20,21
 149 700 149 700 253 725 c 0,22,23
 281 732 281 732 312 732 c 2,0,-1
176 501 m 2,24,25
 175 491 175 491 175 480.5 c 128,-1,26
 175 470 175 470 179 456.5 c 128,-1,27
 183 443 183 443 192 434 c 128,-1,28
 201 425 201 425 215 420 c 0,29,30
 235 412 235 412 258 412 c 2,31,-1
 314 412 l 1,32,-1
 356 677 l 1,33,-1
 302 677 l 2,34,35
 251 677 251 677 223.5 653.5 c 128,-1,36
 196 630 196 630 190 591 c 2,37,-1
 176 501 l 2,24,25
EndSplineSet
EndChar

StartChar: periodcentered
Encoding: 183 183 120
Width: 274
GlyphClass: 2
Flags: W
LayerCount: 2
Fore
SplineSet
170 424 m 2,0,-1
 209 424 l 2,1,2
 227 424 227 424 227 409 c 0,3,4
 227 407 227 407 226 403 c 2,5,-1
 220 361 l 1,6,7
 216 342 216 342 197 342 c 2,8,-1
 157 342 l 2,9,10
 148 342 148 342 143 347.5 c 128,-1,11
 138 353 138 353 140 361 c 2,12,-1
 146 403 l 2,13,14
 149 424 149 424 170 424 c 2,0,-1
EndSplineSet
Substitution2: "'smcp' Lowercase to Small Capitals lookup 0 subtable" periodcentered.smcp
EndChar

StartChar: cedilla
Encoding: 184 184 121
Width: 257
GlyphClass: 2
Flags: W
LayerCount: 2
Fore
SplineSet
66 -173 m 2,0,-1
 22 -173 l 1,1,-1
 26 -146 l 1,2,-1
 74 -134 l 2,3,4
 112 -124 112 -124 127 -87 c 0,5,6
 134 -68 134 -68 139 -37 c 1,7,-1
 189 -37 l 1,8,9
 180 -98 180 -98 166.5 -121.5 c 128,-1,10
 153 -145 153 -145 140 -154 c 0,11,12
 114 -173 114 -173 66 -173 c 2,0,-1
EndSplineSet
EndChar

StartChar: onesuperior
Encoding: 185 185 122
Width: 276
GlyphClass: 2
Flags: W
LayerCount: 2
Fore
SplineSet
115 735 m 1,0,-1
 120 767 l 1,1,2
 156 767 156 767 193 784 c 128,-1,3
 230 801 230 801 250 817 c 1,4,-1
 269 834 l 1,5,-1
 315 834 l 1,6,-1
 239 356 l 1,7,-1
 192 356 l 1,8,-1
 259 775 l 1,9,10
 241 761 241 761 203.5 748 c 128,-1,11
 166 735 166 735 115 735 c 1,0,-1
EndSplineSet
EndChar

StartChar: ordmasculine
Encoding: 186 186 123
Width: 381
GlyphClass: 3
Flags: W
LayerCount: 2
Fore
SplineSet
83 278 m 1,0,-1
 90 321 l 1,1,-1
 387 321 l 1,2,-1
 381 278 l 1,3,-1
 83 278 l 1,0,-1
303 738 m 0,4,5
 389 738 389 738 420 696 c 0,6,7
 441 669 441 669 441 627 c 128,-1,8
 441 585 441 585 434 541.5 c 128,-1,9
 427 498 427 498 416 467 c 128,-1,10
 405 436 405 436 384 413 c 0,11,12
 346 372 346 372 253.5 372 c 128,-1,13
 161 372 161 372 130 414 c 0,14,15
 110 442 110 442 110 494 c 0,16,17
 110 520 110 520 116.5 563 c 128,-1,18
 123 606 123 606 134.5 639.5 c 128,-1,19
 146 673 146 673 167.5 696 c 128,-1,20
 189 719 189 719 220 728 c 0,21,22
 252 738 252 738 303 738 c 0,4,5
179.5 627 m 128,-1,24
 169 599 169 599 162.5 557.5 c 128,-1,25
 156 516 156 516 156 496 c 128,-1,26
 156 476 156 476 160.5 462.5 c 128,-1,27
 165 449 165 449 171.5 440.5 c 128,-1,28
 178 432 178 432 192 427 c 0,29,30
 214 419 214 419 247.5 419 c 128,-1,31
 281 419 281 419 295 420.5 c 128,-1,32
 309 422 309 422 326 429 c 128,-1,33
 343 436 343 436 353 450 c 0,34,35
 377 482 377 482 385.5 535.5 c 128,-1,36
 394 589 394 589 394 614 c 128,-1,37
 394 639 394 639 389.5 654.5 c 128,-1,38
 385 670 385 670 371 678 c 0,39,40
 348 691 348 691 305 691 c 128,-1,41
 262 691 262 691 243.5 687.5 c 128,-1,42
 225 684 225 684 207.5 669.5 c 128,-1,23
 190 655 190 655 179.5 627 c 128,-1,24
EndSplineSet
Ligature2: "'ordn' Ordinals lookup 19 subtable" o
Substitution2: "'smcp' Lowercase to Small Capitals lookup 0 subtable" ordmasculine.smcp
EndChar

StartChar: guillemotright
Encoding: 187 187 124
Width: 554
GlyphClass: 2
Flags: W
LayerCount: 2
Fore
SplineSet
81 188 m 1,0,-1
 278 356 l 1,1,-1
 138 521 l 1,2,-1
 180 557 l 1,3,-1
 356 351 l 1,4,-1
 117 146 l 1,5,-1
 81 188 l 1,0,-1
272 188 m 1,6,-1
 469 356 l 1,7,-1
 329 521 l 1,8,-1
 371 557 l 1,9,-1
 547 351 l 1,10,-1
 308 146 l 1,11,-1
 272 188 l 1,6,-1
EndSplineSet
EndChar

StartChar: onequarter
Encoding: 188 188 125
Width: 909
GlyphClass: 3
Flags: W
LayerCount: 2
Fore
SplineSet
115 635 m 1,0,-1
 120 667 l 1,1,2
 156 667 156 667 193 684 c 128,-1,3
 230 701 230 701 250 717 c 1,4,-1
 269 734 l 1,5,-1
 315 734 l 1,6,-1
 239 256 l 1,7,-1
 192 256 l 1,8,-1
 259 675 l 1,9,10
 241 661 241 661 203.5 648 c 128,-1,11
 166 635 166 635 115 635 c 1,0,-1
185 0 m 1,12,-1
 746 770 l 1,13,-1
 794 770 l 1,14,-1
 232 0 l 1,15,-1
 185 0 l 1,12,-1
513 155 m 1,16,-1
 766 475 l 1,17,-1
 823 475 l 1,18,-1
 598 185 l 1,19,-1
 792 185 l 1,20,-1
 811 306 l 1,21,-1
 840 354 l 1,22,-1
 866 354 l 1,23,-1
 839 185 l 1,24,-1
 898 185 l 1,25,-1
 892 148 l 1,26,-1
 831 136 l 1,27,-1
 810 0 l 1,28,-1
 763 0 l 1,29,-1
 784 136 l 1,30,-1
 526 136 l 1,31,-1
 513 155 l 1,16,-1
EndSplineSet
Ligature2: "'frac' Diagonal Fractions lookup 6 subtable" one fraction four
Ligature2: "'frac' Diagonal Fractions lookup 6 subtable" one slash four
EndChar

StartChar: onehalf
Encoding: 189 189 126
Width: 972
GlyphClass: 3
Flags: W
LayerCount: 2
Fore
SplineSet
115 635 m 1,0,-1
 120 667 l 1,1,2
 156 667 156 667 193 684 c 128,-1,3
 230 701 230 701 250 717 c 1,4,-1
 269 734 l 1,5,-1
 315 734 l 1,6,-1
 239 256 l 1,7,-1
 192 256 l 1,8,-1
 259 675 l 1,9,10
 241 661 241 661 203.5 648 c 128,-1,11
 166 635 166 635 115 635 c 1,0,-1
162 0 m 1,12,-1
 724 770 l 1,13,-1
 771 770 l 1,14,-1
 209 0 l 1,15,-1
 162 0 l 1,12,-1
901 295.5 m 128,-1,17
 915 321 915 321 918 339.5 c 128,-1,18
 921 358 921 358 921 378 c 0,19,20
 921 435 921 435 844 435 c 2,21,-1
 670 435 l 2,22,23
 668 435 668 435 671.5 452.5 c 128,-1,24
 675 470 675 470 676 470 c 0,25,26
 779 482 779 482 860 482 c 0,27,28
 904 482 904 482 931.5 458.5 c 128,-1,29
 959 435 959 435 965 411 c 128,-1,30
 971 387 971 387 971 372 c 0,31,32
 971 318 971 318 941.5 270 c 128,-1,33
 912 222 912 222 875.5 187.5 c 128,-1,34
 839 153 839 153 806 126 c 128,-1,35
 773 99 773 99 741 76 c 128,-1,36
 709 53 709 53 703 48 c 1,37,-1
 921 48 l 1,38,-1
 913 0 l 1,39,-1
 604 0 l 1,40,-1
 611 44 l 1,41,42
 618 49 618 49 650 71 c 128,-1,43
 682 93 682 93 703 108 c 128,-1,44
 724 123 724 123 758 149 c 128,-1,45
 792 175 792 175 815 197 c 128,-1,46
 838 219 838 219 862.5 244.5 c 128,-1,16
 887 270 887 270 901 295.5 c 128,-1,17
EndSplineSet
Ligature2: "'frac' Diagonal Fractions lookup 6 subtable" one fraction two
Ligature2: "'frac' Diagonal Fractions lookup 6 subtable" one slash two
EndChar

StartChar: threequarters
Encoding: 190 190 127
Width: 1022
GlyphClass: 3
Flags: W
LayerCount: 2
Fore
SplineSet
362 414 m 0,0,1
 362 440 362 440 343.5 456.5 c 128,-1,2
 325 473 325 473 291 474 c 2,3,-1
 149 479 l 1,4,-1
 155 514 l 1,5,-1
 296 519 l 2,6,7
 335 521 335 521 361.5 539.5 c 128,-1,8
 388 558 388 558 393 590 c 1,9,-1
 396 616 l 2,10,11
 398 626 398 626 398 642.5 c 128,-1,12
 398 659 398 659 383 672.5 c 128,-1,13
 368 686 368 686 327 686 c 2,14,-1
 139 686 l 1,15,-1
 144 718 l 1,16,17
 183 730 183 730 220 731 c 0,18,19
 265 733 265 733 293 733 c 128,-1,20
 321 733 321 733 350 733 c 128,-1,21
 379 733 379 733 404 716 c 0,22,23
 445 690 445 690 445 638 c 0,24,25
 445 628 445 628 444 618 c 2,26,-1
 438 582 l 2,27,28
 432 547 432 547 410 522 c 128,-1,29
 388 497 388 497 365 490 c 1,30,31
 394 474 394 474 406 440 c 0,32,33
 410 427 410 427 410 416.5 c 128,-1,34
 410 406 410 406 409 399 c 2,35,-1
 404 370 l 2,36,37
 395 312 395 312 363 282 c 128,-1,38
 331 252 331 252 261 252 c 0,39,40
 124 252 124 252 76 268 c 1,41,-1
 82 299 l 1,42,-1
 258 299 l 2,43,44
 345 299 345 299 357 375 c 1,45,-1
 361 398 l 2,46,47
 362 406 362 406 362 414 c 0,0,1
285 0 m 1,48,-1
 847 770 l 1,49,-1
 894 770 l 1,50,-1
 333 0 l 1,51,-1
 285 0 l 1,48,-1
598 155 m 1,52,-1
 851 475 l 1,53,-1
 907 475 l 1,54,-1
 681 185 l 1,55,-1
 877 185 l 1,56,-1
 896 306 l 1,57,-1
 925 354 l 1,58,-1
 951 354 l 1,59,-1
 924 185 l 1,60,-1
 982 185 l 1,61,-1
 977 148 l 1,62,-1
 916 136 l 1,63,-1
 895 0 l 1,64,-1
 847 0 l 1,65,-1
 869 136 l 1,66,-1
 611 136 l 1,67,-1
 598 155 l 1,52,-1
EndSplineSet
Ligature2: "'frac' Diagonal Fractions lookup 6 subtable" three fraction four
Ligature2: "'frac' Diagonal Fractions lookup 6 subtable" three slash four
EndChar

StartChar: questiondown
Encoding: 191 191 128
Width: 538
GlyphClass: 2
Flags: W
LayerCount: 2
Fore
SplineSet
318 173 m 1,0,-1
 334 275 l 1,1,-1
 393 275 l 1,2,-1
 369 126 l 1,3,4
 326 127 326 127 293.5 127 c 128,-1,5
 261 127 261 127 239 126 c 0,6,7
 184 125 184 125 146 98.5 c 128,-1,8
 108 72 108 72 99 17 c 2,9,-1
 83 -85 l 2,10,11
 80 -105 80 -105 80 -125 c 0,12,13
 80 -182 80 -182 127 -201 c 0,14,15
 157 -214 157 -214 213 -214 c 2,16,-1
 477 -214 l 1,17,-1
 471 -253 l 1,18,19
 330 -270 330 -270 229 -270 c 0,20,21
 212 -270 212 -270 203 -269.5 c 128,-1,22
 194 -269 194 -269 193 -269 c 0,23,24
 94 -269 94 -269 54 -218 c 0,25,26
 23 -179 23 -179 23 -123 c 0,27,28
 23 -104 23 -104 27 -83 c 2,29,-1
 43 17 l 2,30,31
 59 120 59 120 129 155 c 0,32,33
 176 179 176 179 247 179 c 0,34,35
 280 179 280 179 318 173 c 1,0,-1
377 469 m 2,36,-1
 417 469 l 2,37,38
 426 469 426 469 431 464 c 128,-1,39
 436 459 436 459 434 450 c 2,40,-1
 425 391 l 1,41,42
 423 371 423 371 402 371 c 2,43,-1
 361 371 l 2,44,45
 345 371 345 371 345 386 c 0,46,47
 345 388 345 388 346 391 c 2,48,-1
 355 450 l 2,49,50
 357 469 357 469 377 469 c 2,36,-1
EndSplineSet
Substitution2: "'case' Case-Sensitive Forms lookup 17 subtable" questiondown.alt
Substitution2: "'smcp' Lowercase to Small Capitals lookup 0 subtable" questiondown.smcp
EndChar

StartChar: Agrave
Encoding: 192 192 129
Width: 654
GlyphClass: 2
Flags: W
LayerCount: 2
Fore
SplineSet
327 930 m 1,0,-1
 394 930 l 1,1,-1
 498 797 l 1,2,-1
 447 797 l 1,3,-1
 327 930 l 1,0,-1
45 0 m 1,4,-1
 432 732 l 1,5,-1
 492 732 l 1,6,-1
 635 0 l 1,7,-1
 577 0 l 1,8,-1
 534 220 l 1,9,-1
 225 220 l 1,10,-1
 109 0 l 1,11,-1
 45 0 l 1,4,-1
256 278 m 1,12,-1
 523 278 l 1,13,-1
 452 655 l 1,14,-1
 256 278 l 1,12,-1
EndSplineSet
Substitution2: "'c2sc' Capitals to Small Capitals in Latin lookup 1 subtable" agrave.smcp
EndChar

StartChar: Aacute
Encoding: 193 193 130
Width: 654
GlyphClass: 2
Flags: W
LayerCount: 2
Fore
SplineSet
447 797 m 1,0,-1
 580 930 l 1,1,-1
 652 930 l 1,2,-1
 498 797 l 1,3,-1
 447 797 l 1,0,-1
45 0 m 1,4,-1
 432 732 l 1,5,-1
 492 732 l 1,6,-1
 635 0 l 1,7,-1
 577 0 l 1,8,-1
 534 220 l 1,9,-1
 225 220 l 1,10,-1
 109 0 l 1,11,-1
 45 0 l 1,4,-1
256 278 m 1,12,-1
 523 278 l 1,13,-1
 452 655 l 1,14,-1
 256 278 l 1,12,-1
EndSplineSet
Substitution2: "'c2sc' Capitals to Small Capitals in Latin lookup 1 subtable" aacute.smcp
EndChar

StartChar: Acircumflex
Encoding: 194 194 131
Width: 654
GlyphClass: 2
Flags: W
LayerCount: 2
Fore
SplineSet
330 797 m 1,0,-1
 473 927 l 1,1,-1
 527 927 l 1,2,-1
 615 797 l 1,3,-1
 566 797 l 1,4,-1
 497 891 l 1,5,-1
 389 797 l 1,6,-1
 330 797 l 1,0,-1
45 0 m 1,7,-1
 432 732 l 1,8,-1
 492 732 l 1,9,-1
 635 0 l 1,10,-1
 577 0 l 1,11,-1
 534 220 l 1,12,-1
 225 220 l 1,13,-1
 109 0 l 1,14,-1
 45 0 l 1,7,-1
256 278 m 1,15,-1
 523 278 l 1,16,-1
 452 655 l 1,17,-1
 256 278 l 1,15,-1
EndSplineSet
Substitution2: "'c2sc' Capitals to Small Capitals in Latin lookup 1 subtable" acircumflex.smcp
EndChar

StartChar: Atilde
Encoding: 195 195 132
Width: 654
GlyphClass: 2
Flags: W
LayerCount: 2
Fore
SplineSet
592 865 m 128,-1,1
 626 880 626 880 640 890 c 1,2,-1
 652 860 l 1,3,4
 646 855 646 855 628.5 842.5 c 128,-1,5
 611 830 611 830 602.5 824.5 c 128,-1,6
 594 819 594 819 580 811 c 0,7,8
 531 784 531 784 489 810 c 0,9,10
 469 822 469 822 453.5 833.5 c 128,-1,11
 438 845 438 845 431 845 c 128,-1,12
 424 845 424 845 416 844.5 c 128,-1,13
 408 844 408 844 393.5 840 c 128,-1,14
 379 836 379 836 370 831.5 c 128,-1,15
 361 827 361 827 344 817.5 c 128,-1,16
 327 808 327 808 320 805 c 1,17,-1
 309 835 l 1,18,19
 361 874 361 874 387.5 885.5 c 128,-1,20
 414 897 414 897 436 896.5 c 128,-1,21
 458 896 458 896 492 873 c 256,22,23
 526 850 526 850 542 850 c 128,-1,0
 558 850 558 850 592 865 c 128,-1,1
45 0 m 1,24,-1
 432 732 l 1,25,-1
 492 732 l 1,26,-1
 635 0 l 1,27,-1
 577 0 l 1,28,-1
 534 220 l 1,29,-1
 225 220 l 1,30,-1
 109 0 l 1,31,-1
 45 0 l 1,24,-1
256 278 m 1,32,-1
 523 278 l 1,33,-1
 452 655 l 1,34,-1
 256 278 l 1,32,-1
EndSplineSet
Substitution2: "'c2sc' Capitals to Small Capitals in Latin lookup 1 subtable" atilde.smcp
EndChar

StartChar: Adieresis
Encoding: 196 196 133
Width: 654
GlyphClass: 2
Flags: W
LayerCount: 2
Fore
SplineSet
358.5 876 m 128,-1,1
 375 876 375 876 384 865 c 128,-1,2
 393 854 393 854 390.5 837 c 128,-1,3
 388 820 388 820 375 808.5 c 128,-1,4
 362 797 362 797 345.5 797 c 128,-1,5
 329 797 329 797 319 809 c 128,-1,6
 309 821 309 821 311.5 837.5 c 128,-1,7
 314 854 314 854 328 865 c 128,-1,0
 342 876 342 876 358.5 876 c 128,-1,1
613.5 876 m 128,-1,9
 630 876 630 876 638.5 866 c 128,-1,10
 647 856 647 856 647 848.5 c 128,-1,11
 647 841 647 841 645 830.5 c 128,-1,12
 643 820 643 820 630 808.5 c 128,-1,13
 617 797 617 797 600.5 797 c 128,-1,14
 584 797 584 797 574 809 c 128,-1,15
 564 821 564 821 566.5 837.5 c 128,-1,16
 569 854 569 854 583 865 c 128,-1,8
 597 876 597 876 613.5 876 c 128,-1,9
45 0 m 1,17,-1
 432 732 l 1,18,-1
 492 732 l 1,19,-1
 635 0 l 1,20,-1
 577 0 l 1,21,-1
 534 220 l 1,22,-1
 225 220 l 1,23,-1
 109 0 l 1,24,-1
 45 0 l 1,17,-1
256 278 m 1,25,-1
 523 278 l 1,26,-1
 452 655 l 1,27,-1
 256 278 l 1,25,-1
EndSplineSet
Substitution2: "'c2sc' Capitals to Small Capitals in Latin lookup 1 subtable" adieresis.smcp
EndChar

StartChar: Aring
Encoding: 197 197 134
Width: 654
GlyphClass: 2
Flags: W
LayerCount: 2
Fore
SplineSet
491 935 m 128,-1,1
 449 935 449 935 413 902.5 c 128,-1,2
 377 870 377 870 377 820 c 0,3,4
 377 785 377 785 401.5 757.5 c 128,-1,5
 426 730 426 730 468.5 730 c 128,-1,6
 511 730 511 730 546.5 762 c 128,-1,7
 582 794 582 794 582 845 c 0,8,9
 582 880 582 880 557.5 907.5 c 128,-1,0
 533 935 533 935 491 935 c 128,-1,1
429.5 784.5 m 128,-1,11
 414 802 414 802 414 829 c 128,-1,12
 414 856 414 856 439 879 c 0,13,14
 461 898 461 898 483 898 c 128,-1,15
 505 898 505 898 519 889 c 0,16,17
 545 873 545 873 545 841 c 128,-1,18
 545 809 545 809 520 786 c 0,19,20
 499 767 499 767 472 767 c 128,-1,10
 445 767 445 767 429.5 784.5 c 128,-1,11
45 0 m 1,21,-1
 432 732 l 1,22,-1
 492 732 l 1,23,-1
 635 0 l 1,24,-1
 577 0 l 1,25,-1
 534 220 l 1,26,-1
 225 220 l 1,27,-1
 109 0 l 1,28,-1
 45 0 l 1,21,-1
256 278 m 1,29,-1
 523 278 l 1,30,-1
 452 655 l 1,31,-1
 256 278 l 1,29,-1
EndSplineSet
Substitution2: "'c2sc' Capitals to Small Capitals in Latin lookup 1 subtable" aring.smcp
EndChar

StartChar: AE
Encoding: 198 198 135
Width: 912
GlyphClass: 2
Flags: W
LayerCount: 2
Fore
SplineSet
590 723 m 0,0,1
 616 730 616 730 632.5 731 c 128,-1,2
 649 732 649 732 663.5 732 c 128,-1,3
 678 732 678 732 688 732 c 2,4,-1
 988 718 l 1,5,-1
 981 674 l 1,6,-1
 678 674 l 2,7,8
 631 674 631 674 618 655 c 0,9,10
 607 640 607 640 604 623.5 c 128,-1,11
 601 607 601 607 601 606 c 0,12,13
 601 603 601 603 600 600 c 2,14,-1
 566 390 l 1,15,-1
 895 381 l 1,16,-1
 888 337 l 1,17,-1
 557 329 l 1,18,-1
 524 122 l 1,19,20
 520 108 520 108 522.5 97.5 c 128,-1,21
 525 87 525 87 526.5 79.5 c 128,-1,22
 528 72 528 72 534.5 67 c 128,-1,23
 541 62 541 62 546 59.5 c 128,-1,24
 551 57 551 57 560 55 c 0,25,26
 574 53 574 53 592 53 c 2,27,-1
 883 53 l 1,28,-1
 875 10 l 1,29,-1
 585 -4 l 2,30,31
 580 -5 580 -5 567.5 -5 c 128,-1,32
 555 -5 555 -5 534 1 c 0,33,34
 464 18 464 18 464 94 c 0,35,36
 464 107 464 107 466 121 c 2,37,-1
 484 237 l 1,38,-1
 264 237 l 1,39,-1
 97 0 l 1,40,-1
 30 0 l 1,41,-1
 449 599 l 2,42,43
 522 705 522 705 590 723 c 0,0,1
302 295 m 1,44,-1
 494 295 l 1,45,-1
 551 646 l 1,46,-1
 302 295 l 1,44,-1
EndSplineSet
EndChar

StartChar: Ccedilla
Encoding: 199 199 136
Width: 573
GlyphClass: 2
Flags: W
LayerCount: 2
Fore
SplineSet
429 740 m 0,0,1
 501 740 501 740 647 712 c 1,2,-1
 640 668 l 1,3,4
 529 683 529 683 429 683 c 0,5,6
 368 683 368 683 340 673.5 c 128,-1,7
 312 664 312 664 295.5 651 c 128,-1,8
 279 638 279 638 260 614.5 c 128,-1,9
 241 591 241 591 226 558 c 0,10,11
 193 484 193 484 179 392.5 c 128,-1,12
 165 301 165 301 165 263 c 128,-1,13
 165 225 165 225 166 204 c 1,14,15
 173 135 173 135 208 94.5 c 128,-1,16
 243 54 243 54 306 52 c 0,17,18
 318 51 318 51 363 51 c 128,-1,19
 408 51 408 51 546 61 c 1,20,-1
 540 17 l 1,21,22
 447 -6 447 -6 302 -6 c 0,23,24
 247 -6 247 -6 208 16 c 0,25,26
 105 72 105 72 105 251 c 0,27,28
 105 361 105 361 142 499 c 0,29,30
 176 622 176 622 235 678 c 1,31,32
 302 740 302 740 429 740 c 0,0,1
235 -173 m 2,33,-1
 191 -173 l 1,34,-1
 195 -146 l 1,35,-1
 243 -134 l 2,36,37
 271 -128 271 -128 285.5 -105.5 c 128,-1,38
 300 -83 300 -83 307 -37 c 1,39,-1
 358 -37 l 1,40,41
 345 -114 345 -114 320 -143.5 c 128,-1,42
 295 -173 295 -173 235 -173 c 2,33,-1
EndSplineSet
Substitution2: "'c2sc' Capitals to Small Capitals in Latin lookup 1 subtable" ccedilla.smcp
EndChar

StartChar: Egrave
Encoding: 200 200 137
Width: 565
GlyphClass: 2
Flags: W
LayerCount: 2
Fore
SplineSet
289 925 m 1,0,-1
 356 925 l 1,1,-1
 460 792 l 1,2,-1
 409 792 l 1,3,-1
 289 925 l 1,0,-1
311 732 m 0,4,5
 316 732 316 732 321 732 c 2,6,-1
 629 718 l 1,7,-1
 622 674 l 1,8,-1
 312 674 l 2,9,10
 243 674 243 674 232 602 c 2,11,-1
 198 393 l 1,12,-1
 536 385 l 1,13,-1
 529 341 l 1,14,-1
 189 332 l 1,15,-1
 156 123 l 2,16,17
 154 112 154 112 154 102.5 c 128,-1,18
 154 93 154 93 157 81.5 c 128,-1,19
 160 70 160 70 173 64 c 1,20,21
 191 54 191 54 224 54 c 2,22,-1
 524 54 l 1,23,-1
 517 12 l 1,24,-1
 214 -3 l 2,25,26
 209 -3 209 -3 204 -3 c 0,27,28
 154 -3 154 -3 124.5 22.5 c 128,-1,29
 95 48 95 48 95 94 c 0,30,31
 95 108 95 108 98 125 c 2,32,-1
 174 604 l 2,33,34
 195 732 195 732 311 732 c 0,4,5
EndSplineSet
Substitution2: "'c2sc' Capitals to Small Capitals in Latin lookup 1 subtable" egrave.smcp
EndChar

StartChar: Eacute
Encoding: 201 201 138
Width: 565
GlyphClass: 2
Flags: W
LayerCount: 2
Fore
SplineSet
401 792 m 1,0,-1
 534 925 l 1,1,-1
 606 925 l 1,2,-1
 452 792 l 1,3,-1
 401 792 l 1,0,-1
311 732 m 0,4,5
 316 732 316 732 321 732 c 2,6,-1
 629 718 l 1,7,-1
 622 674 l 1,8,-1
 312 674 l 2,9,10
 243 674 243 674 232 602 c 2,11,-1
 198 393 l 1,12,-1
 536 385 l 1,13,-1
 529 341 l 1,14,-1
 189 332 l 1,15,-1
 156 123 l 2,16,17
 154 112 154 112 154 102.5 c 128,-1,18
 154 93 154 93 157 81.5 c 128,-1,19
 160 70 160 70 173 64 c 1,20,21
 191 54 191 54 224 54 c 2,22,-1
 524 54 l 1,23,-1
 517 12 l 1,24,-1
 214 -3 l 2,25,26
 209 -3 209 -3 204 -3 c 0,27,28
 154 -3 154 -3 124.5 22.5 c 128,-1,29
 95 48 95 48 95 94 c 0,30,31
 95 108 95 108 98 125 c 2,32,-1
 174 604 l 2,33,34
 195 732 195 732 311 732 c 0,4,5
EndSplineSet
Substitution2: "'c2sc' Capitals to Small Capitals in Latin lookup 1 subtable" eacute.smcp
EndChar

StartChar: Ecircumflex
Encoding: 202 202 139
Width: 565
GlyphClass: 2
Flags: W
LayerCount: 2
Fore
SplineSet
288 792 m 1,0,-1
 431 923 l 1,1,-1
 485 923 l 1,2,-1
 573 792 l 1,3,-1
 522 792 l 1,4,-1
 456 884 l 1,5,-1
 350 792 l 1,6,-1
 288 792 l 1,0,-1
311 732 m 0,7,8
 316 732 316 732 321 732 c 2,9,-1
 629 718 l 1,10,-1
 622 674 l 1,11,-1
 312 674 l 2,12,13
 243 674 243 674 232 602 c 2,14,-1
 198 393 l 1,15,-1
 536 385 l 1,16,-1
 529 341 l 1,17,-1
 189 332 l 1,18,-1
 156 123 l 2,19,20
 154 112 154 112 154 102.5 c 128,-1,21
 154 93 154 93 157 81.5 c 128,-1,22
 160 70 160 70 173 64 c 1,23,24
 191 54 191 54 224 54 c 2,25,-1
 524 54 l 1,26,-1
 517 12 l 1,27,-1
 214 -3 l 2,28,29
 209 -3 209 -3 204 -3 c 0,30,31
 154 -3 154 -3 124.5 22.5 c 128,-1,32
 95 48 95 48 95 94 c 0,33,34
 95 108 95 108 98 125 c 2,35,-1
 174 604 l 2,36,37
 195 732 195 732 311 732 c 0,7,8
EndSplineSet
Substitution2: "'c2sc' Capitals to Small Capitals in Latin lookup 1 subtable" ecircumflex.smcp
EndChar

StartChar: Edieresis
Encoding: 203 203 140
Width: 565
GlyphClass: 2
Flags: W
LayerCount: 2
Fore
SplineSet
294 879 m 128,-1,1
 302 882 302 882 311.5 882 c 128,-1,2
 321 882 321 882 329 877 c 0,3,4
 346 866 346 866 343 846 c 128,-1,5
 340 826 340 826 327 814.5 c 128,-1,6
 314 803 314 803 297.5 803 c 128,-1,7
 281 803 281 803 271 814.5 c 128,-1,8
 261 826 261 826 263 838.5 c 128,-1,9
 265 851 265 851 269.5 858.5 c 128,-1,10
 274 866 274 866 280 871 c 128,-1,0
 286 876 286 876 294 879 c 128,-1,1
565 882 m 128,-1,12
 576 882 576 882 584 877 c 0,13,14
 601 866 601 866 598 846 c 128,-1,15
 595 826 595 826 582 814.5 c 128,-1,16
 569 803 569 803 552.5 803 c 128,-1,17
 536 803 536 803 526 814.5 c 128,-1,18
 516 826 516 826 518 840 c 128,-1,19
 520 854 520 854 527 863 c 128,-1,20
 534 872 534 872 544 877 c 128,-1,11
 554 882 554 882 565 882 c 128,-1,12
311 732 m 0,21,22
 316 732 316 732 321 732 c 2,23,-1
 629 718 l 1,24,-1
 622 674 l 1,25,-1
 312 674 l 2,26,27
 243 674 243 674 232 602 c 2,28,-1
 198 393 l 1,29,-1
 536 385 l 1,30,-1
 529 341 l 1,31,-1
 189 332 l 1,32,-1
 156 123 l 2,33,34
 154 112 154 112 154 102.5 c 128,-1,35
 154 93 154 93 157 81.5 c 128,-1,36
 160 70 160 70 173 64 c 1,37,38
 191 54 191 54 224 54 c 2,39,-1
 524 54 l 1,40,-1
 517 12 l 1,41,-1
 214 -3 l 2,42,43
 209 -3 209 -3 204 -3 c 0,44,45
 154 -3 154 -3 124.5 22.5 c 128,-1,46
 95 48 95 48 95 94 c 0,47,48
 95 108 95 108 98 125 c 2,49,-1
 174 604 l 2,50,51
 195 732 195 732 311 732 c 0,21,22
EndSplineSet
Substitution2: "'c2sc' Capitals to Small Capitals in Latin lookup 1 subtable" edieresis.smcp
EndChar

StartChar: Igrave
Encoding: 204 204 141
Width: 214
GlyphClass: 2
Flags: W
LayerCount: 2
Fore
SplineSet
100 930 m 1,0,-1
 167 930 l 1,1,-1
 271 797 l 1,2,-1
 220 797 l 1,3,-1
 100 930 l 1,0,-1
90 0 m 1,4,-1
 206 732 l 1,5,-1
 264 732 l 1,6,-1
 148 0 l 1,7,-1
 90 0 l 1,4,-1
EndSplineSet
Substitution2: "'c2sc' Capitals to Small Capitals in Latin lookup 1 subtable" igrave.smcp
EndChar

StartChar: Iacute
Encoding: 205 205 142
Width: 214
GlyphClass: 2
Flags: W
LayerCount: 2
Fore
SplineSet
220 797 m 1,0,-1
 352 930 l 1,1,-1
 425 930 l 1,2,-1
 271 797 l 1,3,-1
 220 797 l 1,0,-1
90 0 m 1,4,-1
 206 732 l 1,5,-1
 264 732 l 1,6,-1
 148 0 l 1,7,-1
 90 0 l 1,4,-1
EndSplineSet
Substitution2: "'c2sc' Capitals to Small Capitals in Latin lookup 1 subtable" iacute.smcp
EndChar

StartChar: Icircumflex
Encoding: 206 206 143
Width: 214
GlyphClass: 2
Flags: W
LayerCount: 2
Fore
SplineSet
103 797 m 1,0,-1
 245 927 l 1,1,-1
 300 927 l 1,2,-1
 388 797 l 1,3,-1
 339 797 l 1,4,-1
 270 891 l 1,5,-1
 162 797 l 1,6,-1
 103 797 l 1,0,-1
90 0 m 1,7,-1
 206 732 l 1,8,-1
 264 732 l 1,9,-1
 148 0 l 1,10,-1
 90 0 l 1,7,-1
EndSplineSet
Substitution2: "'c2sc' Capitals to Small Capitals in Latin lookup 1 subtable" icircumflex.smcp
EndChar

StartChar: Idieresis
Encoding: 207 207 144
Width: 214
GlyphClass: 2
Flags: W
LayerCount: 2
Fore
SplineSet
100.5 865 m 128,-1,1
 114 876 114 876 128 876 c 128,-1,2
 142 876 142 876 150 871 c 0,3,4
 167 860 167 860 164 840 c 128,-1,5
 161 820 161 820 148 808.5 c 128,-1,6
 135 797 135 797 118.5 797 c 128,-1,7
 102 797 102 797 93 807.5 c 128,-1,8
 84 818 84 818 84 826 c 128,-1,9
 84 834 84 834 85.5 844 c 128,-1,0
 87 854 87 854 100.5 865 c 128,-1,1
355.5 865 m 128,-1,11
 369 876 369 876 383 876 c 0,12,13
 409 876 409 876 417 857 c 0,14,15
 419 851 419 851 419 845.5 c 128,-1,16
 419 840 419 840 417.5 830 c 128,-1,17
 416 820 416 820 403 808.5 c 128,-1,18
 390 797 390 797 373.5 797 c 128,-1,19
 357 797 357 797 347 809 c 128,-1,20
 337 821 337 821 339.5 837.5 c 128,-1,10
 342 854 342 854 355.5 865 c 128,-1,11
90 0 m 1,21,-1
 206 732 l 1,22,-1
 264 732 l 1,23,-1
 148 0 l 1,24,-1
 90 0 l 1,21,-1
EndSplineSet
Substitution2: "'c2sc' Capitals to Small Capitals in Latin lookup 1 subtable" idieresis.smcp
EndChar

StartChar: Eth
Encoding: 208 208 145
Width: 673
GlyphClass: 2
Flags: W
LayerCount: 2
Fore
SplineSet
461 732 m 0,0,1
 515 732 515 732 556 714 c 128,-1,2
 597 696 597 696 619 664 c 1,3,4
 667 598 667 598 672 515 c 0,5,6
 674 491 674 491 674 471 c 0,7,8
 674 342 674 342 625 217 c 0,9,10
 541 0 541 0 347 0 c 2,11,-1
 79 0 l 1,12,-1
 135 353 l 1,13,-1
 70 353 l 1,14,-1
 77 393 l 1,15,-1
 142 393 l 1,16,-1
 195 731 l 2,17,18
 195 732 195 732 461 732 c 0,0,1
616 477 m 0,19,20
 616 675 616 675 451 675 c 2,21,-1
 243 675 l 1,22,-1
 199 393 l 1,23,-1
 345 393 l 1,24,-1
 338 353 l 1,25,-1
 192 353 l 1,26,-1
 146 60 l 1,27,-1
 355 60 l 2,28,29
 477 60 477 60 549 193 c 0,30,31
 590 267 590 267 603 347 c 128,-1,32
 616 427 616 427 616 477 c 0,19,20
EndSplineSet
Substitution2: "'c2sc' Capitals to Small Capitals in Latin lookup 1 subtable" eth.smcp
EndChar

StartChar: Ntilde
Encoding: 209 209 146
Width: 654
GlyphClass: 2
Flags: W
LayerCount: 2
Fore
SplineSet
575 861.5 m 128,-1,1
 609 877 609 877 624 887 c 1,2,-1
 635 856 l 1,3,4
 629 852 629 852 611.5 839.5 c 128,-1,5
 594 827 594 827 586 821.5 c 128,-1,6
 578 816 578 816 564 808 c 0,7,8
 514 780 514 780 472 806 c 0,9,10
 453 818 453 818 437 829.5 c 128,-1,11
 421 841 421 841 414 841 c 128,-1,12
 407 841 407 841 399.5 841 c 128,-1,13
 392 841 392 841 377 836.5 c 128,-1,14
 362 832 362 832 353.5 828 c 128,-1,15
 345 824 345 824 328 814.5 c 128,-1,16
 311 805 311 805 304 801 c 1,17,-1
 292 831 l 1,18,19
 345 870 345 870 371 881.5 c 128,-1,20
 397 893 397 893 419 892.5 c 128,-1,21
 441 892 441 892 475 870 c 1,22,23
 509 846 509 846 525 846 c 128,-1,0
 541 846 541 846 575 861.5 c 128,-1,1
80 0 m 1,24,-1
 196 732 l 1,25,-1
 252 732 l 1,26,-1
 548 107 l 1,27,-1
 648 732 l 1,28,-1
 705 732 l 1,29,-1
 589 0 l 1,30,-1
 534 0 l 1,31,-1
 237 626 l 1,32,-1
 138 0 l 1,33,-1
 80 0 l 1,24,-1
EndSplineSet
AlternateSubs2: "'salt' Stylistic Alternatives in Latin lookup 15 subtable" Ntilde.salt
Substitution2: "'c2sc' Capitals to Small Capitals in Latin lookup 1 subtable" ntilde.smcp
EndChar

StartChar: Ograve
Encoding: 210 210 147
Width: 672
GlyphClass: 2
Flags: W
LayerCount: 2
Fore
SplineSet
312 930 m 1,0,-1
 379 930 l 1,1,-1
 483 797 l 1,2,-1
 432 797 l 1,3,-1
 312 930 l 1,0,-1
385 735 m 128,-1,5
 411 737 411 737 449.5 737 c 128,-1,6
 488 737 488 737 517.5 733.5 c 128,-1,7
 547 730 547 730 576.5 720.5 c 128,-1,8
 606 711 606 711 625 694 c 0,9,10
 670 653 670 653 681 580 c 0,11,12
 685 550 685 550 685 524 c 0,13,14
 685 389 685 389 651 250 c 0,15,16
 617 110 617 110 554 56 c 0,17,18
 510 18 510 18 471 10 c 0,19,20
 378 -11 378 -11 274 -1 c 0,21,22
 201 6 201 6 166 36 c 0,23,24
 119 75 119 75 108 145 c 0,25,26
 103 176 103 176 103 201.5 c 128,-1,27
 103 227 103 227 104 260 c 128,-1,28
 105 293 105 293 115.5 360 c 128,-1,29
 126 427 126 427 138.5 478 c 128,-1,30
 151 529 151 529 166.5 566.5 c 128,-1,31
 182 604 182 604 198.5 632 c 128,-1,32
 215 660 215 660 237 679 c 128,-1,33
 259 698 259 698 280 709.5 c 128,-1,34
 301 721 301 721 330 727 c 128,-1,4
 359 733 359 733 385 735 c 128,-1,5
200.5 493 m 128,-1,36
 186 438 186 438 172.5 354 c 128,-1,37
 159 270 159 270 159 227.5 c 128,-1,38
 159 185 159 185 165 156 c 128,-1,39
 171 127 171 127 183.5 106 c 128,-1,40
 196 85 196 85 221 73 c 0,41,42
 262 54 262 54 328 54 c 128,-1,43
 394 54 394 54 428 60.5 c 128,-1,44
 462 67 462 67 493.5 85.5 c 128,-1,45
 525 104 525 104 546 139 c 0,46,47
 591 211 591 211 615 361 c 0,48,49
 629 450 629 450 629 520 c 0,50,51
 629 574 629 574 609 620 c 0,52,53
 597 647 597 647 560 665 c 0,54,55
 538 676 538 676 504.5 678 c 128,-1,56
 471 680 471 680 436.5 680 c 128,-1,57
 402 680 402 680 379 677.5 c 128,-1,58
 356 675 356 675 324.5 666 c 128,-1,59
 293 657 293 657 275 637 c 128,-1,60
 257 617 257 617 236 582.5 c 128,-1,35
 215 548 215 548 200.5 493 c 128,-1,36
EndSplineSet
Substitution2: "'c2sc' Capitals to Small Capitals in Latin lookup 1 subtable" ograve.smcp
EndChar

StartChar: Oacute
Encoding: 211 211 148
Width: 672
GlyphClass: 2
Flags: W
LayerCount: 2
Fore
SplineSet
432 797 m 1,0,-1
 565 930 l 1,1,-1
 637 930 l 1,2,-1
 483 797 l 1,3,-1
 432 797 l 1,0,-1
385 735 m 128,-1,5
 411 737 411 737 449.5 737 c 128,-1,6
 488 737 488 737 517.5 733.5 c 128,-1,7
 547 730 547 730 576.5 720.5 c 128,-1,8
 606 711 606 711 625 694 c 0,9,10
 670 653 670 653 681 580 c 0,11,12
 685 550 685 550 685 524 c 0,13,14
 685 389 685 389 651 250 c 0,15,16
 617 110 617 110 554 56 c 0,17,18
 510 18 510 18 471 10 c 0,19,20
 378 -11 378 -11 274 -1 c 0,21,22
 201 6 201 6 166 36 c 0,23,24
 119 75 119 75 108 145 c 0,25,26
 103 176 103 176 103 201.5 c 128,-1,27
 103 227 103 227 104 260 c 128,-1,28
 105 293 105 293 115.5 360 c 128,-1,29
 126 427 126 427 138.5 478 c 128,-1,30
 151 529 151 529 166.5 566.5 c 128,-1,31
 182 604 182 604 198.5 632 c 128,-1,32
 215 660 215 660 237 679 c 128,-1,33
 259 698 259 698 280 709.5 c 128,-1,34
 301 721 301 721 330 727 c 128,-1,4
 359 733 359 733 385 735 c 128,-1,5
200.5 493 m 128,-1,36
 186 438 186 438 172.5 354 c 128,-1,37
 159 270 159 270 159 227.5 c 128,-1,38
 159 185 159 185 165 156 c 128,-1,39
 171 127 171 127 183.5 106 c 128,-1,40
 196 85 196 85 221 73 c 0,41,42
 262 54 262 54 328 54 c 128,-1,43
 394 54 394 54 428 60.5 c 128,-1,44
 462 67 462 67 493.5 85.5 c 128,-1,45
 525 104 525 104 546 139 c 0,46,47
 591 211 591 211 615 361 c 0,48,49
 629 450 629 450 629 520 c 0,50,51
 629 574 629 574 609 620 c 0,52,53
 597 647 597 647 560 665 c 0,54,55
 538 676 538 676 504.5 678 c 128,-1,56
 471 680 471 680 436.5 680 c 128,-1,57
 402 680 402 680 379 677.5 c 128,-1,58
 356 675 356 675 324.5 666 c 128,-1,59
 293 657 293 657 275 637 c 128,-1,60
 257 617 257 617 236 582.5 c 128,-1,35
 215 548 215 548 200.5 493 c 128,-1,36
EndSplineSet
Substitution2: "'c2sc' Capitals to Small Capitals in Latin lookup 1 subtable" oacute.smcp
EndChar

StartChar: Ocircumflex
Encoding: 212 212 149
Width: 672
GlyphClass: 2
Flags: W
LayerCount: 2
Fore
SplineSet
315 797 m 1,0,-1
 458 927 l 1,1,-1
 512 927 l 1,2,-1
 600 797 l 1,3,-1
 551 797 l 1,4,-1
 482 891 l 1,5,-1
 374 797 l 1,6,-1
 315 797 l 1,0,-1
385 735 m 128,-1,8
 411 737 411 737 449.5 737 c 128,-1,9
 488 737 488 737 517.5 733.5 c 128,-1,10
 547 730 547 730 576.5 720.5 c 128,-1,11
 606 711 606 711 625 694 c 0,12,13
 670 653 670 653 681 580 c 0,14,15
 685 550 685 550 685 524 c 0,16,17
 685 389 685 389 651 250 c 0,18,19
 617 110 617 110 554 56 c 0,20,21
 510 18 510 18 471 10 c 0,22,23
 378 -11 378 -11 274 -1 c 0,24,25
 201 6 201 6 166 36 c 0,26,27
 119 75 119 75 108 145 c 0,28,29
 103 176 103 176 103 201.5 c 128,-1,30
 103 227 103 227 104 260 c 128,-1,31
 105 293 105 293 115.5 360 c 128,-1,32
 126 427 126 427 138.5 478 c 128,-1,33
 151 529 151 529 166.5 566.5 c 128,-1,34
 182 604 182 604 198.5 632 c 128,-1,35
 215 660 215 660 237 679 c 128,-1,36
 259 698 259 698 280 709.5 c 128,-1,37
 301 721 301 721 330 727 c 128,-1,7
 359 733 359 733 385 735 c 128,-1,8
200.5 493 m 128,-1,39
 186 438 186 438 172.5 354 c 128,-1,40
 159 270 159 270 159 227.5 c 128,-1,41
 159 185 159 185 165 156 c 128,-1,42
 171 127 171 127 183.5 106 c 128,-1,43
 196 85 196 85 221 73 c 0,44,45
 262 54 262 54 328 54 c 128,-1,46
 394 54 394 54 428 60.5 c 128,-1,47
 462 67 462 67 493.5 85.5 c 128,-1,48
 525 104 525 104 546 139 c 0,49,50
 591 211 591 211 615 361 c 0,51,52
 629 450 629 450 629 520 c 0,53,54
 629 574 629 574 609 620 c 0,55,56
 597 647 597 647 560 665 c 0,57,58
 538 676 538 676 504.5 678 c 128,-1,59
 471 680 471 680 436.5 680 c 128,-1,60
 402 680 402 680 379 677.5 c 128,-1,61
 356 675 356 675 324.5 666 c 128,-1,62
 293 657 293 657 275 637 c 128,-1,63
 257 617 257 617 236 582.5 c 128,-1,38
 215 548 215 548 200.5 493 c 128,-1,39
EndSplineSet
Substitution2: "'c2sc' Capitals to Small Capitals in Latin lookup 1 subtable" ocircumflex.smcp
EndChar

StartChar: Otilde
Encoding: 213 213 150
Width: 672
GlyphClass: 2
Flags: W
LayerCount: 2
Fore
SplineSet
577 865 m 128,-1,1
 611 880 611 880 625 890 c 1,2,-1
 637 860 l 1,3,4
 630 855 630 855 616.5 845.5 c 128,-1,5
 603 836 603 836 595.5 830.5 c 128,-1,6
 588 825 588 825 576.5 818 c 128,-1,7
 565 811 565 811 556 807 c 0,8,9
 506 785 506 785 465 815 c 0,10,11
 455 822 455 822 446 828 c 0,12,13
 425 845 425 845 410.5 844.5 c 128,-1,14
 396 844 396 844 385 842 c 128,-1,15
 374 840 374 840 363.5 835.5 c 128,-1,16
 353 831 353 831 345 826.5 c 128,-1,17
 337 822 337 822 325 815 c 128,-1,18
 313 808 313 808 305 805 c 1,19,-1
 294 835 l 1,20,21
 346 874 346 874 372.5 885.5 c 128,-1,22
 399 897 399 897 421 896.5 c 128,-1,23
 443 896 443 896 476 873 c 1,24,25
 511 850 511 850 527 850 c 128,-1,0
 543 850 543 850 577 865 c 128,-1,1
385 735 m 128,-1,27
 411 737 411 737 449.5 737 c 128,-1,28
 488 737 488 737 517.5 733.5 c 128,-1,29
 547 730 547 730 576.5 720.5 c 128,-1,30
 606 711 606 711 625 694 c 0,31,32
 670 653 670 653 681 580 c 0,33,34
 685 550 685 550 685 524 c 0,35,36
 685 389 685 389 651 250 c 0,37,38
 617 110 617 110 554 56 c 0,39,40
 510 18 510 18 471 10 c 0,41,42
 378 -11 378 -11 274 -1 c 0,43,44
 201 6 201 6 166 36 c 0,45,46
 119 75 119 75 108 145 c 0,47,48
 103 176 103 176 103 201.5 c 128,-1,49
 103 227 103 227 104 260 c 128,-1,50
 105 293 105 293 115.5 360 c 128,-1,51
 126 427 126 427 138.5 478 c 128,-1,52
 151 529 151 529 166.5 566.5 c 128,-1,53
 182 604 182 604 198.5 632 c 128,-1,54
 215 660 215 660 237 679 c 128,-1,55
 259 698 259 698 280 709.5 c 128,-1,56
 301 721 301 721 330 727 c 128,-1,26
 359 733 359 733 385 735 c 128,-1,27
200.5 493 m 128,-1,58
 186 438 186 438 172.5 354 c 128,-1,59
 159 270 159 270 159 227.5 c 128,-1,60
 159 185 159 185 165 156 c 128,-1,61
 171 127 171 127 183.5 106 c 128,-1,62
 196 85 196 85 221 73 c 0,63,64
 262 54 262 54 328 54 c 128,-1,65
 394 54 394 54 428 60.5 c 128,-1,66
 462 67 462 67 493.5 85.5 c 128,-1,67
 525 104 525 104 546 139 c 0,68,69
 591 211 591 211 615 361 c 0,70,71
 629 450 629 450 629 520 c 0,72,73
 629 574 629 574 609 620 c 0,74,75
 597 647 597 647 560 665 c 0,76,77
 538 676 538 676 504.5 678 c 128,-1,78
 471 680 471 680 436.5 680 c 128,-1,79
 402 680 402 680 379 677.5 c 128,-1,80
 356 675 356 675 324.5 666 c 128,-1,81
 293 657 293 657 275 637 c 128,-1,82
 257 617 257 617 236 582.5 c 128,-1,57
 215 548 215 548 200.5 493 c 128,-1,58
EndSplineSet
Substitution2: "'c2sc' Capitals to Small Capitals in Latin lookup 1 subtable" otilde.smcp
EndChar

StartChar: Odieresis
Encoding: 214 214 151
Width: 672
GlyphClass: 2
Flags: W
LayerCount: 2
Fore
SplineSet
343 876 m 128,-1,1
 360 876 360 876 369 865 c 128,-1,2
 378 854 378 854 375.5 837 c 128,-1,3
 373 820 373 820 360 808.5 c 128,-1,4
 347 797 347 797 330.5 797 c 128,-1,5
 314 797 314 797 304 809 c 128,-1,6
 294 821 294 821 296.5 837.5 c 128,-1,7
 299 854 299 854 312.5 865 c 128,-1,0
 326 876 326 876 343 876 c 128,-1,1
598 876 m 128,-1,9
 615 876 615 876 624 865 c 128,-1,10
 633 854 633 854 630.5 837 c 128,-1,11
 628 820 628 820 615 808.5 c 128,-1,12
 602 797 602 797 585.5 797 c 128,-1,13
 569 797 569 797 559 809 c 128,-1,14
 549 821 549 821 551.5 837.5 c 128,-1,15
 554 854 554 854 567.5 865 c 128,-1,8
 581 876 581 876 598 876 c 128,-1,9
385 735 m 128,-1,17
 411 737 411 737 449.5 737 c 128,-1,18
 488 737 488 737 517.5 733.5 c 128,-1,19
 547 730 547 730 576.5 720.5 c 128,-1,20
 606 711 606 711 625 694 c 0,21,22
 670 653 670 653 681 580 c 0,23,24
 685 550 685 550 685 524 c 0,25,26
 685 389 685 389 651 250 c 0,27,28
 617 110 617 110 554 56 c 0,29,30
 510 18 510 18 471 10 c 0,31,32
 378 -11 378 -11 274 -1 c 0,33,34
 201 6 201 6 166 36 c 0,35,36
 119 75 119 75 108 145 c 0,37,38
 103 176 103 176 103 201.5 c 128,-1,39
 103 227 103 227 104 260 c 128,-1,40
 105 293 105 293 115.5 360 c 128,-1,41
 126 427 126 427 138.5 478 c 128,-1,42
 151 529 151 529 166.5 566.5 c 128,-1,43
 182 604 182 604 198.5 632 c 128,-1,44
 215 660 215 660 237 679 c 128,-1,45
 259 698 259 698 280 709.5 c 128,-1,46
 301 721 301 721 330 727 c 128,-1,16
 359 733 359 733 385 735 c 128,-1,17
200.5 493 m 128,-1,48
 186 438 186 438 172.5 354 c 128,-1,49
 159 270 159 270 159 227.5 c 128,-1,50
 159 185 159 185 165 156 c 128,-1,51
 171 127 171 127 183.5 106 c 128,-1,52
 196 85 196 85 221 73 c 0,53,54
 262 54 262 54 328 54 c 128,-1,55
 394 54 394 54 428 60.5 c 128,-1,56
 462 67 462 67 493.5 85.5 c 128,-1,57
 525 104 525 104 546 139 c 0,58,59
 591 211 591 211 615 361 c 0,60,61
 629 450 629 450 629 520 c 0,62,63
 629 574 629 574 609 620 c 0,64,65
 597 647 597 647 560 665 c 0,66,67
 538 676 538 676 504.5 678 c 128,-1,68
 471 680 471 680 436.5 680 c 128,-1,69
 402 680 402 680 379 677.5 c 128,-1,70
 356 675 356 675 324.5 666 c 128,-1,71
 293 657 293 657 275 637 c 128,-1,72
 257 617 257 617 236 582.5 c 128,-1,47
 215 548 215 548 200.5 493 c 128,-1,48
EndSplineSet
Substitution2: "'c2sc' Capitals to Small Capitals in Latin lookup 1 subtable" odieresis.smcp
EndChar

StartChar: multiply
Encoding: 215 215 152
Width: 453
GlyphClass: 2
Flags: W
LayerCount: 2
Fore
SplineSet
93 234 m 1,0,-1
 235 357 l 1,1,-1
 133 479 l 1,2,-1
 176 516 l 1,3,-1
 278 394 l 1,4,-1
 426 521 l 1,5,-1
 461 479 l 1,6,-1
 314 352 l 1,7,-1
 418 229 l 1,8,-1
 374 192 l 1,9,-1
 271 315 l 1,10,-1
 128 192 l 1,11,-1
 93 234 l 1,0,-1
EndSplineSet
EndChar

StartChar: Oslash
Encoding: 216 216 153
Width: 672
GlyphClass: 2
Flags: W
LayerCount: 2
Fore
SplineSet
131 72 m 1,0,1
 101 121 101 121 101 200 c 128,-1,2
 101 279 101 279 113 357 c 128,-1,3
 125 435 125 435 140.5 491 c 128,-1,4
 156 547 156 547 172.5 586.5 c 128,-1,5
 189 626 189 626 212 653.5 c 128,-1,6
 235 681 235 681 257.5 697.5 c 128,-1,7
 280 714 280 714 312 723 c 0,8,9
 364 737 364 737 436.5 737 c 128,-1,10
 509 737 509 737 553.5 727 c 128,-1,11
 598 717 598 717 627 690 c 1,12,-1
 661 732 l 1,13,-1
 707 732 l 1,14,-1
 651 662 l 1,15,16
 683 610 683 610 683 509 c 0,17,18
 683 444 683 444 670.5 361.5 c 128,-1,19
 658 279 658 279 641 220 c 128,-1,20
 624 161 624 161 601 121 c 128,-1,21
 578 81 578 81 553 56 c 128,-1,22
 528 31 528 31 492 18 c 0,23,24
 432 -4 432 -4 353 -4 c 128,-1,25
 274 -4 274 -4 229.5 5.5 c 128,-1,26
 185 15 185 15 156 43 c 1,27,-1
 121 0 l 1,28,-1
 74 0 l 1,29,-1
 131 72 l 1,0,1
198.5 493 m 128,-1,31
 184 438 184 438 171 357.5 c 128,-1,32
 158 277 158 277 158 217 c 128,-1,33
 158 157 158 157 173 123 c 1,34,-1
 590 644 l 1,35,36
 568 667 568 667 534 673.5 c 128,-1,37
 500 680 500 680 450 680 c 128,-1,38
 400 680 400 680 377 677.5 c 128,-1,39
 354 675 354 675 322.5 666 c 128,-1,40
 291 657 291 657 273 637 c 128,-1,41
 255 617 255 617 234 582.5 c 128,-1,30
 213 548 213 548 198.5 493 c 128,-1,31
280 56 m 1,42,43
 307 54 307 54 350 54 c 128,-1,44
 393 54 393 54 427 60.5 c 128,-1,45
 461 67 461 67 492 85.5 c 128,-1,46
 523 104 523 104 544 139 c 0,47,48
 589 211 589 211 613 361 c 1,49,50
 626 449 626 449 626 512.5 c 128,-1,51
 626 576 626 576 611 611 c 1,52,-1
 194 91 l 1,53,54
 221 63 221 63 280 56 c 1,42,43
EndSplineSet
Substitution2: "'c2sc' Capitals to Small Capitals in Latin lookup 1 subtable" oslash.smcp
EndChar

StartChar: Ugrave
Encoding: 217 217 154
Width: 664
GlyphClass: 2
Flags: W
LayerCount: 2
Fore
SplineSet
317 930 m 1,0,-1
 384 930 l 1,1,-1
 488 797 l 1,2,-1
 437 797 l 1,3,-1
 317 930 l 1,0,-1
186 308 m 1,4,5
 177 245 177 245 177 205.5 c 128,-1,6
 177 166 177 166 184 139.5 c 128,-1,7
 191 113 191 113 203.5 95.5 c 128,-1,8
 216 78 216 78 239 68 c 0,9,10
 277 53 277 53 335.5 52.5 c 128,-1,11
 394 52 394 52 430 62.5 c 128,-1,12
 466 73 466 73 498 100 c 0,13,14
 559 152 559 152 584 308 c 2,15,-1
 651 732 l 1,16,-1
 709 732 l 1,17,-1
 642 308 l 2,18,19
 629 228 629 228 609 173 c 128,-1,20
 589 118 589 118 555 76 c 0,21,22
 488 -5 488 -5 339 -5 c 0,23,24
 229 -5 229 -5 178 37 c 0,25,26
 119 87 119 87 119 203 c 0,27,28
 119 250 119 250 128 308 c 2,29,-1
 195 732 l 1,30,-1
 254 732 l 1,31,-1
 186 308 l 1,4,5
EndSplineSet
Substitution2: "'c2sc' Capitals to Small Capitals in Latin lookup 1 subtable" ugrave.smcp
EndChar

StartChar: Uacute
Encoding: 218 218 155
Width: 664
GlyphClass: 2
Flags: W
LayerCount: 2
Fore
SplineSet
437 797 m 1,0,-1
 570 930 l 1,1,-1
 642 930 l 1,2,-1
 488 797 l 1,3,-1
 437 797 l 1,0,-1
186 308 m 1,4,5
 177 245 177 245 177 205.5 c 128,-1,6
 177 166 177 166 184 139.5 c 128,-1,7
 191 113 191 113 203.5 95.5 c 128,-1,8
 216 78 216 78 239 68 c 0,9,10
 277 53 277 53 335.5 52.5 c 128,-1,11
 394 52 394 52 430 62.5 c 128,-1,12
 466 73 466 73 498 100 c 0,13,14
 559 152 559 152 584 308 c 2,15,-1
 651 732 l 1,16,-1
 709 732 l 1,17,-1
 642 308 l 2,18,19
 629 228 629 228 609 173 c 128,-1,20
 589 118 589 118 555 76 c 0,21,22
 488 -5 488 -5 339 -5 c 0,23,24
 229 -5 229 -5 178 37 c 0,25,26
 119 87 119 87 119 203 c 0,27,28
 119 250 119 250 128 308 c 2,29,-1
 195 732 l 1,30,-1
 254 732 l 1,31,-1
 186 308 l 1,4,5
EndSplineSet
Substitution2: "'c2sc' Capitals to Small Capitals in Latin lookup 1 subtable" uacute.smcp
EndChar

StartChar: Ucircumflex
Encoding: 219 219 156
Width: 664
GlyphClass: 2
Flags: W
LayerCount: 2
Fore
SplineSet
320 797 m 1,0,-1
 463 927 l 1,1,-1
 517 927 l 1,2,-1
 605 797 l 1,3,-1
 556 797 l 1,4,-1
 487 891 l 1,5,-1
 379 797 l 1,6,-1
 320 797 l 1,0,-1
186 308 m 1,7,8
 177 245 177 245 177 205.5 c 128,-1,9
 177 166 177 166 184 139.5 c 128,-1,10
 191 113 191 113 203.5 95.5 c 128,-1,11
 216 78 216 78 239 68 c 0,12,13
 277 53 277 53 335.5 52.5 c 128,-1,14
 394 52 394 52 430 62.5 c 128,-1,15
 466 73 466 73 498 100 c 0,16,17
 559 152 559 152 584 308 c 2,18,-1
 651 732 l 1,19,-1
 709 732 l 1,20,-1
 642 308 l 2,21,22
 629 228 629 228 609 173 c 128,-1,23
 589 118 589 118 555 76 c 0,24,25
 488 -5 488 -5 339 -5 c 0,26,27
 229 -5 229 -5 178 37 c 0,28,29
 119 87 119 87 119 203 c 0,30,31
 119 250 119 250 128 308 c 2,32,-1
 195 732 l 1,33,-1
 254 732 l 1,34,-1
 186 308 l 1,7,8
EndSplineSet
Substitution2: "'c2sc' Capitals to Small Capitals in Latin lookup 1 subtable" ucircumflex.smcp
EndChar

StartChar: Udieresis
Encoding: 220 220 157
Width: 664
GlyphClass: 2
Flags: W
LayerCount: 2
Fore
SplineSet
318 865 m 128,-1,1
 332 876 332 876 345.5 876 c 128,-1,2
 359 876 359 876 367 871 c 0,3,4
 385 860 385 860 382 840 c 128,-1,5
 379 820 379 820 365.5 808.5 c 128,-1,6
 352 797 352 797 335.5 797 c 128,-1,7
 319 797 319 797 309 809 c 128,-1,8
 299 821 299 821 301.5 837.5 c 128,-1,0
 304 854 304 854 318 865 c 128,-1,1
573 865 m 128,-1,10
 587 876 587 876 600.5 876 c 128,-1,11
 614 876 614 876 622 871 c 0,12,13
 640 860 640 860 637 840 c 128,-1,14
 634 820 634 820 620.5 808.5 c 128,-1,15
 607 797 607 797 590.5 797 c 128,-1,16
 574 797 574 797 564 809 c 128,-1,17
 554 821 554 821 556.5 837.5 c 128,-1,9
 559 854 559 854 573 865 c 128,-1,10
186 308 m 1,18,19
 177 245 177 245 177 205.5 c 128,-1,20
 177 166 177 166 184 139.5 c 128,-1,21
 191 113 191 113 203.5 95.5 c 128,-1,22
 216 78 216 78 239 68 c 0,23,24
 277 53 277 53 335.5 52.5 c 128,-1,25
 394 52 394 52 430 62.5 c 128,-1,26
 466 73 466 73 498 100 c 0,27,28
 559 152 559 152 584 308 c 2,29,-1
 651 732 l 1,30,-1
 709 732 l 1,31,-1
 642 308 l 2,32,33
 629 228 629 228 609 173 c 128,-1,34
 589 118 589 118 555 76 c 0,35,36
 488 -5 488 -5 339 -5 c 0,37,38
 229 -5 229 -5 178 37 c 0,39,40
 119 87 119 87 119 203 c 0,41,42
 119 250 119 250 128 308 c 2,43,-1
 195 732 l 1,44,-1
 254 732 l 1,45,-1
 186 308 l 1,18,19
EndSplineSet
Substitution2: "'c2sc' Capitals to Small Capitals in Latin lookup 1 subtable" udieresis.smcp
EndChar

StartChar: Yacute
Encoding: 221 221 158
Width: 629
GlyphClass: 2
Flags: W
LayerCount: 2
Fore
SplineSet
410 797 m 1,0,-1
 543 930 l 1,1,-1
 615 930 l 1,2,-1
 461 797 l 1,3,-1
 410 797 l 1,0,-1
150 732 m 1,4,-1
 211 732 l 1,5,-1
 348 332 l 1,6,-1
 632 732 l 1,7,-1
 700 732 l 1,8,-1
 369 260 l 1,9,-1
 328 0 l 1,10,-1
 270 0 l 1,11,-1
 311 260 l 1,12,-1
 150 732 l 1,4,-1
EndSplineSet
Substitution2: "'c2sc' Capitals to Small Capitals in Latin lookup 1 subtable" yacute.smcp
EndChar

StartChar: Thorn
Encoding: 222 222 159
Width: 554
GlyphClass: 2
Flags: W
LayerCount: 2
Fore
SplineSet
60 0 m 1,0,1
 60 0 60 0 175 729 c 1,2,-1
 232 729 l 1,3,-1
 210 588 l 1,4,-1
 414 588 l 2,5,6
 452 588 452 588 479 576 c 128,-1,7
 506 564 506 564 519 548 c 1,8,9
 559 504 559 504 559 430 c 0,10,11
 559 405 559 405 554 359.5 c 128,-1,12
 549 314 549 314 532 271 c 128,-1,13
 515 228 515 228 496 205.5 c 128,-1,14
 477 183 477 183 449 170.5 c 128,-1,15
 421 158 421 158 399.5 155 c 128,-1,16
 378 152 378 152 348 152 c 0,17,18
 196 154 196 154 145 169 c 1,19,-1
 118 0 l 1,20,-1
 60 0 l 1,0,1
354 210 m 2,21,22
 410 210 410 210 444 240 c 1,23,24
 481 275 481 275 498 377 c 0,25,26
 502 399 502 399 502 411.5 c 128,-1,27
 502 424 502 424 500.5 438.5 c 128,-1,28
 499 453 499 453 496 469 c 128,-1,29
 493 485 493 485 483.5 496.5 c 128,-1,30
 474 508 474 508 465.5 514.5 c 128,-1,31
 457 521 457 521 445 524 c 0,32,33
 426 530 426 530 405 530 c 2,34,-1
 201 530 l 1,35,-1
 151 210 l 1,36,-1
 354 210 l 2,21,22
EndSplineSet
Substitution2: "'c2sc' Capitals to Small Capitals in Latin lookup 1 subtable" thorn.smcp
EndChar

StartChar: germandbls
Encoding: 223 223 160
Width: 562
GlyphClass: 2
Flags: W
LayerCount: 2
Fore
SplineSet
217 54 m 1,0,-1
 392 49 l 1,1,2
 438 49 438 49 466 73.5 c 128,-1,3
 494 98 494 98 500 132 c 2,4,-1
 507 172 l 2,5,6
 508 176 508 176 508 186.5 c 128,-1,7
 508 197 508 197 495 209.5 c 128,-1,8
 482 222 482 222 458.5 227 c 128,-1,9
 435 232 435 232 407 240 c 128,-1,10
 379 248 379 248 356 257.5 c 128,-1,11
 333 267 333 267 322 287 c 128,-1,12
 311 307 311 307 311 323 c 128,-1,13
 311 339 311 339 314.5 362 c 128,-1,14
 318 385 318 385 331 406.5 c 128,-1,15
 344 428 344 428 371 448 c 128,-1,16
 398 468 398 468 460 503 c 1,17,18
 488 520 488 520 510 549 c 0,19,20
 542 593 542 593 542 635.5 c 128,-1,21
 542 678 542 678 516 696 c 0,22,23
 480 720 480 720 398 720 c 0,24,25
 232 720 232 720 208 566 c 2,26,-1
 118 0 l 1,27,-1
 60 0 l 1,28,-1
 150 566 l 2,29,30
 165 661 165 661 226.5 719 c 128,-1,31
 288 777 288 777 400 777 c 0,32,33
 461 777 461 777 504 763 c 128,-1,34
 547 749 547 749 568 726 c 0,35,36
 601 688 601 688 601 640 c 0,37,38
 601 601 601 601 582 562 c 0,39,40
 547 490 547 490 495 459 c 0,41,42
 483 452 483 452 462 440.5 c 128,-1,43
 441 429 441 429 429.5 422 c 128,-1,44
 418 415 418 415 404 404 c 0,45,46
 371 378 371 378 371 340 c 0,47,48
 371 323 371 323 383.5 310 c 128,-1,49
 396 297 396 297 420 291.5 c 128,-1,50
 444 286 444 286 471.5 278.5 c 128,-1,51
 499 271 499 271 522.5 262.5 c 128,-1,52
 546 254 546 254 557 234.5 c 128,-1,53
 568 215 568 215 568 199.5 c 128,-1,54
 568 184 568 184 567 173 c 2,55,-1
 560 126 l 2,56,57
 545 24 545 24 439 -1 c 0,58,59
 412 -8 412 -8 385 -8 c 128,-1,60
 358 -8 358 -8 330.5 -5.5 c 128,-1,61
 303 -3 303 -3 286 -1 c 128,-1,62
 269 1 269 1 242 5 c 128,-1,63
 215 9 215 9 211 10 c 1,64,-1
 217 54 l 1,0,-1
EndSplineSet
Substitution2: "'smcp' Lowercase to Small Capitals lookup 0 subtable" germandbls.smcp
EndChar

StartChar: agrave
Encoding: 224 224 161
Width: 542
GlyphClass: 2
Flags: W
LayerCount: 2
Fore
SplineSet
212 736 m 1,0,-1
 279 736 l 1,1,-1
 383 603 l 1,2,-1
 332 603 l 1,3,-1
 212 736 l 1,0,-1
256 531 m 128,-1,5
 278 537 278 537 301 540 c 128,-1,6
 324 543 324 543 355.5 543 c 128,-1,7
 387 543 387 543 452.5 528.5 c 128,-1,8
 518 514 518 514 554 479 c 1,9,-1
 484 0 l 1,10,-1
 444 0 l 1,11,-1
 437 60 l 1,12,13
 403 38 403 38 348.5 15.5 c 128,-1,14
 294 -7 294 -7 254 -7 c 128,-1,15
 214 -7 214 -7 190 -2.5 c 128,-1,16
 166 2 166 2 145 14 c 1,17,18
 104 35 104 35 87 98 c 0,19,20
 79 126 79 126 79 148 c 128,-1,21
 79 170 79 170 79.5 195 c 128,-1,22
 80 220 80 220 90.5 281 c 128,-1,23
 101 342 101 342 119.5 389.5 c 128,-1,24
 138 437 138 437 158.5 463.5 c 128,-1,25
 179 490 179 490 206.5 507.5 c 128,-1,4
 234 525 234 525 256 531 c 128,-1,5
171 364.5 m 128,-1,27
 155 319 155 319 146 262.5 c 128,-1,28
 137 206 137 206 137 165 c 0,29,30
 137 50 137 50 241 50 c 0,31,32
 299 50 299 50 337 63 c 0,33,34
 384 78 384 78 440 102 c 1,35,-1
 494 460 l 1,36,37
 413 487 413 487 351 487 c 0,38,39
 297 487 297 487 264.5 472.5 c 128,-1,40
 232 458 232 458 209.5 434 c 128,-1,26
 187 410 187 410 171 364.5 c 128,-1,27
EndSplineSet
AlternateSubs2: "'salt' Stylistic Alternatives in Latin lookup 15 subtable" agrave.salt
Substitution2: "'smcp' Lowercase to Small Capitals lookup 0 subtable" agrave.smcp
EndChar

StartChar: aacute
Encoding: 225 225 162
Width: 542
GlyphClass: 2
Flags: W
LayerCount: 2
Fore
SplineSet
339 603 m 1,0,-1
 472 736 l 1,1,-1
 544 736 l 1,2,-1
 390 603 l 1,3,-1
 339 603 l 1,0,-1
256 531 m 128,-1,5
 278 537 278 537 301 540 c 128,-1,6
 324 543 324 543 355.5 543 c 128,-1,7
 387 543 387 543 452.5 528.5 c 128,-1,8
 518 514 518 514 554 479 c 1,9,-1
 484 0 l 1,10,-1
 444 0 l 1,11,-1
 437 60 l 1,12,13
 403 38 403 38 348.5 15.5 c 128,-1,14
 294 -7 294 -7 254 -7 c 128,-1,15
 214 -7 214 -7 190 -2.5 c 128,-1,16
 166 2 166 2 145 14 c 1,17,18
 104 35 104 35 87 98 c 0,19,20
 79 126 79 126 79 148 c 128,-1,21
 79 170 79 170 79.5 195 c 128,-1,22
 80 220 80 220 90.5 281 c 128,-1,23
 101 342 101 342 119.5 389.5 c 128,-1,24
 138 437 138 437 158.5 463.5 c 128,-1,25
 179 490 179 490 206.5 507.5 c 128,-1,4
 234 525 234 525 256 531 c 128,-1,5
171 364.5 m 128,-1,27
 155 319 155 319 146 262.5 c 128,-1,28
 137 206 137 206 137 165 c 0,29,30
 137 50 137 50 241 50 c 0,31,32
 299 50 299 50 337 63 c 0,33,34
 384 78 384 78 440 102 c 1,35,-1
 494 460 l 1,36,37
 413 487 413 487 351 487 c 0,38,39
 297 487 297 487 264.5 472.5 c 128,-1,40
 232 458 232 458 209.5 434 c 128,-1,26
 187 410 187 410 171 364.5 c 128,-1,27
EndSplineSet
AlternateSubs2: "'salt' Stylistic Alternatives in Latin lookup 15 subtable" aacute.salt
Substitution2: "'smcp' Lowercase to Small Capitals lookup 0 subtable" aacute.smcp
EndChar

StartChar: acircumflex
Encoding: 226 226 163
Width: 542
GlyphClass: 2
Flags: W
LayerCount: 2
Fore
SplineSet
215 603 m 1,0,-1
 358 733 l 1,1,-1
 412 733 l 1,2,-1
 500 603 l 1,3,-1
 451 603 l 1,4,-1
 382 697 l 1,5,-1
 274 603 l 1,6,-1
 215 603 l 1,0,-1
256 531 m 128,-1,8
 278 537 278 537 301 540 c 128,-1,9
 324 543 324 543 355.5 543 c 128,-1,10
 387 543 387 543 452.5 528.5 c 128,-1,11
 518 514 518 514 554 479 c 1,12,-1
 484 0 l 1,13,-1
 444 0 l 1,14,-1
 437 60 l 1,15,16
 403 38 403 38 348.5 15.5 c 128,-1,17
 294 -7 294 -7 254 -7 c 128,-1,18
 214 -7 214 -7 190 -2.5 c 128,-1,19
 166 2 166 2 145 14 c 1,20,21
 104 35 104 35 87 98 c 0,22,23
 79 126 79 126 79 148 c 128,-1,24
 79 170 79 170 79.5 195 c 128,-1,25
 80 220 80 220 90.5 281 c 128,-1,26
 101 342 101 342 119.5 389.5 c 128,-1,27
 138 437 138 437 158.5 463.5 c 128,-1,28
 179 490 179 490 206.5 507.5 c 128,-1,7
 234 525 234 525 256 531 c 128,-1,8
171 364.5 m 128,-1,30
 155 319 155 319 146 262.5 c 128,-1,31
 137 206 137 206 137 165 c 0,32,33
 137 50 137 50 241 50 c 0,34,35
 299 50 299 50 337 63 c 0,36,37
 384 78 384 78 440 102 c 1,38,-1
 494 460 l 1,39,40
 413 487 413 487 351 487 c 0,41,42
 297 487 297 487 264.5 472.5 c 128,-1,43
 232 458 232 458 209.5 434 c 128,-1,29
 187 410 187 410 171 364.5 c 128,-1,30
EndSplineSet
AlternateSubs2: "'salt' Stylistic Alternatives in Latin lookup 15 subtable" acircumflex.salt
Substitution2: "'smcp' Lowercase to Small Capitals lookup 0 subtable" acircumflex.smcp
EndChar

StartChar: atilde
Encoding: 227 227 164
Width: 542
GlyphClass: 2
Flags: W
LayerCount: 2
Fore
SplineSet
482.5 671 m 128,-1,1
 517 686 517 686 531 696 c 1,2,-1
 542 666 l 1,3,4
 536 661 536 661 518.5 648.5 c 128,-1,5
 501 636 501 636 493 630.5 c 128,-1,6
 485 625 485 625 471 617 c 0,7,8
 421 590 421 590 379 616 c 0,9,10
 360 628 360 628 344 639.5 c 128,-1,11
 328 651 328 651 321 651 c 128,-1,12
 314 651 314 651 306.5 650.5 c 128,-1,13
 299 650 299 650 284 646 c 128,-1,14
 269 642 269 642 260.5 637.5 c 128,-1,15
 252 633 252 633 235 623.5 c 128,-1,16
 218 614 218 614 211 611 c 1,17,-1
 199 641 l 1,18,19
 252 680 252 680 278 691.5 c 128,-1,20
 304 703 304 703 326 702.5 c 128,-1,21
 348 702 348 702 382 679 c 256,22,23
 416 656 416 656 432 656 c 128,-1,0
 448 656 448 656 482.5 671 c 128,-1,1
256 531 m 128,-1,25
 278 537 278 537 301 540 c 128,-1,26
 324 543 324 543 355.5 543 c 128,-1,27
 387 543 387 543 452.5 528.5 c 128,-1,28
 518 514 518 514 554 479 c 1,29,-1
 484 0 l 1,30,-1
 444 0 l 1,31,-1
 437 60 l 1,32,33
 403 38 403 38 348.5 15.5 c 128,-1,34
 294 -7 294 -7 254 -7 c 128,-1,35
 214 -7 214 -7 190 -2.5 c 128,-1,36
 166 2 166 2 145 14 c 1,37,38
 104 35 104 35 87 98 c 0,39,40
 79 126 79 126 79 148 c 128,-1,41
 79 170 79 170 79.5 195 c 128,-1,42
 80 220 80 220 90.5 281 c 128,-1,43
 101 342 101 342 119.5 389.5 c 128,-1,44
 138 437 138 437 158.5 463.5 c 128,-1,45
 179 490 179 490 206.5 507.5 c 128,-1,24
 234 525 234 525 256 531 c 128,-1,25
171 364.5 m 128,-1,47
 155 319 155 319 146 262.5 c 128,-1,48
 137 206 137 206 137 165 c 0,49,50
 137 50 137 50 241 50 c 0,51,52
 299 50 299 50 337 63 c 0,53,54
 384 78 384 78 440 102 c 1,55,-1
 494 460 l 1,56,57
 413 487 413 487 351 487 c 0,58,59
 297 487 297 487 264.5 472.5 c 128,-1,60
 232 458 232 458 209.5 434 c 128,-1,46
 187 410 187 410 171 364.5 c 128,-1,47
EndSplineSet
AlternateSubs2: "'salt' Stylistic Alternatives in Latin lookup 15 subtable" atilde.salt
Substitution2: "'smcp' Lowercase to Small Capitals lookup 0 subtable" atilde.smcp
EndChar

StartChar: adieresis
Encoding: 228 228 165
Width: 542
GlyphClass: 2
Flags: W
LayerCount: 2
Fore
SplineSet
243.5 682 m 128,-1,1
 260 682 260 682 269.5 671 c 128,-1,2
 279 660 279 660 276.5 643 c 128,-1,3
 274 626 274 626 260.5 614.5 c 128,-1,4
 247 603 247 603 230.5 603 c 128,-1,5
 214 603 214 603 204 615 c 128,-1,6
 194 627 194 627 196.5 643 c 128,-1,7
 199 659 199 659 213 670.5 c 128,-1,0
 227 682 227 682 243.5 682 c 128,-1,1
498.5 682 m 128,-1,9
 515 682 515 682 524.5 671 c 128,-1,10
 534 660 534 660 531.5 643 c 128,-1,11
 529 626 529 626 515.5 614.5 c 128,-1,12
 502 603 502 603 485.5 603 c 128,-1,13
 469 603 469 603 459 615 c 128,-1,14
 449 627 449 627 451.5 643 c 128,-1,15
 454 659 454 659 468 670.5 c 128,-1,8
 482 682 482 682 498.5 682 c 128,-1,9
256 531 m 128,-1,17
 278 537 278 537 301 540 c 128,-1,18
 324 543 324 543 355.5 543 c 128,-1,19
 387 543 387 543 452.5 528.5 c 128,-1,20
 518 514 518 514 554 479 c 1,21,-1
 484 0 l 1,22,-1
 444 0 l 1,23,-1
 437 60 l 1,24,25
 403 38 403 38 348.5 15.5 c 128,-1,26
 294 -7 294 -7 254 -7 c 128,-1,27
 214 -7 214 -7 190 -2.5 c 128,-1,28
 166 2 166 2 145 14 c 1,29,30
 104 35 104 35 87 98 c 0,31,32
 79 126 79 126 79 148 c 128,-1,33
 79 170 79 170 79.5 195 c 128,-1,34
 80 220 80 220 90.5 281 c 128,-1,35
 101 342 101 342 119.5 389.5 c 128,-1,36
 138 437 138 437 158.5 463.5 c 128,-1,37
 179 490 179 490 206.5 507.5 c 128,-1,16
 234 525 234 525 256 531 c 128,-1,17
171 364.5 m 128,-1,39
 155 319 155 319 146 262.5 c 128,-1,40
 137 206 137 206 137 165 c 0,41,42
 137 50 137 50 241 50 c 0,43,44
 299 50 299 50 337 63 c 0,45,46
 384 78 384 78 440 102 c 1,47,-1
 494 460 l 1,48,49
 413 487 413 487 351 487 c 0,50,51
 297 487 297 487 264.5 472.5 c 128,-1,52
 232 458 232 458 209.5 434 c 128,-1,38
 187 410 187 410 171 364.5 c 128,-1,39
EndSplineSet
AlternateSubs2: "'salt' Stylistic Alternatives in Latin lookup 15 subtable" adieresis.salt
Substitution2: "'smcp' Lowercase to Small Capitals lookup 0 subtable" adieresis.smcp
EndChar

StartChar: aring
Encoding: 229 229 166
Width: 542
GlyphClass: 2
Flags: W
LayerCount: 2
Fore
SplineSet
393 808 m 128,-1,1
 435 808 435 808 459 780 c 128,-1,2
 483 752 483 752 483 718 c 0,3,4
 483 683 483 683 465 656 c 0,5,6
 428 603 428 603 370 603 c 0,7,8
 328 603 328 603 303 630.5 c 128,-1,9
 278 658 278 658 278 692 c 0,10,11
 278 743 278 743 314.5 775.5 c 128,-1,0
 351 808 351 808 393 808 c 128,-1,1
331 657.5 m 128,-1,13
 347 640 347 640 374 640 c 128,-1,14
 401 640 401 640 422 659 c 0,15,16
 447 681 447 681 447 708 c 128,-1,17
 447 735 447 735 431.5 753 c 128,-1,18
 416 771 416 771 389 771 c 128,-1,19
 362 771 362 771 341 751 c 1,20,21
 315 729 315 729 315 702 c 128,-1,12
 315 675 315 675 331 657.5 c 128,-1,13
256 531 m 128,-1,23
 278 537 278 537 301 540 c 128,-1,24
 324 543 324 543 355.5 543 c 128,-1,25
 387 543 387 543 452.5 528.5 c 128,-1,26
 518 514 518 514 554 479 c 1,27,-1
 484 0 l 1,28,-1
 444 0 l 1,29,-1
 437 60 l 1,30,31
 403 38 403 38 348.5 15.5 c 128,-1,32
 294 -7 294 -7 254 -7 c 128,-1,33
 214 -7 214 -7 190 -2.5 c 128,-1,34
 166 2 166 2 145 14 c 1,35,36
 104 35 104 35 87 98 c 0,37,38
 79 126 79 126 79 148 c 128,-1,39
 79 170 79 170 79.5 195 c 128,-1,40
 80 220 80 220 90.5 281 c 128,-1,41
 101 342 101 342 119.5 389.5 c 128,-1,42
 138 437 138 437 158.5 463.5 c 128,-1,43
 179 490 179 490 206.5 507.5 c 128,-1,22
 234 525 234 525 256 531 c 128,-1,23
171 364.5 m 128,-1,45
 155 319 155 319 146 262.5 c 128,-1,46
 137 206 137 206 137 165 c 0,47,48
 137 50 137 50 241 50 c 0,49,50
 299 50 299 50 337 63 c 0,51,52
 384 78 384 78 440 102 c 1,53,-1
 494 460 l 1,54,55
 413 487 413 487 351 487 c 0,56,57
 297 487 297 487 264.5 472.5 c 128,-1,58
 232 458 232 458 209.5 434 c 128,-1,44
 187 410 187 410 171 364.5 c 128,-1,45
EndSplineSet
AlternateSubs2: "'salt' Stylistic Alternatives in Latin lookup 15 subtable" aring.salt
Substitution2: "'smcp' Lowercase to Small Capitals lookup 0 subtable" aring.smcp
EndChar

StartChar: ae
Encoding: 230 230 167
Width: 922
GlyphClass: 2
Flags: W
LayerCount: 2
Fore
SplineSet
217 531.5 m 128,-1,1
 238 537 238 537 260 540 c 128,-1,2
 282 543 282 543 310 543 c 128,-1,3
 338 543 338 543 399.5 530 c 128,-1,4
 461 517 461 517 504 488 c 1,5,6
 561 541 561 541 678 541 c 0,7,8
 833 541 833 541 862 461 c 0,9,10
 869 441 869 441 869 421 c 0,11,12
 869 346 869 346 835 304.5 c 128,-1,13
 801 263 801 263 760 247 c 0,14,15
 683 217 683 217 603 217 c 0,16,17
 560 217 560 217 519.5 223 c 128,-1,18
 479 229 479 229 468 234 c 1,19,20
 461 187 461 187 461 150 c 128,-1,21
 461 113 461 113 470 91 c 0,22,23
 488 49 488 49 550 48 c 0,24,25
 568 47 568 47 620 47 c 128,-1,26
 672 47 672 47 795 65 c 1,27,-1
 788 22 l 1,28,29
 682 -7 682 -7 545 -7 c 0,30,31
 447 -7 447 -7 419 67 c 1,32,33
 380 40 380 40 319 16.5 c 128,-1,34
 258 -7 258 -7 216 -7 c 128,-1,35
 174 -7 174 -7 150 -2 c 128,-1,36
 126 3 126 3 104 15 c 0,37,38
 63 38 63 38 47 101 c 0,39,40
 40 128 40 128 40 149.5 c 128,-1,41
 40 171 40 171 40.5 195.5 c 128,-1,42
 41 220 41 220 51.5 281 c 128,-1,43
 62 342 62 342 81.5 390 c 128,-1,44
 101 438 101 438 120.5 465 c 128,-1,45
 140 492 140 492 168 509 c 128,-1,0
 196 526 196 526 217 531.5 c 128,-1,1
106 261 m 0,46,47
 97 203 97 203 97 163 c 128,-1,48
 97 123 97 123 109 97 c 0,49,50
 131 50 131 50 204 50 c 0,51,52
 284 50 284 50 367 86 c 0,53,54
 391 97 391 97 408 108 c 1,55,56
 405 128 405 128 405 166.5 c 128,-1,57
 405 205 405 205 422.5 301 c 128,-1,58
 440 397 440 397 472 451 c 1,59,60
 367 486 367 486 302 486 c 0,61,62
 220 486 220 486 170 434 c 0,63,64
 126 388 126 388 106 261 c 0,46,47
474 274 m 1,65,66
 514 269 514 269 549.5 269 c 128,-1,67
 585 269 585 269 607 270 c 128,-1,68
 629 271 629 271 667 277.5 c 128,-1,69
 705 284 705 284 733.5 296.5 c 128,-1,70
 762 309 762 309 783 332 c 0,71,72
 812 363 812 363 812 406 c 128,-1,73
 812 449 812 449 783 466.5 c 128,-1,74
 754 484 754 484 677 484 c 0,75,76
 596 484 596 484 558 456 c 0,77,78
 544 446 544 446 534 437.5 c 128,-1,79
 524 429 524 429 515.5 413.5 c 128,-1,80
 507 398 507 398 502 387.5 c 128,-1,81
 497 377 497 377 492 357 c 0,82,83
 485 331 485 331 480 305.5 c 128,-1,84
 475 280 475 280 474 274 c 1,65,66
EndSplineSet
Substitution2: "'smcp' Lowercase to Small Capitals lookup 0 subtable" ae.smcp
EndChar

StartChar: ccedilla
Encoding: 231 231 168
Width: 496
GlyphClass: 2
Flags: W
LayerCount: 2
Fore
SplineSet
139 159 m 0,0,1
 139 51 139 51 232 51 c 0,2,3
 314 51 314 51 423 62 c 1,4,-1
 459 65 l 1,5,-1
 453 23 l 1,6,7
 348 -6 348 -6 235 -6 c 0,8,9
 232 -6 232 -6 229 -6 c 0,10,11
 82 -5 82 -5 82 170 c 0,12,13
 82 214 82 214 92.5 277 c 128,-1,14
 103 340 103 340 121 390.5 c 128,-1,15
 139 441 139 441 158 469.5 c 128,-1,16
 177 498 177 498 203.5 513.5 c 128,-1,17
 230 529 230 529 253 533 c 128,-1,18
 276 537 276 537 309 537 c 0,19,20
 389 537 389 537 523 510 c 1,21,-1
 516 469 l 1,22,23
 389 480 389 480 336 480 c 128,-1,24
 283 480 283 480 271.5 478.5 c 128,-1,25
 260 477 260 477 246 472 c 128,-1,26
 232 467 232 467 222 457.5 c 128,-1,27
 212 448 212 448 201 432 c 128,-1,28
 190 416 190 416 181 393 c 0,29,30
 162 342 162 342 148 262 c 1,31,32
 139 200 139 200 139 159 c 0,0,1
180 -172 m 2,33,-1
 135 -172 l 1,34,-1
 140 -145 l 1,35,-1
 188 -134 l 1,36,37
 217 -126 217 -126 231.5 -104 c 128,-1,38
 246 -82 246 -82 252 -36 c 1,39,-1
 303 -36 l 1,40,41
 295 -89 295 -89 281.5 -117.5 c 128,-1,42
 268 -146 268 -146 244.5 -159 c 128,-1,43
 221 -172 221 -172 180 -172 c 2,33,-1
EndSplineSet
Substitution2: "'smcp' Lowercase to Small Capitals lookup 0 subtable" ccedilla.smcp
EndChar

StartChar: egrave
Encoding: 232 232 169
Width: 528
GlyphClass: 2
Flags: W
LayerCount: 2
Fore
SplineSet
213 734 m 1,0,-1
 279 734 l 1,1,-1
 383 601 l 1,2,-1
 333 601 l 1,3,-1
 213 734 l 1,0,-1
274 534.5 m 128,-1,5
 307 541 307 541 352.5 541 c 128,-1,6
 398 541 398 541 434 533 c 0,7,8
 540 510 540 510 540 415 c 0,9,10
 540 346 540 346 506 304.5 c 128,-1,11
 472 263 472 263 430 247 c 0,12,13
 354 217 354 217 274 217 c 0,14,15
 231 217 231 217 190.5 223 c 128,-1,16
 150 229 150 229 139 234 c 1,17,18
 131 187 131 187 131 163 c 0,19,20
 131 91 131 91 154.5 70 c 128,-1,21
 178 49 178 49 220 48 c 0,22,23
 238 47 238 47 290 47 c 128,-1,24
 342 47 342 47 465 65 c 1,25,-1
 459 22 l 1,26,27
 353 -7 353 -7 215 -7 c 0,28,29
 120 -7 120 -7 91 62 c 0,30,31
 76 98 76 98 76 152.5 c 128,-1,32
 76 207 76 207 85.5 261.5 c 128,-1,33
 95 316 95 316 101.5 343 c 128,-1,34
 108 370 108 370 118.5 399.5 c 128,-1,35
 129 429 129 429 141.5 448.5 c 128,-1,36
 154 468 154 468 173 487 c 128,-1,37
 192 506 192 506 216.5 517 c 128,-1,4
 241 528 241 528 274 534.5 c 128,-1,5
145 274 m 1,38,39
 185 269 185 269 220.5 269 c 128,-1,40
 256 269 256 269 278 270 c 128,-1,41
 300 271 300 271 338 277.5 c 128,-1,42
 376 284 376 284 404 296.5 c 128,-1,43
 432 309 432 309 454 332 c 0,44,45
 482 363 482 363 482 406 c 128,-1,46
 482 449 482 449 453.5 466.5 c 128,-1,47
 425 484 425 484 348 484 c 0,48,49
 267 484 267 484 229 456 c 0,50,51
 215 446 215 446 205 438 c 128,-1,52
 195 430 195 430 186.5 414 c 128,-1,53
 178 398 178 398 173.5 388 c 128,-1,54
 169 378 169 378 163 358 c 0,55,56
 156 332 156 332 151 306.5 c 128,-1,57
 146 281 146 281 145 274 c 1,38,39
EndSplineSet
Substitution2: "'smcp' Lowercase to Small Capitals lookup 0 subtable" egrave.smcp
EndChar

StartChar: eacute
Encoding: 233 233 170
Width: 528
GlyphClass: 2
Flags: W
LayerCount: 2
Fore
SplineSet
333 601 m 1,0,-1
 465 734 l 1,1,-1
 537 734 l 1,2,-1
 383 601 l 1,3,-1
 333 601 l 1,0,-1
274 534.5 m 128,-1,5
 307 541 307 541 352.5 541 c 128,-1,6
 398 541 398 541 434 533 c 0,7,8
 540 510 540 510 540 415 c 0,9,10
 540 346 540 346 506 304.5 c 128,-1,11
 472 263 472 263 430 247 c 0,12,13
 354 217 354 217 274 217 c 0,14,15
 231 217 231 217 190.5 223 c 128,-1,16
 150 229 150 229 139 234 c 1,17,18
 131 187 131 187 131 163 c 0,19,20
 131 91 131 91 154.5 70 c 128,-1,21
 178 49 178 49 220 48 c 0,22,23
 238 47 238 47 290 47 c 128,-1,24
 342 47 342 47 465 65 c 1,25,-1
 459 22 l 1,26,27
 353 -7 353 -7 215 -7 c 0,28,29
 120 -7 120 -7 91 62 c 0,30,31
 76 98 76 98 76 152.5 c 128,-1,32
 76 207 76 207 85.5 261.5 c 128,-1,33
 95 316 95 316 101.5 343 c 128,-1,34
 108 370 108 370 118.5 399.5 c 128,-1,35
 129 429 129 429 141.5 448.5 c 128,-1,36
 154 468 154 468 173 487 c 128,-1,37
 192 506 192 506 216.5 517 c 128,-1,4
 241 528 241 528 274 534.5 c 128,-1,5
145 274 m 1,38,39
 185 269 185 269 220.5 269 c 128,-1,40
 256 269 256 269 278 270 c 128,-1,41
 300 271 300 271 338 277.5 c 128,-1,42
 376 284 376 284 404 296.5 c 128,-1,43
 432 309 432 309 454 332 c 0,44,45
 482 363 482 363 482 406 c 128,-1,46
 482 449 482 449 453.5 466.5 c 128,-1,47
 425 484 425 484 348 484 c 0,48,49
 267 484 267 484 229 456 c 0,50,51
 215 446 215 446 205 438 c 128,-1,52
 195 430 195 430 186.5 414 c 128,-1,53
 178 398 178 398 173.5 388 c 128,-1,54
 169 378 169 378 163 358 c 0,55,56
 156 332 156 332 151 306.5 c 128,-1,57
 146 281 146 281 145 274 c 1,38,39
EndSplineSet
Substitution2: "'smcp' Lowercase to Small Capitals lookup 0 subtable" eacute.smcp
EndChar

StartChar: ecircumflex
Encoding: 234 234 171
Width: 528
GlyphClass: 2
Flags: W
LayerCount: 2
Fore
SplineSet
215 601 m 1,0,-1
 358 731 l 1,1,-1
 413 731 l 1,2,-1
 501 601 l 1,3,-1
 452 601 l 1,4,-1
 382 695 l 1,5,-1
 275 601 l 1,6,-1
 215 601 l 1,0,-1
274 534.5 m 128,-1,8
 307 541 307 541 352.5 541 c 128,-1,9
 398 541 398 541 434 533 c 0,10,11
 540 510 540 510 540 415 c 0,12,13
 540 346 540 346 506 304.5 c 128,-1,14
 472 263 472 263 430 247 c 0,15,16
 354 217 354 217 274 217 c 0,17,18
 231 217 231 217 190.5 223 c 128,-1,19
 150 229 150 229 139 234 c 1,20,21
 131 187 131 187 131 163 c 0,22,23
 131 91 131 91 154.5 70 c 128,-1,24
 178 49 178 49 220 48 c 0,25,26
 238 47 238 47 290 47 c 128,-1,27
 342 47 342 47 465 65 c 1,28,-1
 459 22 l 1,29,30
 353 -7 353 -7 215 -7 c 0,31,32
 120 -7 120 -7 91 62 c 0,33,34
 76 98 76 98 76 152.5 c 128,-1,35
 76 207 76 207 85.5 261.5 c 128,-1,36
 95 316 95 316 101.5 343 c 128,-1,37
 108 370 108 370 118.5 399.5 c 128,-1,38
 129 429 129 429 141.5 448.5 c 128,-1,39
 154 468 154 468 173 487 c 128,-1,40
 192 506 192 506 216.5 517 c 128,-1,7
 241 528 241 528 274 534.5 c 128,-1,8
145 274 m 1,41,42
 185 269 185 269 220.5 269 c 128,-1,43
 256 269 256 269 278 270 c 128,-1,44
 300 271 300 271 338 277.5 c 128,-1,45
 376 284 376 284 404 296.5 c 128,-1,46
 432 309 432 309 454 332 c 0,47,48
 482 363 482 363 482 406 c 128,-1,49
 482 449 482 449 453.5 466.5 c 128,-1,50
 425 484 425 484 348 484 c 0,51,52
 267 484 267 484 229 456 c 0,53,54
 215 446 215 446 205 438 c 128,-1,55
 195 430 195 430 186.5 414 c 128,-1,56
 178 398 178 398 173.5 388 c 128,-1,57
 169 378 169 378 163 358 c 0,58,59
 156 332 156 332 151 306.5 c 128,-1,60
 146 281 146 281 145 274 c 1,41,42
EndSplineSet
Substitution2: "'smcp' Lowercase to Small Capitals lookup 0 subtable" ecircumflex.smcp
EndChar

StartChar: edieresis
Encoding: 235 235 172
Width: 528
GlyphClass: 2
Flags: W
LayerCount: 2
Fore
SplineSet
223 675 m 128,-1,1
 233 680 233 680 246.5 680 c 128,-1,2
 260 680 260 680 269.5 669 c 128,-1,3
 279 658 279 658 276.5 641 c 128,-1,4
 274 624 274 624 261 612.5 c 128,-1,5
 248 601 248 601 231.5 601 c 128,-1,6
 215 601 215 601 205 613 c 128,-1,7
 195 625 195 625 197 638.5 c 128,-1,8
 199 652 199 652 206 661 c 128,-1,0
 213 670 213 670 223 675 c 128,-1,1
478 675 m 128,-1,10
 488 680 488 680 501.5 680 c 128,-1,11
 515 680 515 680 524.5 669 c 128,-1,12
 534 658 534 658 531.5 641 c 128,-1,13
 529 624 529 624 516 612.5 c 128,-1,14
 503 601 503 601 486.5 601 c 128,-1,15
 470 601 470 601 460 613 c 128,-1,16
 450 625 450 625 452 638.5 c 128,-1,17
 454 652 454 652 461 661 c 128,-1,9
 468 670 468 670 478 675 c 128,-1,10
274 534.5 m 128,-1,19
 307 541 307 541 352.5 541 c 128,-1,20
 398 541 398 541 434 533 c 0,21,22
 540 510 540 510 540 415 c 0,23,24
 540 346 540 346 506 304.5 c 128,-1,25
 472 263 472 263 430 247 c 0,26,27
 354 217 354 217 274 217 c 0,28,29
 231 217 231 217 190.5 223 c 128,-1,30
 150 229 150 229 139 234 c 1,31,32
 131 187 131 187 131 163 c 0,33,34
 131 91 131 91 154.5 70 c 128,-1,35
 178 49 178 49 220 48 c 0,36,37
 238 47 238 47 290 47 c 128,-1,38
 342 47 342 47 465 65 c 1,39,-1
 459 22 l 1,40,41
 353 -7 353 -7 215 -7 c 0,42,43
 120 -7 120 -7 91 62 c 0,44,45
 76 98 76 98 76 152.5 c 128,-1,46
 76 207 76 207 85.5 261.5 c 128,-1,47
 95 316 95 316 101.5 343 c 128,-1,48
 108 370 108 370 118.5 399.5 c 128,-1,49
 129 429 129 429 141.5 448.5 c 128,-1,50
 154 468 154 468 173 487 c 128,-1,51
 192 506 192 506 216.5 517 c 128,-1,18
 241 528 241 528 274 534.5 c 128,-1,19
145 274 m 1,52,53
 185 269 185 269 220.5 269 c 128,-1,54
 256 269 256 269 278 270 c 128,-1,55
 300 271 300 271 338 277.5 c 128,-1,56
 376 284 376 284 404 296.5 c 128,-1,57
 432 309 432 309 454 332 c 0,58,59
 482 363 482 363 482 406 c 128,-1,60
 482 449 482 449 453.5 466.5 c 128,-1,61
 425 484 425 484 348 484 c 0,62,63
 267 484 267 484 229 456 c 0,64,65
 215 446 215 446 205 438 c 128,-1,66
 195 430 195 430 186.5 414 c 128,-1,67
 178 398 178 398 173.5 388 c 128,-1,68
 169 378 169 378 163 358 c 0,69,70
 156 332 156 332 151 306.5 c 128,-1,71
 146 281 146 281 145 274 c 1,52,53
EndSplineSet
Substitution2: "'smcp' Lowercase to Small Capitals lookup 0 subtable" edieresis.smcp
EndChar

StartChar: igrave
Encoding: 236 236 173
Width: 185
GlyphClass: 2
Flags: W
LayerCount: 2
Fore
SplineSet
24 729 m 1,0,-1
 91 729 l 1,1,-1
 195 596 l 1,2,-1
 144 596 l 1,3,-1
 24 729 l 1,0,-1
60 0 m 1,4,-1
 144 531 l 1,5,-1
 202 531 l 1,6,-1
 118 0 l 1,7,-1
 60 0 l 1,4,-1
EndSplineSet
Substitution2: "'smcp' Lowercase to Small Capitals lookup 0 subtable" igrave.smcp
EndChar

StartChar: iacute
Encoding: 237 237 174
Width: 185
GlyphClass: 2
Flags: W
LayerCount: 2
Fore
SplineSet
143 596 m 1,0,-1
 275 729 l 1,1,-1
 347 729 l 1,2,-1
 193 596 l 1,3,-1
 143 596 l 1,0,-1
60 0 m 1,4,-1
 144 531 l 1,5,-1
 202 531 l 1,6,-1
 118 0 l 1,7,-1
 60 0 l 1,4,-1
EndSplineSet
Substitution2: "'smcp' Lowercase to Small Capitals lookup 0 subtable" iacute.smcp
EndChar

StartChar: icircumflex
Encoding: 238 238 175
Width: 185
GlyphClass: 2
Flags: W
LayerCount: 2
Fore
SplineSet
24 596 m 1,0,-1
 167 726 l 1,1,-1
 221 726 l 1,2,-1
 309 596 l 1,3,-1
 260 596 l 1,4,-1
 191 690 l 1,5,-1
 84 596 l 1,6,-1
 24 596 l 1,0,-1
60 0 m 1,7,-1
 144 531 l 1,8,-1
 202 531 l 1,9,-1
 118 0 l 1,10,-1
 60 0 l 1,7,-1
EndSplineSet
Substitution2: "'smcp' Lowercase to Small Capitals lookup 0 subtable" icircumflex.smcp
EndChar

StartChar: idieresis
Encoding: 239 239 176
Width: 185
GlyphClass: 2
Flags: W
LayerCount: 2
Fore
SplineSet
49.5 675 m 128,-1,1
 66 675 66 675 75.5 664 c 128,-1,2
 85 653 85 653 82.5 636 c 128,-1,3
 80 619 80 619 66.5 607.5 c 128,-1,4
 53 596 53 596 40 596 c 0,5,6
 14 596 14 596 6 616 c 0,7,8
 3 623 3 623 3 628 c 128,-1,9
 3 633 3 633 4.5 643 c 128,-1,10
 6 653 6 653 19.5 664 c 128,-1,0
 33 675 33 675 49.5 675 c 128,-1,1
304.5 675 m 128,-1,12
 321 675 321 675 329.5 665 c 128,-1,13
 338 655 338 655 338 647.5 c 128,-1,14
 338 640 338 640 336.5 629.5 c 128,-1,15
 335 619 335 619 321.5 607.5 c 128,-1,16
 308 596 308 596 294.5 596 c 128,-1,17
 281 596 281 596 273 601 c 0,18,19
 255 613 255 613 258 633 c 128,-1,20
 261 653 261 653 274.5 664 c 128,-1,11
 288 675 288 675 304.5 675 c 128,-1,12
60 0 m 1,21,-1
 144 531 l 1,22,-1
 202 531 l 1,23,-1
 118 0 l 1,24,-1
 60 0 l 1,21,-1
EndSplineSet
Substitution2: "'smcp' Lowercase to Small Capitals lookup 0 subtable" idieresis.smcp
EndChar

StartChar: eth
Encoding: 240 240 177
Width: 540
GlyphClass: 2
Flags: W
LayerCount: 2
Fore
SplineSet
479 681 m 1,0,1
 541 591 541 591 541 428 c 0,2,3
 541 346 541 346 527 258 c 0,4,5
 505 120 505 120 454.5 60 c 128,-1,6
 404 0 404 0 309 0 c 2,7,-1
 214 0 l 2,8,9
 71 0 71 0 71 169 c 0,10,11
 71 210 71 210 79 262 c 0,12,13
 103 404 103 404 151.5 467.5 c 128,-1,14
 200 531 200 531 298 531 c 2,15,-1
 390 531 l 2,16,17
 415 531 415 531 443 521 c 128,-1,18
 471 511 471 511 479 499 c 1,19,20
 467 605 467 605 421 660 c 1,21,-1
 261 600 l 1,22,-1
 250 645 l 1,23,-1
 382 694 l 1,24,25
 329 733 329 733 245 733 c 0,26,27
 242 733 242 733 238 733 c 1,28,-1
 246 783 l 1,29,30
 377 783 377 783 446 717 c 1,31,-1
 575 766 l 1,32,-1
 587 721 l 1,33,-1
 479 681 l 1,0,1
163 368 m 128,-1,35
 148 325 148 325 138 266.5 c 128,-1,36
 128 208 128 208 128 171 c 128,-1,37
 128 134 128 134 134 113 c 0,38,39
 146 71 146 71 184 62 c 0,40,41
 198 58 198 58 209 58 c 128,-1,42
 220 58 220 58 222 58 c 2,43,-1
 317 58 l 2,44,45
 318 58 318 58 319 58 c 0,46,47
 379 58 379 58 415.5 104 c 128,-1,48
 452 150 452 150 470 260 c 0,49,50
 480 324 480 324 480 348.5 c 128,-1,51
 480 373 480 373 480 376 c 0,52,53
 478 473 478 473 382 473 c 2,54,-1
 292 473 l 2,55,56
 262 473 262 473 240 464.5 c 128,-1,57
 218 456 218 456 198 433.5 c 128,-1,34
 178 411 178 411 163 368 c 128,-1,35
EndSplineSet
Substitution2: "'smcp' Lowercase to Small Capitals lookup 0 subtable" eth.smcp
EndChar

StartChar: ntilde
Encoding: 241 241 178
Width: 542
GlyphClass: 2
Flags: W
LayerCount: 2
Fore
SplineSet
487 668 m 128,-1,1
 521 683 521 683 535 693 c 1,2,-1
 547 663 l 1,3,4
 540 658 540 658 523 645.5 c 128,-1,5
 506 633 506 633 497.5 627.5 c 128,-1,6
 489 622 489 622 475 614 c 0,7,8
 421 584 421 584 375 618 c 0,9,10
 365 625 365 625 356 631 c 0,11,12
 335 648 335 648 319 647.5 c 128,-1,13
 303 647 303 647 288 643 c 128,-1,14
 273 639 273 639 264.5 634.5 c 128,-1,15
 256 630 256 630 239 620.5 c 128,-1,16
 222 611 222 611 215 608 c 1,17,-1
 204 638 l 1,18,19
 256 677 256 677 282.5 688.5 c 128,-1,20
 309 700 309 700 326 699.5 c 128,-1,21
 343 699 343 699 359.5 691.5 c 128,-1,22
 376 684 376 684 387 676 c 0,23,24
 417 653 417 653 435 653 c 128,-1,0
 453 653 453 653 487 668 c 128,-1,1
406 540 m 0,25,26
 482 540 482 540 518 490 c 0,27,28
 546 452 546 452 546 402 c 0,29,30
 546 387 546 387 543 370 c 2,31,-1
 484 0 l 1,32,-1
 427 0 l 1,33,-1
 486 370 l 2,34,35
 488 383 488 383 488 395 c 0,36,37
 488 430 488 430 466.5 456 c 128,-1,38
 445 482 445 482 392.5 482 c 128,-1,39
 340 482 340 482 298 469.5 c 128,-1,40
 256 457 256 457 185 424 c 1,41,-1
 118 0 l 1,42,-1
 60 0 l 1,43,-1
 144 531 l 1,44,-1
 183 531 l 1,45,-1
 192 469 l 1,46,47
 292 523 292 523 349 535 c 0,48,49
 377 540 377 540 406 540 c 0,25,26
EndSplineSet
AlternateSubs2: "'salt' Stylistic Alternatives in Latin lookup 15 subtable" ntilde.salt
Substitution2: "'smcp' Lowercase to Small Capitals lookup 0 subtable" ntilde.smcp
EndChar

StartChar: ograve
Encoding: 242 242 179
Width: 562
GlyphClass: 2
Flags: W
LayerCount: 2
Fore
SplineSet
225 729 m 1,0,-1
 292 729 l 1,1,-1
 396 596 l 1,2,-1
 345 596 l 1,3,-1
 225 729 l 1,0,-1
361 536 m 0,4,5
 485 536 485 536 528 468 c 0,6,7
 556 423 556 423 556 348 c 0,8,9
 556 306 556 306 548 256 c 0,10,11
 523 107 523 107 467.5 51 c 128,-1,12
 412 -5 412 -5 283.5 -5 c 128,-1,13
 155 -5 155 -5 111 56 c 0,14,15
 82 96 82 96 82 172 c 0,16,17
 82 212 82 212 92.5 277.5 c 128,-1,18
 103 343 103 343 122.5 395.5 c 128,-1,19
 142 448 142 448 175 479.5 c 128,-1,20
 208 511 208 511 251.5 523.5 c 128,-1,21
 295 536 295 536 361 536 c 0,4,5
139 159 m 0,22,23
 139 143 139 143 146 121.5 c 128,-1,24
 153 100 153 100 163.5 86 c 128,-1,25
 174 72 174 72 195 65 c 0,26,27
 228 53 228 53 276 52.5 c 128,-1,28
 324 52 324 52 348.5 56 c 128,-1,29
 373 60 373 60 397.5 72 c 128,-1,30
 422 84 422 84 438 106 c 0,31,32
 473 155 473 155 490 258 c 0,33,34
 499 314 499 314 499 346 c 128,-1,35
 499 378 499 378 494 400 c 128,-1,36
 489 422 489 422 478 438 c 128,-1,37
 467 454 467 454 448 463 c 0,38,39
 415 478 415 478 368.5 478 c 128,-1,40
 322 478 322 478 300.5 476 c 128,-1,41
 279 474 279 474 256.5 466 c 128,-1,42
 234 458 234 458 219 443 c 0,43,44
 184 408 184 408 161.5 329 c 128,-1,45
 139 250 139 250 139 159 c 0,22,23
EndSplineSet
Substitution2: "'smcp' Lowercase to Small Capitals lookup 0 subtable" ograve.smcp
EndChar

StartChar: oacute
Encoding: 243 243 180
Width: 562
GlyphClass: 2
Flags: W
LayerCount: 2
Fore
SplineSet
345 596 m 1,0,-1
 478 729 l 1,1,-1
 550 729 l 1,2,-1
 396 596 l 1,3,-1
 345 596 l 1,0,-1
361 536 m 0,4,5
 485 536 485 536 528 468 c 0,6,7
 556 423 556 423 556 348 c 0,8,9
 556 306 556 306 548 256 c 0,10,11
 523 107 523 107 467.5 51 c 128,-1,12
 412 -5 412 -5 283.5 -5 c 128,-1,13
 155 -5 155 -5 111 56 c 0,14,15
 82 96 82 96 82 172 c 0,16,17
 82 212 82 212 92.5 277.5 c 128,-1,18
 103 343 103 343 122.5 395.5 c 128,-1,19
 142 448 142 448 175 479.5 c 128,-1,20
 208 511 208 511 251.5 523.5 c 128,-1,21
 295 536 295 536 361 536 c 0,4,5
139 159 m 0,22,23
 139 143 139 143 146 121.5 c 128,-1,24
 153 100 153 100 163.5 86 c 128,-1,25
 174 72 174 72 195 65 c 0,26,27
 228 53 228 53 276 52.5 c 128,-1,28
 324 52 324 52 348.5 56 c 128,-1,29
 373 60 373 60 397.5 72 c 128,-1,30
 422 84 422 84 438 106 c 0,31,32
 473 155 473 155 490 258 c 0,33,34
 499 314 499 314 499 346 c 128,-1,35
 499 378 499 378 494 400 c 128,-1,36
 489 422 489 422 478 438 c 128,-1,37
 467 454 467 454 448 463 c 0,38,39
 415 478 415 478 368.5 478 c 128,-1,40
 322 478 322 478 300.5 476 c 128,-1,41
 279 474 279 474 256.5 466 c 128,-1,42
 234 458 234 458 219 443 c 0,43,44
 184 408 184 408 161.5 329 c 128,-1,45
 139 250 139 250 139 159 c 0,22,23
EndSplineSet
Substitution2: "'smcp' Lowercase to Small Capitals lookup 0 subtable" oacute.smcp
EndChar

StartChar: ocircumflex
Encoding: 244 244 181
Width: 562
GlyphClass: 2
Flags: W
LayerCount: 2
Fore
SplineSet
228 596 m 1,0,-1
 371 726 l 1,1,-1
 425 726 l 1,2,-1
 513 596 l 1,3,-1
 464 596 l 1,4,-1
 395 690 l 1,5,-1
 287 596 l 1,6,-1
 228 596 l 1,0,-1
361 536 m 0,7,8
 485 536 485 536 528 468 c 0,9,10
 556 423 556 423 556 348 c 0,11,12
 556 306 556 306 548 256 c 0,13,14
 523 107 523 107 467.5 51 c 128,-1,15
 412 -5 412 -5 283.5 -5 c 128,-1,16
 155 -5 155 -5 111 56 c 0,17,18
 82 96 82 96 82 172 c 0,19,20
 82 212 82 212 92.5 277.5 c 128,-1,21
 103 343 103 343 122.5 395.5 c 128,-1,22
 142 448 142 448 175 479.5 c 128,-1,23
 208 511 208 511 251.5 523.5 c 128,-1,24
 295 536 295 536 361 536 c 0,7,8
139 159 m 0,25,26
 139 143 139 143 146 121.5 c 128,-1,27
 153 100 153 100 163.5 86 c 128,-1,28
 174 72 174 72 195 65 c 0,29,30
 228 53 228 53 276 52.5 c 128,-1,31
 324 52 324 52 348.5 56 c 128,-1,32
 373 60 373 60 397.5 72 c 128,-1,33
 422 84 422 84 438 106 c 0,34,35
 473 155 473 155 490 258 c 0,36,37
 499 314 499 314 499 346 c 128,-1,38
 499 378 499 378 494 400 c 128,-1,39
 489 422 489 422 478 438 c 128,-1,40
 467 454 467 454 448 463 c 0,41,42
 415 478 415 478 368.5 478 c 128,-1,43
 322 478 322 478 300.5 476 c 128,-1,44
 279 474 279 474 256.5 466 c 128,-1,45
 234 458 234 458 219 443 c 0,46,47
 184 408 184 408 161.5 329 c 128,-1,48
 139 250 139 250 139 159 c 0,25,26
EndSplineSet
Substitution2: "'smcp' Lowercase to Small Capitals lookup 0 subtable" ocircumflex.smcp
EndChar

StartChar: otilde
Encoding: 245 245 182
Width: 562
GlyphClass: 2
Flags: W
LayerCount: 2
Fore
SplineSet
436 649 m 2,0,1
 436 649 436 649 443 649 c 128,-1,2
 450 649 450 649 472 657 c 0,3,4
 515 673 515 673 538 689 c 1,5,-1
 550 659 l 1,6,7
 543 654 543 654 526 641.5 c 128,-1,8
 509 629 509 629 500.5 623.5 c 128,-1,9
 492 618 492 618 478 610 c 0,10,11
 429 583 429 583 386 609 c 0,12,13
 367 621 367 621 351.5 632.5 c 128,-1,14
 336 644 336 644 328.5 644 c 128,-1,15
 321 644 321 644 313.5 643.5 c 128,-1,16
 306 643 306 643 291 639 c 128,-1,17
 276 635 276 635 267.5 630.5 c 128,-1,18
 259 626 259 626 242 616.5 c 128,-1,19
 225 607 225 607 218 604 c 1,20,-1
 207 634 l 1,21,22
 259 673 259 673 285.5 684.5 c 128,-1,23
 312 696 312 696 334 695.5 c 128,-1,24
 356 695 356 695 389.5 672 c 128,-1,25
 423 649 423 649 436 649 c 2,0,1
361 536 m 0,26,27
 485 536 485 536 528 468 c 0,28,29
 556 423 556 423 556 348 c 0,30,31
 556 306 556 306 548 256 c 0,32,33
 523 107 523 107 467.5 51 c 128,-1,34
 412 -5 412 -5 283.5 -5 c 128,-1,35
 155 -5 155 -5 111 56 c 0,36,37
 82 96 82 96 82 172 c 0,38,39
 82 212 82 212 92.5 277.5 c 128,-1,40
 103 343 103 343 122.5 395.5 c 128,-1,41
 142 448 142 448 175 479.5 c 128,-1,42
 208 511 208 511 251.5 523.5 c 128,-1,43
 295 536 295 536 361 536 c 0,26,27
139 159 m 0,44,45
 139 143 139 143 146 121.5 c 128,-1,46
 153 100 153 100 163.5 86 c 128,-1,47
 174 72 174 72 195 65 c 0,48,49
 228 53 228 53 276 52.5 c 128,-1,50
 324 52 324 52 348.5 56 c 128,-1,51
 373 60 373 60 397.5 72 c 128,-1,52
 422 84 422 84 438 106 c 0,53,54
 473 155 473 155 490 258 c 0,55,56
 499 314 499 314 499 346 c 128,-1,57
 499 378 499 378 494 400 c 128,-1,58
 489 422 489 422 478 438 c 128,-1,59
 467 454 467 454 448 463 c 0,60,61
 415 478 415 478 368.5 478 c 128,-1,62
 322 478 322 478 300.5 476 c 128,-1,63
 279 474 279 474 256.5 466 c 128,-1,64
 234 458 234 458 219 443 c 0,65,66
 184 408 184 408 161.5 329 c 128,-1,67
 139 250 139 250 139 159 c 0,44,45
EndSplineSet
Substitution2: "'smcp' Lowercase to Small Capitals lookup 0 subtable" otilde.smcp
EndChar

StartChar: odieresis
Encoding: 246 246 183
Width: 562
GlyphClass: 2
Flags: W
LayerCount: 2
Fore
SplineSet
256 675 m 128,-1,1
 273 675 273 675 282 664 c 128,-1,2
 291 653 291 653 288.5 636 c 128,-1,3
 286 619 286 619 273 607.5 c 128,-1,4
 260 596 260 596 246.5 596 c 128,-1,5
 233 596 233 596 224 601 c 0,6,7
 206 613 206 613 209 633 c 128,-1,8
 212 653 212 653 225.5 664 c 128,-1,0
 239 675 239 675 256 675 c 128,-1,1
511 675 m 128,-1,10
 528 675 528 675 537 664 c 128,-1,11
 546 653 546 653 543.5 636 c 128,-1,12
 541 619 541 619 528 607.5 c 128,-1,13
 515 596 515 596 501.5 596 c 128,-1,14
 488 596 488 596 479 601 c 0,15,16
 461 613 461 613 464 633 c 128,-1,17
 467 653 467 653 480.5 664 c 128,-1,9
 494 675 494 675 511 675 c 128,-1,10
361 536 m 0,18,19
 485 536 485 536 528 468 c 0,20,21
 556 423 556 423 556 348 c 0,22,23
 556 306 556 306 548 256 c 0,24,25
 523 107 523 107 467.5 51 c 128,-1,26
 412 -5 412 -5 283.5 -5 c 128,-1,27
 155 -5 155 -5 111 56 c 0,28,29
 82 96 82 96 82 172 c 0,30,31
 82 212 82 212 92.5 277.5 c 128,-1,32
 103 343 103 343 122.5 395.5 c 128,-1,33
 142 448 142 448 175 479.5 c 128,-1,34
 208 511 208 511 251.5 523.5 c 128,-1,35
 295 536 295 536 361 536 c 0,18,19
139 159 m 0,36,37
 139 143 139 143 146 121.5 c 128,-1,38
 153 100 153 100 163.5 86 c 128,-1,39
 174 72 174 72 195 65 c 0,40,41
 228 53 228 53 276 52.5 c 128,-1,42
 324 52 324 52 348.5 56 c 128,-1,43
 373 60 373 60 397.5 72 c 128,-1,44
 422 84 422 84 438 106 c 0,45,46
 473 155 473 155 490 258 c 0,47,48
 499 314 499 314 499 346 c 128,-1,49
 499 378 499 378 494 400 c 128,-1,50
 489 422 489 422 478 438 c 128,-1,51
 467 454 467 454 448 463 c 0,52,53
 415 478 415 478 368.5 478 c 128,-1,54
 322 478 322 478 300.5 476 c 128,-1,55
 279 474 279 474 256.5 466 c 128,-1,56
 234 458 234 458 219 443 c 0,57,58
 184 408 184 408 161.5 329 c 128,-1,59
 139 250 139 250 139 159 c 0,36,37
EndSplineSet
Substitution2: "'smcp' Lowercase to Small Capitals lookup 0 subtable" odieresis.smcp
EndChar

StartChar: divide
Encoding: 247 247 184
Width: 529
GlyphClass: 2
Flags: W
LayerCount: 2
Fore
SplineSet
100 324 m 1,0,-1
 109 382 l 1,1,-1
 525 382 l 1,2,-1
 516 324 l 1,3,-1
 100 324 l 1,0,-1
279 239 m 2,4,-1
 317 239 l 2,5,6
 335 239 335 239 332 218 c 2,7,-1
 324 168 l 1,8,9
 322 149 322 149 302 149 c 2,10,-1
 265 149 l 2,11,12
 256 149 256 149 251.5 154.5 c 128,-1,13
 247 160 247 160 248 168 c 2,14,-1
 256 218 l 2,15,16
 259 239 259 239 279 239 c 2,4,-1
328 550 m 2,17,-1
 366 550 l 2,18,19
 382 550 382 550 382 535 c 0,20,21
 382 532 382 532 381 530 c 2,22,-1
 374 479 l 2,23,24
 372 460 372 460 351 460 c 2,25,-1
 314 460 l 2,26,27
 295 460 295 460 298 479 c 2,28,-1
 305 530 l 2,29,30
 308 550 308 550 328 550 c 2,17,-1
EndSplineSet
EndChar

StartChar: oslash
Encoding: 248 248 185
Width: 558
GlyphClass: 2
Flags: W
LayerCount: 2
Fore
SplineSet
80 169 m 0,0,1
 80 210 80 210 89 269 c 128,-1,2
 98 328 98 328 113 374 c 128,-1,3
 128 420 128 420 149 452 c 128,-1,4
 170 484 170 484 201 502 c 0,5,6
 258 536 258 536 354.5 536 c 128,-1,7
 451 536 451 536 497 499 c 1,8,-1
 526 531 l 1,9,-1
 576 531 l 1,10,-1
 523 473 l 1,11,12
 555 429 555 429 555 349 c 0,13,14
 555 307 555 307 544.5 243.5 c 128,-1,15
 534 180 534 180 516 132 c 128,-1,16
 498 84 498 84 467 52.5 c 128,-1,17
 436 21 436 21 392.5 8 c 128,-1,18
 349 -5 349 -5 283 -5 c 0,19,20
 177 -5 177 -5 129 35 c 1,21,-1
 98 0 l 1,22,-1
 51 0 l 1,23,-1
 105 60 l 1,24,25
 80 98 80 98 80 169 c 0,0,1
352 478 m 0,26,27
 313 478 313 478 288.5 474.5 c 128,-1,28
 264 471 264 471 239.5 458.5 c 128,-1,29
 215 446 215 446 199 422 c 0,30,31
 164 369 164 369 146 258 c 0,32,33
 138 209 138 209 138 170.5 c 128,-1,34
 138 132 138 132 147 109 c 1,35,-1
 458 455 l 1,36,37
 427 478 427 478 352 478 c 0,26,27
388 67.5 m 128,-1,39
 420 83 420 83 436 106 c 0,40,41
 471 155 471 155 489 258 c 0,42,43
 498 311 498 311 498 355.5 c 128,-1,44
 498 400 498 400 483 428 c 1,45,-1
 169 79 l 1,46,47
 198 52 198 52 277 52 c 128,-1,38
 356 52 356 52 388 67.5 c 128,-1,39
EndSplineSet
Substitution2: "'smcp' Lowercase to Small Capitals lookup 0 subtable" oslash.smcp
EndChar

StartChar: ugrave
Encoding: 249 249 186
Width: 541
GlyphClass: 2
Flags: W
LayerCount: 2
Fore
SplineSet
211 729 m 1,0,-1
 278 729 l 1,1,-1
 382 596 l 1,2,-1
 331 596 l 1,3,-1
 211 729 l 1,0,-1
131 133 m 0,4,5
 131 98 131 98 152 73.5 c 128,-1,6
 173 49 173 49 226 49 c 128,-1,7
 279 49 279 49 321 61.5 c 128,-1,8
 363 74 363 74 434 107 c 1,9,-1
 501 531 l 1,10,-1
 558 531 l 1,11,-1
 474 0 l 1,12,-1
 435 0 l 1,13,-1
 427 62 l 1,14,15
 384 39 384 39 358 26.5 c 128,-1,16
 332 14 332 14 291.5 2.5 c 128,-1,17
 251 -9 251 -9 213 -9 c 0,18,19
 136 -9 136 -9 100 40 c 0,20,21
 73 77 73 77 73 128 c 0,22,23
 73 144 73 144 76 161 c 2,24,-1
 134 531 l 1,25,-1
 192 531 l 1,26,-1
 133 161 l 2,27,28
 131 146 131 146 131 133 c 0,4,5
EndSplineSet
AlternateSubs2: "'salt' Stylistic Alternatives in Latin lookup 15 subtable" ugrave.salt
Substitution2: "'smcp' Lowercase to Small Capitals lookup 0 subtable" ugrave.smcp
EndChar

StartChar: uacute
Encoding: 250 250 187
Width: 541
GlyphClass: 2
Flags: W
LayerCount: 2
Fore
SplineSet
331 596 m 1,0,-1
 464 729 l 1,1,-1
 536 729 l 1,2,-1
 382 596 l 1,3,-1
 331 596 l 1,0,-1
131 133 m 0,4,5
 131 98 131 98 152 73.5 c 128,-1,6
 173 49 173 49 226 49 c 128,-1,7
 279 49 279 49 321 61.5 c 128,-1,8
 363 74 363 74 434 107 c 1,9,-1
 501 531 l 1,10,-1
 558 531 l 1,11,-1
 474 0 l 1,12,-1
 435 0 l 1,13,-1
 427 62 l 1,14,15
 384 39 384 39 358 26.5 c 128,-1,16
 332 14 332 14 291.5 2.5 c 128,-1,17
 251 -9 251 -9 213 -9 c 0,18,19
 136 -9 136 -9 100 40 c 0,20,21
 73 77 73 77 73 128 c 0,22,23
 73 144 73 144 76 161 c 2,24,-1
 134 531 l 1,25,-1
 192 531 l 1,26,-1
 133 161 l 2,27,28
 131 146 131 146 131 133 c 0,4,5
EndSplineSet
AlternateSubs2: "'salt' Stylistic Alternatives in Latin lookup 15 subtable" uacute.salt
Substitution2: "'smcp' Lowercase to Small Capitals lookup 0 subtable" uacute.smcp
EndChar

StartChar: ucircumflex
Encoding: 251 251 188
Width: 541
GlyphClass: 2
Flags: W
LayerCount: 2
Fore
SplineSet
214 596 m 1,0,-1
 357 726 l 1,1,-1
 411 726 l 1,2,-1
 499 596 l 1,3,-1
 450 596 l 1,4,-1
 381 690 l 1,5,-1
 273 596 l 1,6,-1
 214 596 l 1,0,-1
131 133 m 0,7,8
 131 98 131 98 152 73.5 c 128,-1,9
 173 49 173 49 226 49 c 128,-1,10
 279 49 279 49 321 61.5 c 128,-1,11
 363 74 363 74 434 107 c 1,12,-1
 501 531 l 1,13,-1
 558 531 l 1,14,-1
 474 0 l 1,15,-1
 435 0 l 1,16,-1
 427 62 l 1,17,18
 384 39 384 39 358 26.5 c 128,-1,19
 332 14 332 14 291.5 2.5 c 128,-1,20
 251 -9 251 -9 213 -9 c 0,21,22
 136 -9 136 -9 100 40 c 0,23,24
 73 77 73 77 73 128 c 0,25,26
 73 144 73 144 76 161 c 2,27,-1
 134 531 l 1,28,-1
 192 531 l 1,29,-1
 133 161 l 2,30,31
 131 146 131 146 131 133 c 0,7,8
EndSplineSet
AlternateSubs2: "'salt' Stylistic Alternatives in Latin lookup 15 subtable" ucircumflex.salt
Substitution2: "'smcp' Lowercase to Small Capitals lookup 0 subtable" ucircumflex.smcp
EndChar

StartChar: udieresis
Encoding: 252 252 189
Width: 541
GlyphClass: 2
Flags: W
LayerCount: 2
Fore
SplineSet
242 675 m 128,-1,1
 259 675 259 675 268 664 c 128,-1,2
 277 653 277 653 274.5 636 c 128,-1,3
 272 619 272 619 259 607.5 c 128,-1,4
 246 596 246 596 229.5 596 c 128,-1,5
 213 596 213 596 203 608 c 128,-1,6
 193 620 193 620 195.5 636.5 c 128,-1,7
 198 653 198 653 211.5 664 c 128,-1,0
 225 675 225 675 242 675 c 128,-1,1
497 675 m 128,-1,9
 514 675 514 675 523 664 c 128,-1,10
 532 653 532 653 529.5 636 c 128,-1,11
 527 619 527 619 514 607.5 c 128,-1,12
 501 596 501 596 484.5 596 c 128,-1,13
 468 596 468 596 458 608 c 128,-1,14
 448 620 448 620 450.5 636.5 c 128,-1,15
 453 653 453 653 466.5 664 c 128,-1,8
 480 675 480 675 497 675 c 128,-1,9
131 133 m 0,16,17
 131 98 131 98 152 73.5 c 128,-1,18
 173 49 173 49 226 49 c 128,-1,19
 279 49 279 49 321 61.5 c 128,-1,20
 363 74 363 74 434 107 c 1,21,-1
 501 531 l 1,22,-1
 558 531 l 1,23,-1
 474 0 l 1,24,-1
 435 0 l 1,25,-1
 427 62 l 1,26,27
 384 39 384 39 358 26.5 c 128,-1,28
 332 14 332 14 291.5 2.5 c 128,-1,29
 251 -9 251 -9 213 -9 c 0,30,31
 136 -9 136 -9 100 40 c 0,32,33
 73 77 73 77 73 128 c 0,34,35
 73 144 73 144 76 161 c 2,36,-1
 134 531 l 1,37,-1
 192 531 l 1,38,-1
 133 161 l 2,39,40
 131 146 131 146 131 133 c 0,16,17
EndSplineSet
AlternateSubs2: "'salt' Stylistic Alternatives in Latin lookup 15 subtable" udieresis.salt
Substitution2: "'smcp' Lowercase to Small Capitals lookup 0 subtable" udieresis.smcp
EndChar

StartChar: yacute
Encoding: 253 253 190
Width: 544
GlyphClass: 2
Flags: W
LayerCount: 2
Fore
SplineSet
314 591 m 1,0,-1
 447 724 l 1,1,-1
 519 724 l 1,2,-1
 365 591 l 1,3,-1
 314 591 l 1,0,-1
569 535 m 1,4,5
 574 520 574 520 574 497 c 128,-1,6
 574 474 574 474 556 440 c 2,7,-1
 338 1 l 1,8,9
 266 -141 266 -141 212 -199 c 0,10,11
 155 -261 155 -261 98 -269 c 1,12,-1
 98 -229 l 1,13,14
 132 -214 132 -214 165 -173 c 0,15,16
 204 -125 204 -125 225.5 -85.5 c 128,-1,17
 247 -46 247 -46 250.5 -39 c 128,-1,18
 254 -32 254 -32 262 -16.5 c 128,-1,19
 270 -1 270 -1 271 0 c 1,20,21
 245 0 245 0 221 14 c 0,22,23
 175 40 175 40 164 110 c 2,24,-1
 94 531 l 1,25,-1
 154 531 l 1,26,-1
 223 116 l 2,27,28
 233 60 233 60 289 59 c 1,29,-1
 300 60 l 1,30,-1
 497 453 l 2,31,32
 517 492 517 492 523 535 c 1,33,-1
 569 535 l 1,4,5
EndSplineSet
Substitution2: "'smcp' Lowercase to Small Capitals lookup 0 subtable" yacute.smcp
EndChar

StartChar: thorn
Encoding: 254 254 191
Width: 543
GlyphClass: 2
Flags: W
LayerCount: 2
Fore
SplineSet
421 540 m 128,-1,1
 459 540 459 540 490 514.5 c 128,-1,2
 521 489 521 489 534 449 c 0,3,4
 552 392 552 392 552 344.5 c 128,-1,5
 552 297 552 297 547 265.5 c 128,-1,6
 542 234 542 234 537.5 213 c 128,-1,7
 533 192 533 192 524.5 161 c 128,-1,8
 516 130 516 130 506 108.5 c 128,-1,9
 496 87 496 87 479 63 c 128,-1,10
 462 39 462 39 442 24 c 0,11,12
 394 -10 394 -10 327 -10 c 0,13,14
 289 -10 289 -10 231 0.5 c 128,-1,15
 173 11 173 11 132 29 c 1,16,-1
 84 -270 l 1,17,-1
 27 -270 l 1,18,-1
 194 782 l 1,19,-1
 252 782 l 1,20,-1
 202 471 l 1,21,22
 246 500 246 500 314.5 520 c 128,-1,0
 383 540 383 540 421 540 c 128,-1,1
488 269 m 0,23,24
 494 309 494 309 494 352 c 128,-1,25
 494 395 494 395 479 429 c 1,26,27
 457 483 457 483 408 483 c 0,28,29
 352 483 352 483 266 454 c 0,30,31
 240 446 240 446 195 430 c 1,32,-1
 139 74 l 1,33,34
 207 54 207 54 248.5 51.5 c 128,-1,35
 290 49 290 49 332 48 c 1,36,37
 392 48 392 48 431.5 98.5 c 128,-1,38
 471 149 471 149 488 269 c 0,23,24
EndSplineSet
Substitution2: "'smcp' Lowercase to Small Capitals lookup 0 subtable" thorn.smcp
EndChar

StartChar: ydieresis
Encoding: 255 255 192
Width: 544
GlyphClass: 2
Flags: W
LayerCount: 2
Fore
SplineSet
227.5 681 m 128,-1,1
 238 681 238 681 246 676 c 0,2,3
 264 665 264 665 261 645 c 128,-1,4
 258 625 258 625 244.5 613.5 c 128,-1,5
 231 602 231 602 214.5 602 c 128,-1,6
 198 602 198 602 188 613.5 c 128,-1,7
 178 625 178 625 180.5 639 c 128,-1,8
 183 653 183 653 189.5 662 c 128,-1,9
 196 671 196 671 206.5 676 c 128,-1,0
 217 681 217 681 227.5 681 c 128,-1,1
471.5 679.5 m 128,-1,11
 477 681 477 681 485 681 c 128,-1,12
 493 681 493 681 501 676 c 0,13,14
 519 665 519 665 516 645 c 128,-1,15
 513 625 513 625 499.5 613.5 c 128,-1,16
 486 602 486 602 469.5 602 c 128,-1,17
 453 602 453 602 443 613.5 c 128,-1,18
 433 625 433 625 435 636 c 128,-1,19
 437 647 437 647 439 652.5 c 128,-1,20
 441 658 441 658 444.5 662 c 128,-1,21
 448 666 448 666 452 669.5 c 128,-1,22
 456 673 456 673 461 675.5 c 128,-1,10
 466 678 466 678 471.5 679.5 c 128,-1,11
569 535 m 1,23,24
 574 520 574 520 574 497 c 128,-1,25
 574 474 574 474 556 440 c 2,26,-1
 338 1 l 1,27,28
 266 -141 266 -141 212 -199 c 0,29,30
 155 -261 155 -261 98 -269 c 1,31,-1
 98 -229 l 1,32,33
 132 -214 132 -214 165 -173 c 0,34,35
 204 -125 204 -125 225.5 -85.5 c 128,-1,36
 247 -46 247 -46 250.5 -39 c 128,-1,37
 254 -32 254 -32 262 -16.5 c 128,-1,38
 270 -1 270 -1 271 0 c 1,39,40
 245 0 245 0 221 14 c 0,41,42
 175 40 175 40 164 110 c 2,43,-1
 94 531 l 1,44,-1
 154 531 l 1,45,-1
 223 116 l 2,46,47
 233 60 233 60 289 59 c 1,48,-1
 300 60 l 1,49,-1
 497 453 l 2,50,51
 517 492 517 492 523 535 c 1,52,-1
 569 535 l 1,23,24
EndSplineSet
Substitution2: "'smcp' Lowercase to Small Capitals lookup 0 subtable" ydieresis.smcp
EndChar

StartChar: Amacron
Encoding: 256 256 193
Width: 654
GlyphClass: 2
Flags: W
LayerCount: 2
Fore
SplineSet
333 797 m 1,0,-1
 341 844 l 1,1,-1
 619 844 l 1,2,-1
 612 797 l 1,3,-1
 333 797 l 1,0,-1
45 0 m 1,4,-1
 432 732 l 1,5,-1
 492 732 l 1,6,-1
 635 0 l 1,7,-1
 577 0 l 1,8,-1
 534 220 l 1,9,-1
 225 220 l 1,10,-1
 109 0 l 1,11,-1
 45 0 l 1,4,-1
256 278 m 1,12,-1
 523 278 l 1,13,-1
 452 655 l 1,14,-1
 256 278 l 1,12,-1
EndSplineSet
Substitution2: "'c2sc' Capitals to Small Capitals in Latin lookup 1 subtable" amacron.smcp
EndChar

StartChar: amacron
Encoding: 257 257 194
Width: 542
GlyphClass: 2
Flags: W
LayerCount: 2
Fore
SplineSet
218 603 m 1,0,-1
 226 650 l 1,1,-1
 504 650 l 1,2,-1
 497 603 l 1,3,-1
 218 603 l 1,0,-1
256 531 m 128,-1,5
 278 537 278 537 301 540 c 128,-1,6
 324 543 324 543 355.5 543 c 128,-1,7
 387 543 387 543 452.5 528.5 c 128,-1,8
 518 514 518 514 554 479 c 1,9,-1
 484 0 l 1,10,-1
 444 0 l 1,11,-1
 437 60 l 1,12,13
 403 38 403 38 348.5 15.5 c 128,-1,14
 294 -7 294 -7 254 -7 c 128,-1,15
 214 -7 214 -7 190 -2.5 c 128,-1,16
 166 2 166 2 145 14 c 1,17,18
 104 35 104 35 87 98 c 0,19,20
 79 126 79 126 79 148 c 128,-1,21
 79 170 79 170 79.5 195 c 128,-1,22
 80 220 80 220 90.5 281 c 128,-1,23
 101 342 101 342 119.5 389.5 c 128,-1,24
 138 437 138 437 158.5 463.5 c 128,-1,25
 179 490 179 490 206.5 507.5 c 128,-1,4
 234 525 234 525 256 531 c 128,-1,5
171 364.5 m 128,-1,27
 155 319 155 319 146 262.5 c 128,-1,28
 137 206 137 206 137 165 c 0,29,30
 137 50 137 50 241 50 c 0,31,32
 299 50 299 50 337 63 c 0,33,34
 384 78 384 78 440 102 c 1,35,-1
 494 460 l 1,36,37
 413 487 413 487 351 487 c 0,38,39
 297 487 297 487 264.5 472.5 c 128,-1,40
 232 458 232 458 209.5 434 c 128,-1,26
 187 410 187 410 171 364.5 c 128,-1,27
EndSplineSet
AlternateSubs2: "'salt' Stylistic Alternatives in Latin lookup 15 subtable" amacron.salt
Substitution2: "'smcp' Lowercase to Small Capitals lookup 0 subtable" amacron.smcp
EndChar

StartChar: Abreve
Encoding: 258 258 195
Width: 654
GlyphClass: 2
Flags: W
LayerCount: 2
Fore
SplineSet
411 897 m 0,0,1
 411 872 411 872 428 852 c 128,-1,2
 445 832 445 832 476 832 c 2,3,4
 476 832 476 832 483.5 832 c 128,-1,5
 491 832 491 832 504 835 c 128,-1,6
 517 838 517 838 528 844.5 c 128,-1,7
 539 851 539 851 547 860 c 0,8,9
 564 879 564 879 569 911 c 1,10,-1
 605 911 l 1,11,12
 596 854 596 854 561.5 825.5 c 128,-1,13
 527 797 527 797 480 797 c 128,-1,14
 433 797 433 797 404.5 825.5 c 128,-1,15
 376 854 376 854 376 896 c 0,16,17
 376 903 376 903 377 911 c 1,18,-1
 412 911 l 1,19,20
 411 904 411 904 411 897 c 0,0,1
45 0 m 1,21,-1
 432 732 l 1,22,-1
 492 732 l 1,23,-1
 635 0 l 1,24,-1
 577 0 l 1,25,-1
 534 220 l 1,26,-1
 225 220 l 1,27,-1
 109 0 l 1,28,-1
 45 0 l 1,21,-1
256 278 m 1,29,-1
 523 278 l 1,30,-1
 452 655 l 1,31,-1
 256 278 l 1,29,-1
EndSplineSet
Substitution2: "'c2sc' Capitals to Small Capitals in Latin lookup 1 subtable" abreve.smcp
EndChar

StartChar: abreve
Encoding: 259 259 196
Width: 542
GlyphClass: 2
Flags: W
LayerCount: 2
Fore
SplineSet
305 717 m 1,0,1
 304 710 304 710 304 699 c 128,-1,2
 304 688 304 688 311 672.5 c 128,-1,3
 318 657 318 657 334 647.5 c 128,-1,4
 350 638 350 638 360 638 c 128,-1,5
 370 638 370 638 370.5 638 c 128,-1,6
 371 638 371 638 383 638 c 128,-1,7
 395 638 395 638 414 647 c 0,8,9
 454 665 454 665 463 717 c 1,10,-1
 498 717 l 1,11,12
 490 660 490 660 455.5 631.5 c 128,-1,13
 421 603 421 603 373.5 603 c 128,-1,14
 326 603 326 603 297.5 631.5 c 128,-1,15
 269 660 269 660 269 702 c 0,16,17
 269 709 269 709 270 717 c 1,18,-1
 305 717 l 1,0,1
256 531 m 128,-1,20
 278 537 278 537 301 540 c 128,-1,21
 324 543 324 543 355.5 543 c 128,-1,22
 387 543 387 543 452.5 528.5 c 128,-1,23
 518 514 518 514 554 479 c 1,24,-1
 484 0 l 1,25,-1
 444 0 l 1,26,-1
 437 60 l 1,27,28
 403 38 403 38 348.5 15.5 c 128,-1,29
 294 -7 294 -7 254 -7 c 128,-1,30
 214 -7 214 -7 190 -2.5 c 128,-1,31
 166 2 166 2 145 14 c 1,32,33
 104 35 104 35 87 98 c 0,34,35
 79 126 79 126 79 148 c 128,-1,36
 79 170 79 170 79.5 195 c 128,-1,37
 80 220 80 220 90.5 281 c 128,-1,38
 101 342 101 342 119.5 389.5 c 128,-1,39
 138 437 138 437 158.5 463.5 c 128,-1,40
 179 490 179 490 206.5 507.5 c 128,-1,19
 234 525 234 525 256 531 c 128,-1,20
171 364.5 m 128,-1,42
 155 319 155 319 146 262.5 c 128,-1,43
 137 206 137 206 137 165 c 0,44,45
 137 50 137 50 241 50 c 0,46,47
 299 50 299 50 337 63 c 0,48,49
 384 78 384 78 440 102 c 1,50,-1
 494 460 l 1,51,52
 413 487 413 487 351 487 c 0,53,54
 297 487 297 487 264.5 472.5 c 128,-1,55
 232 458 232 458 209.5 434 c 128,-1,41
 187 410 187 410 171 364.5 c 128,-1,42
EndSplineSet
Substitution2: "'smcp' Lowercase to Small Capitals lookup 0 subtable" abreve.smcp
EndChar

StartChar: Aogonek
Encoding: 260 260 197
Width: 812
GlyphClass: 2
Flags: W
LayerCount: 2
Fore
SplineSet
726 0 m 1,0,1
 646 -48 646 -48 646 -96 c 0,2,3
 646 -136 646 -136 710 -136 c 0,4,5
 713 -136 713 -136 717 -136 c 1,6,-1
 709 -181 l 1,7,8
 698 -183 698 -183 687 -183 c 0,9,10
 645 -183 645 -183 620.5 -160 c 128,-1,11
 596 -137 596 -137 596 -110 c 0,12,13
 596 -40 596 -40 696 0 c 1,14,-1
 726 0 l 1,0,1
147 0 m 1,15,-1
 534 732 l 1,16,-1
 594 732 l 1,17,-1
 737 0 l 1,18,-1
 679 0 l 1,19,-1
 636 220 l 1,20,-1
 327 220 l 1,21,-1
 211 0 l 1,22,-1
 147 0 l 1,15,-1
358 278 m 1,23,-1
 625 278 l 1,24,-1
 554 655 l 1,25,-1
 358 278 l 1,23,-1
EndSplineSet
Substitution2: "'c2sc' Capitals to Small Capitals in Latin lookup 1 subtable" aogonek.smcp
EndChar

StartChar: aogonek
Encoding: 261 261 198
Width: 506
GlyphClass: 2
Flags: W
LayerCount: 2
Fore
SplineSet
465 0 m 1,0,1
 385 -48 385 -48 385 -96 c 0,2,3
 385 -136 385 -136 449 -136 c 0,4,5
 452 -136 452 -136 456 -136 c 1,6,-1
 448 -181 l 1,7,8
 437 -183 437 -183 426 -183 c 0,9,10
 384 -183 384 -183 359.5 -160 c 128,-1,11
 335 -137 335 -137 335 -109 c 0,12,13
 335 -40 335 -40 435 0 c 1,14,-1
 465 0 l 1,0,1
242 531 m 128,-1,16
 264 537 264 537 287 540 c 128,-1,17
 310 543 310 543 341 543 c 128,-1,18
 372 543 372 543 437.5 528.5 c 128,-1,19
 503 514 503 514 539 479 c 1,20,-1
 469 0 l 1,21,-1
 429 0 l 1,22,-1
 422 60 l 1,23,24
 388 38 388 38 334 15.5 c 128,-1,25
 280 -7 280 -7 239.5 -7 c 128,-1,26
 199 -7 199 -7 175.5 -2.5 c 128,-1,27
 152 2 152 2 130 14 c 0,28,29
 89 35 89 35 72 98 c 0,30,31
 65 126 65 126 65 148 c 128,-1,32
 65 170 65 170 65 195 c 128,-1,33
 65 220 65 220 75.5 281 c 128,-1,34
 86 342 86 342 105 389.5 c 128,-1,35
 124 437 124 437 144 463.5 c 128,-1,36
 164 490 164 490 192 507.5 c 128,-1,15
 220 525 220 525 242 531 c 128,-1,16
156 364.5 m 128,-1,38
 140 319 140 319 131 262.5 c 128,-1,39
 122 206 122 206 122 165 c 0,40,41
 122 50 122 50 227 50 c 0,42,43
 296 50 296 50 359 74 c 0,44,45
 380 82 380 82 426 102 c 1,46,-1
 480 460 l 1,47,48
 398 487 398 487 336 487 c 0,49,50
 282 487 282 487 250 472.5 c 128,-1,51
 218 458 218 458 195 434 c 128,-1,37
 172 410 172 410 156 364.5 c 128,-1,38
EndSplineSet
AlternateSubs2: "'salt' Stylistic Alternatives in Latin lookup 15 subtable" aogonek.salt
Substitution2: "'smcp' Lowercase to Small Capitals lookup 0 subtable" aogonek.smcp
EndChar

